<svg width="64" height="21" viewBox="0 0 64 21" fill="none" xmlns="http://www.w3.org/2000/svg">
<mask id="path-1-outside-1_41_410" maskUnits="userSpaceOnUse" x="0" y="0" width="64" height="21" fill="black">
<rect fill="white" width="64" height="21"/>
<path d="M6.82 16.2C5.87333 16.2 5.02 16.0133 4.26 15.64C3.5 15.28 2.9 14.78 2.46 14.14C2.03333 13.4867 1.82 12.7467 1.82 11.92C1.82 11.6 1.92 11.3467 2.12 11.16C2.33333 10.96 2.58 10.86 2.86 10.86C3.07333 10.86 3.26667 10.9267 3.44 11.06C3.61333 11.1933 3.72 11.3933 3.76 11.66C3.94667 13.38 5.05333 14.24 7.08 14.24C8.05333 14.24 8.82 14.0267 9.38 13.6C9.94 13.1733 10.22 12.6267 10.22 11.96C10.22 11.56 10.0267 11.2267 9.64 10.96C9.25333 10.68 8.72667 10.4333 8.06 10.22L7.44 10C6.12 9.56 5.17333 9.2 4.6 8.92C2.96 8.10667 2.14 6.96 2.14 5.48C2.14 4.81333 2.35333 4.17333 2.78 3.56C3.20667 2.94667 3.8 2.45333 4.56 2.08C5.33333 1.69333 6.19333 1.5 7.14 1.5C8.12667 1.5 9.00667 1.68 9.78 2.04C10.5533 2.4 11.1533 2.88 11.58 3.48C12.0067 4.08 12.22 4.72 12.22 5.4C12.22 5.74667 12.12 6.02 11.92 6.22C11.7333 6.40667 11.5 6.5 11.22 6.5C10.9533 6.5 10.7267 6.40667 10.54 6.22C10.3533 6.02 10.26 5.76 10.26 5.44C10.26 5.10667 10.12 4.78 9.84 4.46C9.54667 4.15333 9.15333 3.90667 8.66 3.72C8.18 3.52 7.65333 3.42 7.08 3.42C6.09333 3.42 5.36 3.59333 4.88 3.94C4.4 4.27333 4.14667 4.74 4.12 5.34C4.10667 5.66 4.20667 5.94 4.42 6.18C4.63333 6.42 4.96667 6.66667 5.42 6.92C5.84667 7.14667 6.3 7.36 6.78 7.56C7.26 7.74667 7.9 7.97333 8.7 8.24C9.76667 8.6 10.6133 9.07333 11.24 9.66C11.88 10.2333 12.2 10.98 12.2 11.9C12.2 12.7533 11.9467 13.5067 11.44 14.16C10.9333 14.8133 10.2667 15.32 9.44 15.68C8.62667 16.0267 7.75333 16.2 6.82 16.2ZM17.7294 15.94C17.6494 15.9133 17.4894 15.8733 17.2494 15.82C16.996 15.7667 16.7827 15.7067 16.6094 15.64C16.2494 15.5067 15.916 15.32 15.6094 15.08C15.316 14.84 15.0694 14.4933 14.8694 14.04C14.7227 13.68 14.6294 12.9733 14.5894 11.92C14.5494 11.1067 14.5427 10.06 14.5694 8.78C14.5694 8.54 14.576 8.14 14.5894 7.58L14.4294 7.6C14.096 7.62667 13.836 7.55333 13.6494 7.38C13.4627 7.19333 13.356 6.97333 13.3294 6.72C13.3027 6.46667 13.356 6.23333 13.4894 6.02C13.636 5.79333 13.8694 5.65333 14.1894 5.6L14.6494 5.56C14.6627 4.85333 14.6827 4.14 14.7094 3.42C14.7227 3.08667 14.836 2.84667 15.0494 2.7C15.2627 2.54 15.496 2.46667 15.7494 2.48C16.016 2.48 16.2427 2.56667 16.4294 2.74C16.6294 2.91333 16.7227 3.16667 16.7094 3.5L16.6494 5.4L17.3094 5.36C17.6427 5.34667 17.896 5.43333 18.0694 5.62C18.256 5.80667 18.356 6.03333 18.3694 6.3C18.396 6.55333 18.336 6.78667 18.1894 7C18.0427 7.21333 17.8027 7.33333 17.4694 7.36L16.5894 7.4C16.576 8.04 16.5694 8.50667 16.5694 8.8C16.5427 10.0533 16.5494 11.0733 16.5894 11.86C16.6027 12.34 16.6294 12.7267 16.6694 13.02C16.7094 13.3133 16.816 13.5133 16.9894 13.62C17.016 13.6467 17.116 13.6867 17.2894 13.74C17.476 13.7933 17.676 13.8533 17.8894 13.92C18.1027 13.9733 18.2627 14.02 18.3694 14.06C18.676 14.1533 18.876 14.3267 18.9694 14.58C19.0627 14.82 19.0694 15.0667 18.9894 15.32C18.9094 15.56 18.756 15.7533 18.5294 15.9C18.316 16.0333 18.0494 16.0467 17.7294 15.94ZM24.8767 16.1C23.8901 16.0333 23.0301 15.8333 22.2967 15.5C21.5634 15.1667 21.0034 14.7467 20.6167 14.24C20.2301 13.7333 19.9501 13.2667 19.7767 12.84C19.6034 12.4133 19.4967 11.9933 19.4567 11.58C19.4167 11.1533 19.4367 10.6067 19.5167 9.94C19.6234 9.32667 19.8367 8.74 20.1567 8.18C20.4901 7.62 20.9101 7.13333 21.4167 6.72C21.9367 6.29333 22.5301 5.98 23.1967 5.78C23.8767 5.56667 24.6034 5.50667 25.3767 5.6C26.1501 5.69333 26.8101 5.90667 27.3567 6.24C27.9034 6.56 28.3701 6.97333 28.7567 7.48C29.0901 7.90667 29.2967 8.22667 29.3767 8.44C29.4434 8.65333 29.5101 8.85333 29.5767 9.04C29.6301 9.24 29.6901 9.46667 29.7567 9.72C29.8367 9.97333 29.8834 10.2067 29.8967 10.42C29.9234 10.9667 29.7167 11.3667 29.2767 11.62C29.1034 11.6867 28.9167 11.72 28.7167 11.72L25.2967 11.78C22.8967 11.7933 21.6967 11.82 21.6967 11.86H21.6367C21.9967 13.2467 23.1167 14.0067 24.9967 14.14C25.5167 14.1667 25.9501 14.14 26.2967 14.06C26.6834 13.9533 26.9634 13.86 27.1367 13.78C27.3101 13.6867 27.5234 13.5667 27.7767 13.42C28.0834 13.3133 28.3434 13.32 28.5567 13.44C28.7834 13.5467 28.9367 13.72 29.0167 13.96C29.1101 14.2 29.1167 14.4467 29.0367 14.7C28.9567 14.9533 28.7767 15.16 28.4967 15.32C28.2834 15.44 28.0634 15.54 27.8367 15.62C27.5167 15.7533 27.1234 15.8733 26.6567 15.98C26.1901 16.0733 25.5967 16.1133 24.8767 16.1ZM21.6767 9.9C22.4501 9.86 24.4567 9.82 27.6967 9.78C27.5767 9.38 27.3834 9 27.1167 8.64C26.5834 8.02667 25.9234 7.67333 25.1367 7.58C24.3101 7.47333 23.5834 7.65333 22.9567 8.12C22.3301 8.57333 21.9034 9.16667 21.6767 9.9ZM33.7922 19.02C33.7922 19.3533 33.6922 19.6 33.4922 19.76C33.2922 19.92 33.0589 19.9933 32.7922 19.98C32.5255 19.98 32.2922 19.8933 32.0922 19.72C31.8922 19.5467 31.7922 19.3 31.7922 18.98C31.8455 16.3533 31.8722 12.16 31.8722 6.4C31.8722 6.12 31.9655 5.88667 32.1522 5.7C32.3522 5.5 32.5922 5.4 32.8722 5.4C33.0722 5.4 33.2522 5.49333 33.4122 5.68C33.5855 5.85333 33.7122 6.07333 33.7922 6.34L34.0722 6.16C34.8722 5.68 35.6655 5.42 36.4522 5.38C37.2389 5.34 37.9455 5.51333 38.5722 5.9C39.1589 6.23333 39.6522 6.7 40.0522 7.3C40.4655 7.9 40.7655 8.55333 40.9522 9.26C41.0989 9.76667 41.1789 10.3067 41.1922 10.88C41.2055 11.4533 41.1322 11.9867 40.9722 12.48C40.8122 12.9733 40.5789 13.46 40.2722 13.94C39.9655 14.42 39.5322 14.84 38.9722 15.2C38.4255 15.56 37.7922 15.8067 37.0722 15.94C35.8322 16.1667 34.7589 15.9533 33.8522 15.3C33.8389 16.54 33.8189 17.78 33.7922 19.02ZM36.7122 13.98C37.7255 13.7933 38.4322 13.3133 38.8322 12.54C39.2455 11.7533 39.3122 10.8333 39.0322 9.78C38.7522 8.74 38.2655 8.02667 37.5722 7.64C36.8655 7.22667 36.0455 7.30667 35.1122 7.88C34.6855 8.13333 34.4389 8.3 34.3722 8.38C34.3322 8.42 34.2989 8.45333 34.2722 8.48C34.2455 8.52 34.1989 8.6 34.1322 8.72L33.8722 9.08V12.36C33.9389 12.4267 33.9922 12.5 34.0322 12.58C34.4055 13.1667 34.7989 13.5733 35.2122 13.8C35.6255 14.0267 36.1255 14.0867 36.7122 13.98ZM52.8244 15.98C51.9577 15.9133 51.211 15.6667 50.5844 15.24C49.971 14.84 49.5244 14.3733 49.2444 13.84C49.191 13.7333 49.011 13.2533 48.7044 12.4C48.5977 12.0933 48.611 11.8267 48.7444 11.6C48.8777 11.3733 49.0644 11.2133 49.3044 11.12C49.5577 11.0133 49.8044 11.0067 50.0444 11.1C50.2977 11.18 50.4777 11.3867 50.5844 11.72C50.851 12.4667 50.991 12.8467 51.0044 12.86C51.1244 13.0867 51.3444 13.3067 51.6644 13.52C52.0244 13.7467 52.4777 13.8933 53.0244 13.96C53.571 14.0133 54.1244 13.9533 54.6844 13.78C55.2444 13.6067 55.6977 13.36 56.0444 13.04C56.391 12.7067 56.5977 12.3267 56.6644 11.9C56.771 11.18 56.4777 10.6 55.7844 10.16C55.5177 10 55.211 9.86667 54.8644 9.76C54.7577 9.72 54.651 9.68667 54.5444 9.66L54.4444 9.64C54.4177 9.64 54.3977 9.63333 54.3844 9.62C54.3577 9.62 54.331 9.61333 54.3044 9.6C54.2644 9.58667 54.2244 9.56667 54.1844 9.54C54.1177 9.51333 54.051 9.46667 53.9844 9.4C53.7844 9.22667 53.671 9 53.6444 8.72C53.6177 8.41333 53.711 8.13333 53.9244 7.88C53.991 7.8 54.071 7.72667 54.1644 7.66L54.5644 7.4C54.9377 7.14667 55.2177 6.93333 55.4044 6.76C55.9644 6.26667 56.1644 5.77333 56.0044 5.28C55.7377 4.41333 55.1444 3.92 54.2244 3.8C53.7844 3.73333 53.331 3.76667 52.8644 3.9C52.411 4.03333 52.011 4.24667 51.6644 4.54C51.5577 4.64667 51.471 4.72667 51.4044 4.78C51.3244 4.84667 51.2577 4.93333 51.2044 5.04C51.0844 5.22667 50.9977 5.4 50.9444 5.56C50.9044 5.70667 50.8177 5.9 50.6844 6.14C50.551 6.44667 50.3577 6.63333 50.1044 6.7C49.8644 6.76667 49.6177 6.74667 49.3644 6.64C49.1244 6.52 48.9444 6.34 48.8244 6.1C48.7177 5.86 48.7377 5.58667 48.8844 5.28C48.911 5.21333 48.971 5.06667 49.0644 4.84C49.171 4.6 49.251 4.43333 49.3044 4.34C49.3977 4.14 49.5377 3.91333 49.7244 3.66C49.911 3.40667 50.131 3.18 50.3844 2.98C50.9444 2.48667 51.591 2.13333 52.3244 1.92C53.0577 1.70667 53.7844 1.65333 54.5044 1.76C55.2777 1.86667 55.971 2.16667 56.5844 2.66C57.211 3.14 57.6577 3.79333 57.9244 4.62C58.351 5.99333 57.951 7.22667 56.7244 8.32L56.7044 8.34L56.8244 8.42C57.4377 8.80667 57.9244 9.31333 58.2844 9.94C58.6577 10.5667 58.771 11.3267 58.6244 12.22C58.491 13.1267 58.1044 13.88 57.4644 14.48C56.8377 15.08 56.1044 15.5 55.2644 15.74C54.5177 15.9933 53.7044 16.0733 52.8244 15.98ZM62.5691 14.02C62.8491 14.2867 62.9757 14.5733 62.9491 14.88C62.9224 15.1733 62.7957 15.4267 62.5691 15.64C62.3557 15.8533 62.0957 15.9733 61.7891 16C61.4957 16.0267 61.2224 15.9067 60.9691 15.64C60.6891 15.36 60.5691 15.0733 60.6091 14.78C60.6491 14.4867 60.7757 14.2333 60.9891 14.02C61.2024 13.8067 61.4557 13.6867 61.7491 13.66C62.0424 13.6333 62.3157 13.7533 62.5691 14.02ZM62.5291 5.82C62.8091 6.08667 62.9357 6.37333 62.9091 6.68C62.8824 6.97333 62.7557 7.22667 62.5291 7.44C62.3157 7.65333 62.0557 7.77333 61.7491 7.8C61.4557 7.82667 61.1824 7.70667 60.9291 7.44C60.6491 7.16 60.5291 6.87333 60.5691 6.58C60.6091 6.28667 60.7357 6.03333 60.9491 5.82C61.1624 5.60667 61.4157 5.48667 61.7091 5.46C62.0024 5.43333 62.2757 5.55333 62.5291 5.82Z"/>
</mask>
<path d="M6.82 16.2C5.87333 16.2 5.02 16.0133 4.26 15.64C3.5 15.28 2.9 14.78 2.46 14.14C2.03333 13.4867 1.82 12.7467 1.82 11.92C1.82 11.6 1.92 11.3467 2.12 11.16C2.33333 10.96 2.58 10.86 2.86 10.86C3.07333 10.86 3.26667 10.9267 3.44 11.06C3.61333 11.1933 3.72 11.3933 3.76 11.66C3.94667 13.38 5.05333 14.24 7.08 14.24C8.05333 14.24 8.82 14.0267 9.38 13.6C9.94 13.1733 10.22 12.6267 10.22 11.96C10.22 11.56 10.0267 11.2267 9.64 10.96C9.25333 10.68 8.72667 10.4333 8.06 10.22L7.44 10C6.12 9.56 5.17333 9.2 4.6 8.92C2.96 8.10667 2.14 6.96 2.14 5.48C2.14 4.81333 2.35333 4.17333 2.78 3.56C3.20667 2.94667 3.8 2.45333 4.56 2.08C5.33333 1.69333 6.19333 1.5 7.14 1.5C8.12667 1.5 9.00667 1.68 9.78 2.04C10.5533 2.4 11.1533 2.88 11.58 3.48C12.0067 4.08 12.22 4.72 12.22 5.4C12.22 5.74667 12.12 6.02 11.92 6.22C11.7333 6.40667 11.5 6.5 11.22 6.5C10.9533 6.5 10.7267 6.40667 10.54 6.22C10.3533 6.02 10.26 5.76 10.26 5.44C10.26 5.10667 10.12 4.78 9.84 4.46C9.54667 4.15333 9.15333 3.90667 8.66 3.72C8.18 3.52 7.65333 3.42 7.08 3.42C6.09333 3.42 5.36 3.59333 4.88 3.94C4.4 4.27333 4.14667 4.74 4.12 5.34C4.10667 5.66 4.20667 5.94 4.42 6.18C4.63333 6.42 4.96667 6.66667 5.42 6.92C5.84667 7.14667 6.3 7.36 6.78 7.56C7.26 7.74667 7.9 7.97333 8.7 8.24C9.76667 8.6 10.6133 9.07333 11.24 9.66C11.88 10.2333 12.2 10.98 12.2 11.9C12.2 12.7533 11.9467 13.5067 11.44 14.16C10.9333 14.8133 10.2667 15.32 9.44 15.68C8.62667 16.0267 7.75333 16.2 6.82 16.2ZM17.7294 15.94C17.6494 15.9133 17.4894 15.8733 17.2494 15.82C16.996 15.7667 16.7827 15.7067 16.6094 15.64C16.2494 15.5067 15.916 15.32 15.6094 15.08C15.316 14.84 15.0694 14.4933 14.8694 14.04C14.7227 13.68 14.6294 12.9733 14.5894 11.92C14.5494 11.1067 14.5427 10.06 14.5694 8.78C14.5694 8.54 14.576 8.14 14.5894 7.58L14.4294 7.6C14.096 7.62667 13.836 7.55333 13.6494 7.38C13.4627 7.19333 13.356 6.97333 13.3294 6.72C13.3027 6.46667 13.356 6.23333 13.4894 6.02C13.636 5.79333 13.8694 5.65333 14.1894 5.6L14.6494 5.56C14.6627 4.85333 14.6827 4.14 14.7094 3.42C14.7227 3.08667 14.836 2.84667 15.0494 2.7C15.2627 2.54 15.496 2.46667 15.7494 2.48C16.016 2.48 16.2427 2.56667 16.4294 2.74C16.6294 2.91333 16.7227 3.16667 16.7094 3.5L16.6494 5.4L17.3094 5.36C17.6427 5.34667 17.896 5.43333 18.0694 5.62C18.256 5.80667 18.356 6.03333 18.3694 6.3C18.396 6.55333 18.336 6.78667 18.1894 7C18.0427 7.21333 17.8027 7.33333 17.4694 7.36L16.5894 7.4C16.576 8.04 16.5694 8.50667 16.5694 8.8C16.5427 10.0533 16.5494 11.0733 16.5894 11.86C16.6027 12.34 16.6294 12.7267 16.6694 13.02C16.7094 13.3133 16.816 13.5133 16.9894 13.62C17.016 13.6467 17.116 13.6867 17.2894 13.74C17.476 13.7933 17.676 13.8533 17.8894 13.92C18.1027 13.9733 18.2627 14.02 18.3694 14.06C18.676 14.1533 18.876 14.3267 18.9694 14.58C19.0627 14.82 19.0694 15.0667 18.9894 15.32C18.9094 15.56 18.756 15.7533 18.5294 15.9C18.316 16.0333 18.0494 16.0467 17.7294 15.94ZM24.8767 16.1C23.8901 16.0333 23.0301 15.8333 22.2967 15.5C21.5634 15.1667 21.0034 14.7467 20.6167 14.24C20.2301 13.7333 19.9501 13.2667 19.7767 12.84C19.6034 12.4133 19.4967 11.9933 19.4567 11.58C19.4167 11.1533 19.4367 10.6067 19.5167 9.94C19.6234 9.32667 19.8367 8.74 20.1567 8.18C20.4901 7.62 20.9101 7.13333 21.4167 6.72C21.9367 6.29333 22.5301 5.98 23.1967 5.78C23.8767 5.56667 24.6034 5.50667 25.3767 5.6C26.1501 5.69333 26.8101 5.90667 27.3567 6.24C27.9034 6.56 28.3701 6.97333 28.7567 7.48C29.0901 7.90667 29.2967 8.22667 29.3767 8.44C29.4434 8.65333 29.5101 8.85333 29.5767 9.04C29.6301 9.24 29.6901 9.46667 29.7567 9.72C29.8367 9.97333 29.8834 10.2067 29.8967 10.42C29.9234 10.9667 29.7167 11.3667 29.2767 11.62C29.1034 11.6867 28.9167 11.72 28.7167 11.72L25.2967 11.78C22.8967 11.7933 21.6967 11.82 21.6967 11.86H21.6367C21.9967 13.2467 23.1167 14.0067 24.9967 14.14C25.5167 14.1667 25.9501 14.14 26.2967 14.06C26.6834 13.9533 26.9634 13.86 27.1367 13.78C27.3101 13.6867 27.5234 13.5667 27.7767 13.42C28.0834 13.3133 28.3434 13.32 28.5567 13.44C28.7834 13.5467 28.9367 13.72 29.0167 13.96C29.1101 14.2 29.1167 14.4467 29.0367 14.7C28.9567 14.9533 28.7767 15.16 28.4967 15.32C28.2834 15.44 28.0634 15.54 27.8367 15.62C27.5167 15.7533 27.1234 15.8733 26.6567 15.98C26.1901 16.0733 25.5967 16.1133 24.8767 16.1ZM21.6767 9.9C22.4501 9.86 24.4567 9.82 27.6967 9.78C27.5767 9.38 27.3834 9 27.1167 8.64C26.5834 8.02667 25.9234 7.67333 25.1367 7.58C24.3101 7.47333 23.5834 7.65333 22.9567 8.12C22.3301 8.57333 21.9034 9.16667 21.6767 9.9ZM33.7922 19.02C33.7922 19.3533 33.6922 19.6 33.4922 19.76C33.2922 19.92 33.0589 19.9933 32.7922 19.98C32.5255 19.98 32.2922 19.8933 32.0922 19.72C31.8922 19.5467 31.7922 19.3 31.7922 18.98C31.8455 16.3533 31.8722 12.16 31.8722 6.4C31.8722 6.12 31.9655 5.88667 32.1522 5.7C32.3522 5.5 32.5922 5.4 32.8722 5.4C33.0722 5.4 33.2522 5.49333 33.4122 5.68C33.5855 5.85333 33.7122 6.07333 33.7922 6.34L34.0722 6.16C34.8722 5.68 35.6655 5.42 36.4522 5.38C37.2389 5.34 37.9455 5.51333 38.5722 5.9C39.1589 6.23333 39.6522 6.7 40.0522 7.3C40.4655 7.9 40.7655 8.55333 40.9522 9.26C41.0989 9.76667 41.1789 10.3067 41.1922 10.88C41.2055 11.4533 41.1322 11.9867 40.9722 12.48C40.8122 12.9733 40.5789 13.46 40.2722 13.94C39.9655 14.42 39.5322 14.84 38.9722 15.2C38.4255 15.56 37.7922 15.8067 37.0722 15.94C35.8322 16.1667 34.7589 15.9533 33.8522 15.3C33.8389 16.54 33.8189 17.78 33.7922 19.02ZM36.7122 13.98C37.7255 13.7933 38.4322 13.3133 38.8322 12.54C39.2455 11.7533 39.3122 10.8333 39.0322 9.78C38.7522 8.74 38.2655 8.02667 37.5722 7.64C36.8655 7.22667 36.0455 7.30667 35.1122 7.88C34.6855 8.13333 34.4389 8.3 34.3722 8.38C34.3322 8.42 34.2989 8.45333 34.2722 8.48C34.2455 8.52 34.1989 8.6 34.1322 8.72L33.8722 9.08V12.36C33.9389 12.4267 33.9922 12.5 34.0322 12.58C34.4055 13.1667 34.7989 13.5733 35.2122 13.8C35.6255 14.0267 36.1255 14.0867 36.7122 13.98ZM52.8244 15.98C51.9577 15.9133 51.211 15.6667 50.5844 15.24C49.971 14.84 49.5244 14.3733 49.2444 13.84C49.191 13.7333 49.011 13.2533 48.7044 12.4C48.5977 12.0933 48.611 11.8267 48.7444 11.6C48.8777 11.3733 49.0644 11.2133 49.3044 11.12C49.5577 11.0133 49.8044 11.0067 50.0444 11.1C50.2977 11.18 50.4777 11.3867 50.5844 11.72C50.851 12.4667 50.991 12.8467 51.0044 12.86C51.1244 13.0867 51.3444 13.3067 51.6644 13.52C52.0244 13.7467 52.4777 13.8933 53.0244 13.96C53.571 14.0133 54.1244 13.9533 54.6844 13.78C55.2444 13.6067 55.6977 13.36 56.0444 13.04C56.391 12.7067 56.5977 12.3267 56.6644 11.9C56.771 11.18 56.4777 10.6 55.7844 10.16C55.5177 10 55.211 9.86667 54.8644 9.76C54.7577 9.72 54.651 9.68667 54.5444 9.66L54.4444 9.64C54.4177 9.64 54.3977 9.63333 54.3844 9.62C54.3577 9.62 54.331 9.61333 54.3044 9.6C54.2644 9.58667 54.2244 9.56667 54.1844 9.54C54.1177 9.51333 54.051 9.46667 53.9844 9.4C53.7844 9.22667 53.671 9 53.6444 8.72C53.6177 8.41333 53.711 8.13333 53.9244 7.88C53.991 7.8 54.071 7.72667 54.1644 7.66L54.5644 7.4C54.9377 7.14667 55.2177 6.93333 55.4044 6.76C55.9644 6.26667 56.1644 5.77333 56.0044 5.28C55.7377 4.41333 55.1444 3.92 54.2244 3.8C53.7844 3.73333 53.331 3.76667 52.8644 3.9C52.411 4.03333 52.011 4.24667 51.6644 4.54C51.5577 4.64667 51.471 4.72667 51.4044 4.78C51.3244 4.84667 51.2577 4.93333 51.2044 5.04C51.0844 5.22667 50.9977 5.4 50.9444 5.56C50.9044 5.70667 50.8177 5.9 50.6844 6.14C50.551 6.44667 50.3577 6.63333 50.1044 6.7C49.8644 6.76667 49.6177 6.74667 49.3644 6.64C49.1244 6.52 48.9444 6.34 48.8244 6.1C48.7177 5.86 48.7377 5.58667 48.8844 5.28C48.911 5.21333 48.971 5.06667 49.0644 4.84C49.171 4.6 49.251 4.43333 49.3044 4.34C49.3977 4.14 49.5377 3.91333 49.7244 3.66C49.911 3.40667 50.131 3.18 50.3844 2.98C50.9444 2.48667 51.591 2.13333 52.3244 1.92C53.0577 1.70667 53.7844 1.65333 54.5044 1.76C55.2777 1.86667 55.971 2.16667 56.5844 2.66C57.211 3.14 57.6577 3.79333 57.9244 4.62C58.351 5.99333 57.951 7.22667 56.7244 8.32L56.7044 8.34L56.8244 8.42C57.4377 8.80667 57.9244 9.31333 58.2844 9.94C58.6577 10.5667 58.771 11.3267 58.6244 12.22C58.491 13.1267 58.1044 13.88 57.4644 14.48C56.8377 15.08 56.1044 15.5 55.2644 15.74C54.5177 15.9933 53.7044 16.0733 52.8244 15.98ZM62.5691 14.02C62.8491 14.2867 62.9757 14.5733 62.9491 14.88C62.9224 15.1733 62.7957 15.4267 62.5691 15.64C62.3557 15.8533 62.0957 15.9733 61.7891 16C61.4957 16.0267 61.2224 15.9067 60.9691 15.64C60.6891 15.36 60.5691 15.0733 60.6091 14.78C60.6491 14.4867 60.7757 14.2333 60.9891 14.02C61.2024 13.8067 61.4557 13.6867 61.7491 13.66C62.0424 13.6333 62.3157 13.7533 62.5691 14.02ZM62.5291 5.82C62.8091 6.08667 62.9357 6.37333 62.9091 6.68C62.8824 6.97333 62.7557 7.22667 62.5291 7.44C62.3157 7.65333 62.0557 7.77333 61.7491 7.8C61.4557 7.82667 61.1824 7.70667 60.9291 7.44C60.6491 7.16 60.5291 6.87333 60.5691 6.58C60.6091 6.28667 60.7357 6.03333 60.9491 5.82C61.1624 5.60667 61.4157 5.48667 61.7091 5.46C62.0024 5.43333 62.2757 5.55333 62.5291 5.82Z" fill="url(#paint0_linear_41_410)"/>
<path d="M4.26 15.64L4.7009 14.7424L4.69452 14.7393L4.68809 14.7363L4.26 15.64ZM2.46 14.14L1.62273 14.6868L1.62923 14.6967L1.63596 14.7065L2.46 14.14ZM2.12 11.16L2.80232 11.8911L2.80394 11.8895L2.12 11.16ZM3.44 11.06L4.04971 10.2674L4.04971 10.2674L3.44 11.06ZM3.76 11.66L4.75416 11.5521L4.75196 11.5318L4.74894 11.5117L3.76 11.66ZM9.38 13.6L9.98604 14.3954L9.38 13.6ZM9.64 10.96L9.05349 11.7699L9.0628 11.7767L9.07227 11.7832L9.64 10.96ZM8.06 10.22L7.72559 11.1624L7.74033 11.1677L7.75522 11.1724L8.06 10.22ZM7.44 10L7.77441 9.05757L7.76535 9.05436L7.75623 9.05132L7.44 10ZM4.6 8.92L4.15569 9.8159L4.16116 9.81857L4.6 8.92ZM2.78 3.56L1.95909 2.98893L1.95909 2.98893L2.78 3.56ZM4.56 2.08L5.00092 2.97758L5.00721 2.97443L4.56 2.08ZM11.58 3.48L12.395 2.90048L12.395 2.90047L11.58 3.48ZM11.92 6.22L11.2129 5.51289L11.2129 5.51289L11.92 6.22ZM10.54 6.22L9.80895 6.90232L9.82071 6.91492L9.83289 6.92711L10.54 6.22ZM9.84 4.46L10.5926 3.80149L10.578 3.7848L10.5626 3.76878L9.84 4.46ZM8.66 3.72L8.27539 4.64308L8.29065 4.64944L8.30611 4.65529L8.66 3.72ZM4.88 3.94L5.4504 4.76137L5.45799 4.75609L5.46549 4.75068L4.88 3.94ZM4.12 5.34L3.12098 5.2956L3.12087 5.29837L4.12 5.34ZM4.42 6.18L5.16741 5.51564L5.16741 5.51564L4.42 6.18ZM5.42 6.92L4.93218 7.79294L4.94146 7.79813L4.95084 7.80311L5.42 6.92ZM6.78 7.56L6.39538 8.48308L6.40642 8.48767L6.41755 8.492L6.78 7.56ZM8.7 8.24L9.01978 7.2925L9.01623 7.29132L8.7 8.24ZM11.24 9.66L10.5566 10.39L10.5646 10.3975L10.5728 10.4048L11.24 9.66ZM11.44 14.16L10.6498 13.5472L11.44 14.16ZM9.44 15.68L9.83211 16.6L9.83927 16.5968L9.44 15.68ZM6.82 16.2V15.2C6.00799 15.2 5.30824 15.0408 4.7009 14.7424L4.26 15.64L3.8191 16.5376C4.73176 16.9859 5.73868 17.2 6.82 17.2V16.2ZM4.26 15.64L4.68809 14.7363C4.07388 14.4453 3.6159 14.0562 3.28404 13.5735L2.46 14.14L1.63596 14.7065C2.1841 15.5038 2.92612 16.1147 3.83191 16.5437L4.26 15.64ZM2.46 14.14L3.29727 13.5932C2.98322 13.1123 2.82 12.5646 2.82 11.92H1.82H0.82C0.82 12.9288 1.08344 13.861 1.62273 14.6868L2.46 14.14ZM1.82 11.92H2.82C2.82 11.8641 2.82862 11.8484 2.82516 11.8572C2.82353 11.8613 2.82024 11.8681 2.81498 11.8758C2.80972 11.8835 2.80485 11.8887 2.80232 11.8911L2.12 11.16L1.43768 10.4289C1.00036 10.8371 0.82 11.3741 0.82 11.92H1.82ZM2.12 11.16L2.80394 11.8895C2.81737 11.8769 2.82703 11.8699 2.83252 11.8664C2.83786 11.8629 2.84048 11.8618 2.8407 11.8617C2.84088 11.8617 2.84124 11.8615 2.84279 11.8612C2.84446 11.8609 2.84981 11.86 2.86 11.86V10.86V9.86C2.31377 9.86 1.82566 10.0652 1.43606 10.4305L2.12 11.16ZM2.86 10.86V11.86C2.86105 11.86 2.85897 11.8601 2.85448 11.8593C2.84992 11.8586 2.84455 11.8573 2.83901 11.8554C2.83349 11.8535 2.82951 11.8515 2.8274 11.8504C2.82536 11.8493 2.82635 11.8496 2.83029 11.8526L3.44 11.06L4.04971 10.2674C3.7063 10.0032 3.29977 9.86 2.86 9.86V10.86ZM3.44 11.06L2.83029 11.8526C2.81665 11.8421 2.80346 11.8296 2.7918 11.8157C2.7802 11.8019 2.7724 11.7895 2.76765 11.7806C2.75827 11.763 2.76485 11.7669 2.77106 11.8083L3.76 11.66L4.74894 11.5117C4.68001 11.0521 4.47338 10.5933 4.04971 10.2674L3.44 11.06ZM3.76 11.66L2.76584 11.7679C2.8811 12.83 3.30092 13.7509 4.11639 14.3846C4.90832 15 5.9404 15.24 7.08 15.24V14.24V13.24C6.19293 13.24 5.65834 13.05 5.34361 12.8054C5.05242 12.5791 4.82557 12.21 4.75416 11.5521L3.76 11.66ZM7.08 14.24V15.24C8.19003 15.24 9.19616 14.9972 9.98604 14.3954L9.38 13.6L8.77396 12.8046C8.44384 13.0561 7.91664 13.24 7.08 13.24V14.24ZM9.38 13.6L9.98604 14.3954C10.7781 13.792 11.22 12.9586 11.22 11.96H10.22H9.22C9.22 12.2948 9.1019 12.5547 8.77396 12.8046L9.38 13.6ZM10.22 11.96H11.22C11.22 11.1704 10.8108 10.5527 10.2077 10.1368L9.64 10.96L9.07227 11.7832C9.17009 11.8507 9.20186 11.8977 9.20997 11.9117C9.21478 11.92 9.22 11.9292 9.22 11.96H10.22ZM9.64 10.96L10.2265 10.1501C9.72416 9.78628 9.08979 9.49958 8.36478 9.26758L8.06 10.22L7.75522 11.1724C8.36354 11.3671 8.78251 11.5737 9.05349 11.7699L9.64 10.96ZM8.06 10.22L8.39441 9.27757L7.77441 9.05757L7.44 10L7.10559 10.9424L7.72559 11.1624L8.06 10.22ZM7.44 10L7.75623 9.05132C6.44114 8.61295 5.54837 8.27027 5.03884 8.02143L4.6 8.92L4.16116 9.81857C4.7983 10.1297 5.79886 10.507 7.12377 10.9487L7.44 10ZM4.6 8.92L5.0443 8.02412C3.64767 7.33148 3.14 6.48265 3.14 5.48H2.14H1.14C1.14 7.43735 2.27233 8.88185 4.1557 9.81588L4.6 8.92ZM2.14 5.48H3.14C3.14 5.04174 3.27619 4.59785 3.60091 4.13106L2.78 3.56L1.95909 2.98893C1.43048 3.74882 1.14 4.58493 1.14 5.48H2.14ZM2.78 3.56L3.60091 4.13106C3.91834 3.67475 4.37261 3.28619 5.0009 2.97755L4.56 2.08L4.1191 1.18244C3.22739 1.62048 2.49499 2.21858 1.95909 2.98893L2.78 3.56ZM4.56 2.08L5.00721 2.97443C5.62888 2.66359 6.3336 2.5 7.14 2.5V1.5V0.5C6.05307 0.5 5.03778 0.723074 4.11279 1.18557L4.56 2.08ZM7.14 1.5V2.5C8.00362 2.5 8.736 2.65705 9.35797 2.94658L9.78 2.04L10.202 1.13342C9.27733 0.702954 8.24972 0.5 7.14 0.5V1.5ZM9.78 2.04L9.35797 2.94658C9.99938 3.24517 10.4538 3.62178 10.765 4.05952L11.58 3.48L12.395 2.90047C11.8529 2.13822 11.1073 1.55483 10.202 1.13342L9.78 2.04ZM11.58 3.48L10.765 4.05952C11.0818 4.505 11.22 4.9451 11.22 5.4H12.22H13.22C13.22 4.4949 12.9315 3.655 12.395 2.90048L11.58 3.48ZM12.22 5.4H11.22C11.22 5.47796 11.2087 5.51362 11.2059 5.52142C11.2045 5.52524 11.2044 5.5244 11.2066 5.52091C11.2089 5.51735 11.2114 5.51442 11.2129 5.51289L11.92 6.22L12.6271 6.92711C13.0553 6.49892 13.22 5.94826 13.22 5.4H12.22ZM11.92 6.22L11.2129 5.51289C11.2107 5.51513 11.2118 5.51361 11.2165 5.51045C11.2214 5.50722 11.2274 5.50401 11.2336 5.50152C11.2397 5.49907 11.2432 5.49848 11.2424 5.49863C11.2413 5.49881 11.2344 5.5 11.22 5.5V6.5V7.5C11.7474 7.5 12.2406 7.31357 12.6271 6.92711L11.92 6.22ZM11.22 6.5V5.5C11.2119 5.5 11.2101 5.49931 11.2134 5.49993C11.2169 5.50059 11.2231 5.50217 11.2308 5.50532C11.2384 5.50848 11.2445 5.51196 11.2483 5.51458C11.2521 5.5171 11.2515 5.5173 11.2471 5.51289L10.54 6.22L9.83289 6.92711C10.2092 7.30344 10.6911 7.5 11.22 7.5V6.5ZM10.54 6.22L11.2711 5.53768C11.2701 5.53667 11.2707 5.5372 11.2717 5.5388C11.2727 5.54039 11.2723 5.54031 11.2712 5.53714C11.2691 5.5312 11.26 5.50275 11.26 5.44H10.26H9.26C9.26 5.96741 9.4205 6.48613 9.80895 6.90232L10.54 6.22ZM10.26 5.44H11.26C11.26 4.80361 10.9869 4.25211 10.5926 3.80149L9.84 4.46L9.08742 5.1185C9.25314 5.30789 9.26 5.40972 9.26 5.44H10.26ZM9.84 4.46L10.5626 3.76878C10.1442 3.33132 9.61372 3.01168 9.01389 2.78471L8.66 3.72L8.30611 4.65529C8.69294 4.80166 8.94913 4.97535 9.11736 5.15122L9.84 4.46ZM8.66 3.72L9.04462 2.79692C8.4308 2.54117 7.77177 2.42 7.08 2.42V3.42V4.42C7.5349 4.42 7.9292 4.49883 8.27539 4.64308L8.66 3.72ZM7.08 3.42V2.42C6.01008 2.42 5.02501 2.60173 4.29451 3.12932L4.88 3.94L5.46549 4.75068C5.69499 4.58493 6.17659 4.42 7.08 4.42V3.42ZM4.88 3.94L4.3096 3.11863C3.56514 3.63562 3.16105 4.39406 3.12099 5.2956L4.12 5.34L5.11901 5.3844C5.13228 5.08594 5.23486 4.91105 5.4504 4.76137L4.88 3.94ZM4.12 5.34L3.12087 5.29837C3.09671 5.87819 3.28749 6.41113 3.67259 6.84436L4.42 6.18L5.16741 5.51564C5.12584 5.46887 5.11663 5.44181 5.11913 5.38163L4.12 5.34ZM4.42 6.18L3.67259 6.84436C3.99172 7.20339 4.43377 7.51442 4.93218 7.79294L5.42 6.92L5.90782 6.04706C5.49956 5.81891 5.27495 5.63661 5.16741 5.51564L4.42 6.18ZM5.42 6.92L4.95084 7.80311C5.40704 8.04547 5.88876 8.27198 6.39538 8.48308L6.78 7.56L7.16462 6.63692C6.71125 6.44802 6.28629 6.24786 5.88916 6.03688L5.42 6.92ZM6.78 7.56L6.41755 8.492C6.91931 8.68713 7.57665 8.91964 8.38377 9.18868L8.7 8.24L9.01623 7.29132C8.22335 7.02702 7.60069 6.8062 7.14245 6.62799L6.78 7.56ZM8.7 8.24L8.38022 9.18749C9.35182 9.5154 10.0613 9.92638 10.5566 10.39L11.24 9.66L11.9234 8.92998C11.1653 8.22029 10.1815 7.68459 9.01978 7.29251L8.7 8.24ZM11.24 9.66L10.5728 10.4048C10.9847 10.7739 11.2 11.2416 11.2 11.9H12.2H13.2C13.2 10.7184 12.7753 9.6928 11.9072 8.91516L11.24 9.66ZM12.2 11.9H11.2C11.2 12.5391 11.0158 13.0752 10.6498 13.5472L11.44 14.16L12.2302 14.7728C12.8775 13.9382 13.2 12.9675 13.2 11.9H12.2ZM11.44 14.16L10.6498 13.5472C10.255 14.0562 9.72793 14.4639 9.04073 14.7632L9.44 15.68L9.83927 16.5968C10.8054 16.1761 11.6117 15.5704 12.2302 14.7728L11.44 14.16ZM9.44 15.68L9.0479 14.7601C8.36537 15.051 7.6262 15.2 6.82 15.2V16.2V17.2C7.88047 17.2 8.88797 17.0023 9.8321 16.5999L9.44 15.68ZM17.7294 15.94L17.4131 16.8887L17.7294 15.94ZM17.2494 15.82L17.4663 14.8438L17.4554 14.8414L17.2494 15.82ZM16.6094 15.64L16.9684 14.7066L16.9567 14.7023L16.6094 15.64ZM15.6094 15.08L14.9761 15.854L14.9845 15.8608L14.9931 15.8675L15.6094 15.08ZM14.8694 14.04L13.9433 14.4173L13.9487 14.4305L13.9545 14.4436L14.8694 14.04ZM14.5894 11.92L15.5887 11.882L15.5882 11.8709L14.5894 11.92ZM14.5694 8.78L15.5692 8.80083L15.5694 8.79041V8.78H14.5694ZM14.5894 7.58L15.5891 7.6038L15.6167 6.4438L14.4653 6.58772L14.5894 7.58ZM14.4294 7.6L14.5091 8.59682L14.5313 8.59504L14.5534 8.59228L14.4294 7.6ZM13.6494 7.38L12.9423 8.08711L12.9554 8.1002L12.9689 8.11279L13.6494 7.38ZM13.3294 6.72L14.3239 6.61531L13.3294 6.72ZM13.4894 6.02L12.6498 5.47675L12.6455 5.48334L12.6414 5.49L13.4894 6.02ZM14.1894 5.6L14.1027 4.60376L14.0637 4.60716L14.025 4.61361L14.1894 5.6ZM14.6494 5.56L14.736 6.55624L15.6322 6.47831L15.6492 5.57886L14.6494 5.56ZM14.7094 3.42L13.7102 3.38003L13.7101 3.38299L14.7094 3.42ZM15.0494 2.7L15.6159 3.52404L15.6329 3.51237L15.6494 3.5L15.0494 2.7ZM15.7494 2.48L15.6968 3.47862L15.7231 3.48H15.7494V2.48ZM16.4294 2.74L15.7489 3.47279L15.7615 3.48446L15.7744 3.49569L16.4294 2.74ZM16.7094 3.5L15.7101 3.46003L15.7099 3.46844L16.7094 3.5ZM16.6494 5.4L15.6499 5.36844L15.6153 6.46451L16.7099 6.39817L16.6494 5.4ZM17.3094 5.36L17.2694 4.3608L17.2591 4.36121L17.2489 4.36183L17.3094 5.36ZM18.0694 5.62L17.3366 6.30045L17.3492 6.31402L17.3623 6.3271L18.0694 5.62ZM18.3694 6.3L17.3706 6.34994L17.372 6.37737L17.3749 6.40469L18.3694 6.3ZM18.1894 7L17.3653 6.43347L18.1894 7ZM17.4694 7.36L17.5148 8.35897L17.532 8.35819L17.5491 8.35682L17.4694 7.36ZM16.5894 7.4L16.544 6.40103L15.6091 6.44353L15.5896 7.37917L16.5894 7.4ZM16.5694 8.8L17.5691 8.82127L17.5694 8.81064V8.8H16.5694ZM16.5894 11.86L17.589 11.8322L17.5887 11.8207L17.5881 11.8092L16.5894 11.86ZM16.6694 13.02L15.6785 13.1551V13.1551L16.6694 13.02ZM16.9894 13.62L17.6965 12.9129L17.6135 12.8299L17.5135 12.7683L16.9894 13.62ZM17.2894 13.74L16.9953 14.6958L17.0049 14.6987L17.0147 14.7015L17.2894 13.74ZM17.8894 13.92L17.5911 14.8745L17.6187 14.8831L17.6468 14.8901L17.8894 13.92ZM18.3694 14.06L18.0183 14.9963L18.0479 15.0075L18.0782 15.0167L18.3694 14.06ZM18.9694 14.58L18.031 14.9257L18.0341 14.9341L18.0374 14.9424L18.9694 14.58ZM18.9894 15.32L19.9381 15.6362L19.9406 15.6287L19.943 15.6211L18.9894 15.32ZM18.5294 15.9L19.0594 16.748L19.066 16.7438L19.0726 16.7396L18.5294 15.9ZM17.7294 15.94L18.0456 14.9913C17.9089 14.9457 17.6989 14.8955 17.4663 14.8438L17.2494 15.82L17.0324 16.7962C17.1476 16.8218 17.2384 16.843 17.3068 16.8601C17.3409 16.8687 17.3672 16.8756 17.3867 16.881C17.4073 16.8867 17.4148 16.8892 17.4131 16.8887L17.7294 15.94ZM17.2494 15.82L17.4554 14.8414C17.2355 14.7952 17.0769 14.7484 16.9684 14.7067L16.6094 15.64L16.2504 16.5733C16.4885 16.6649 16.7566 16.7382 17.0434 16.7985L17.2494 15.82ZM16.6094 15.64L16.9567 14.7023C16.695 14.6053 16.4522 14.4697 16.2257 14.2925L15.6094 15.08L14.9931 15.8675C15.3799 16.1703 15.8038 16.408 16.2621 16.5777L16.6094 15.64ZM15.6094 15.08L16.2426 14.306C16.1025 14.1914 15.9396 13.9884 15.7843 13.6364L14.8694 14.04L13.9545 14.4436C14.1991 14.9982 14.5296 15.4886 14.9761 15.854L15.6094 15.08ZM14.8694 14.04L15.7955 13.6627C15.7247 13.4889 15.6294 12.9537 15.5887 11.8821L14.5894 11.92L13.5901 11.9579C13.6294 12.993 13.7208 13.8711 13.9433 14.4173L14.8694 14.04ZM14.5894 11.92L15.5882 11.8709C15.5498 11.0901 15.5427 10.069 15.5692 8.80083L14.5694 8.78L13.5696 8.75917C13.5427 10.051 13.549 11.1233 13.5906 11.9691L14.5894 11.92ZM14.5694 8.78H15.5694C15.5694 8.55301 15.5758 8.16349 15.5891 7.6038L14.5894 7.58L13.5897 7.5562C13.5763 8.11651 13.5694 8.52698 13.5694 8.78H14.5694ZM14.5894 7.58L14.4653 6.58772L14.3053 6.60772L14.4294 7.6L14.5534 8.59228L14.7134 8.57228L14.5894 7.58ZM14.4294 7.6L14.3496 6.60318C14.2741 6.60923 14.2482 6.6004 14.2558 6.60255C14.2603 6.6038 14.2715 6.60754 14.2865 6.61586C14.3018 6.62431 14.3168 6.63508 14.3298 6.64721L13.6494 7.38L12.9689 8.11279C13.4199 8.53154 13.9885 8.63846 14.5091 8.59682L14.4294 7.6ZM13.6494 7.38L14.3565 6.67289C14.3357 6.65216 14.3301 6.64062 14.3292 6.63873C14.3285 6.63727 14.3256 6.63168 14.3239 6.61531L13.3294 6.72L12.3349 6.82468C12.3864 7.31462 12.6 7.74485 12.9423 8.08711L13.6494 7.38ZM13.3294 6.72L14.3239 6.61531C14.3213 6.59109 14.3236 6.58043 14.3242 6.57782C14.3248 6.57537 14.3268 6.56694 14.3374 6.55L13.4894 6.02L12.6414 5.49C12.3881 5.89518 12.2852 6.35239 12.3349 6.82468L13.3294 6.72ZM13.4894 6.02L14.3289 6.56325C14.325 6.56927 14.3187 6.57746 14.31 6.58587C14.3013 6.59425 14.2935 6.5997 14.2889 6.60249C14.2794 6.60815 14.2943 6.59631 14.3538 6.58639L14.1894 5.6L14.025 4.61361C13.4883 4.70304 12.9797 4.96686 12.6498 5.47675L13.4894 6.02ZM14.1894 5.6L14.276 6.59624L14.736 6.55624L14.6494 5.56L14.5627 4.56376L14.1027 4.60376L14.1894 5.6ZM14.6494 5.56L15.6492 5.57886C15.6624 4.87836 15.6822 4.17108 15.7087 3.45701L14.7094 3.42L13.7101 3.38299C13.6832 4.10892 13.663 4.8283 13.6496 5.54114L14.6494 5.56ZM14.7094 3.42L15.7086 3.45997C15.7112 3.39413 15.7219 3.38882 15.7086 3.41701C15.7017 3.43175 15.6899 3.45165 15.672 3.47285C15.654 3.49416 15.6343 3.51137 15.6159 3.52404L15.0494 2.7L14.4828 1.87596C13.9372 2.25108 13.7321 2.83158 13.7102 3.38003L14.7094 3.42ZM15.0494 2.7L15.6494 3.5C15.662 3.49056 15.6709 3.48533 15.6761 3.4826C15.6813 3.47993 15.6838 3.47911 15.6842 3.47899C15.6845 3.47889 15.6847 3.47883 15.6855 3.47873C15.6863 3.47863 15.6898 3.47825 15.6968 3.47862L15.7494 2.48L15.8019 1.48138C15.3019 1.45506 14.8398 1.60716 14.4494 1.9L15.0494 2.7ZM15.7494 2.48V3.48C15.7618 3.48 15.7679 3.48099 15.7688 3.48117C15.7697 3.48131 15.7671 3.48089 15.7622 3.47905C15.7574 3.47719 15.7528 3.47486 15.7494 3.47271C15.7461 3.47061 15.746 3.47005 15.7489 3.47279L16.4294 2.74L17.1098 2.00721C16.7289 1.65346 16.2554 1.48 15.7494 1.48V2.48ZM16.4294 2.74L15.7744 3.49569C15.7617 3.48465 15.7478 3.46973 15.7353 3.45153C15.7229 3.43342 15.7152 3.4171 15.711 3.4057C15.7029 3.38371 15.7128 3.39468 15.7102 3.46003L16.7094 3.5L17.7086 3.53997C17.7306 2.9894 17.5724 2.40729 17.0843 1.98431L16.4294 2.74ZM16.7094 3.5L15.7099 3.46844L15.6499 5.36844L16.6494 5.4L17.6489 5.43156L17.7089 3.53156L16.7094 3.5ZM16.6494 5.4L16.7099 6.39817L17.3699 6.35817L17.3094 5.36L17.2489 4.36183L16.5889 4.40183L16.6494 5.4ZM17.3094 5.36L17.3493 6.3592C17.4218 6.3563 17.4408 6.36632 17.4257 6.36116C17.4175 6.35836 17.4028 6.35223 17.3849 6.34078C17.3669 6.32921 17.3503 6.31524 17.3366 6.30045L18.0694 5.62L18.8022 4.93955C18.3728 4.47713 17.7982 4.33965 17.2694 4.3608L17.3094 5.36ZM18.0694 5.62L17.3623 6.3271C17.3688 6.33363 17.3712 6.33716 17.3714 6.3374C17.3715 6.33754 17.3705 6.33611 17.3695 6.33364C17.3684 6.33118 17.3682 6.33007 17.3685 6.3314C17.3688 6.33286 17.3701 6.33866 17.3706 6.34994L18.3694 6.3L19.3681 6.25006C19.3426 5.73889 19.1407 5.27709 18.7765 4.91289L18.0694 5.62ZM18.3694 6.3L17.3749 6.40469C17.3758 6.41308 17.3755 6.41723 17.3755 6.41792C17.3754 6.41851 17.3755 6.41757 17.3759 6.41596C17.3763 6.41436 17.3765 6.41432 17.3756 6.41633C17.3746 6.41846 17.3717 6.42417 17.3653 6.43347L18.1894 7L19.0134 7.56653C19.2926 7.16041 19.4159 6.68975 19.3639 6.19531L18.3694 6.3ZM18.1894 7L17.3653 6.43347C17.3766 6.41712 17.3914 6.40024 17.4089 6.38509C17.4264 6.37006 17.442 6.36067 17.4522 6.35557C17.4714 6.34595 17.4588 6.35765 17.3896 6.36318L17.4694 7.36L17.5491 8.35682C18.088 8.3137 18.6487 8.09699 19.0134 7.56653L18.1894 7ZM17.4694 7.36L17.424 6.36103L16.544 6.40103L16.5894 7.4L16.6348 8.39897L17.5148 8.35897L17.4694 7.36ZM16.5894 7.4L15.5896 7.37917C15.5762 8.02 15.5694 8.49552 15.5694 8.8H16.5694H17.5694C17.5694 8.51781 17.5758 8.06 17.5892 7.42083L16.5894 7.4ZM16.5694 8.8L15.5696 8.77873C15.5427 10.0439 15.549 11.0904 15.5907 11.9108L16.5894 11.86L17.5881 11.8092C17.5498 11.0563 17.5427 10.0628 17.5691 8.82127L16.5694 8.8ZM16.5894 11.86L15.5898 11.8878C15.6036 12.3846 15.6317 12.8113 15.6785 13.1551L16.6694 13.02L17.6602 12.8849C17.6271 12.6421 17.6019 12.2954 17.589 11.8322L16.5894 11.86ZM16.6694 13.02L15.6785 13.1551C15.74 13.6058 15.9374 14.1468 16.4653 14.4717L16.9894 13.62L17.5135 12.7683C17.5511 12.7915 17.5838 12.8191 17.6104 12.8482C17.6365 12.8769 17.6527 12.9025 17.6617 12.9194C17.6783 12.9504 17.6688 12.9482 17.6602 12.8849L16.6694 13.02ZM16.9894 13.62L16.2823 14.3271C16.3978 14.4426 16.5173 14.5063 16.5574 14.5274C16.615 14.5578 16.6701 14.5813 16.713 14.5985C16.7997 14.6332 16.8975 14.6657 16.9953 14.6958L17.2894 13.74L17.5835 12.7842C17.5079 12.761 17.4691 12.7468 17.4558 12.7415C17.4486 12.7387 17.4629 12.7439 17.4889 12.7576C17.5024 12.7647 17.527 12.7782 17.5575 12.7986C17.5852 12.8171 17.638 12.8544 17.6965 12.9129L16.9894 13.62ZM17.2894 13.74L17.0147 14.7015C17.1924 14.7523 17.3844 14.8099 17.5911 14.8745L17.8894 13.92L18.1877 12.9655C17.9676 12.8968 17.7597 12.8344 17.5641 12.7785L17.2894 13.74ZM17.8894 13.92L17.6468 14.8901C17.8505 14.9411 17.9661 14.9768 18.0183 14.9963L18.3694 14.06L18.7205 13.1237C18.5593 13.0632 18.3549 13.0056 18.1319 12.9499L17.8894 13.92ZM18.3694 14.06L18.0782 15.0167C18.1253 15.031 18.1202 15.038 18.0944 15.0157C18.0817 15.0047 18.0678 14.9897 18.0553 14.9715C18.0429 14.9534 18.0352 14.9371 18.031 14.9257L18.9694 14.58L19.9077 14.2343C19.6852 13.6304 19.2035 13.2686 18.6605 13.1033L18.3694 14.06ZM18.9694 14.58L18.0374 14.9424C18.0442 14.9601 18.0446 14.9685 18.0447 14.972C18.0448 14.9759 18.0449 14.9901 18.0358 15.0189L18.9894 15.32L19.943 15.6211C20.0892 15.1581 20.0801 14.677 19.9014 14.2176L18.9694 14.58ZM18.9894 15.32L18.0407 15.0038C18.0366 15.016 18.0333 15.0206 18.0309 15.0236C18.0279 15.0273 18.0166 15.0407 17.9861 15.0604L18.5294 15.9L19.0726 16.7396C19.4762 16.4784 19.7812 16.1067 19.9381 15.6362L18.9894 15.32ZM18.5294 15.9L17.9994 15.052C18.02 15.0391 18.0433 15.0284 18.0672 15.0211C18.0907 15.0139 18.1091 15.0118 18.1194 15.0112C18.1381 15.0103 18.1175 15.0153 18.0456 14.9913L17.7294 15.94L17.4131 16.8887C17.9135 17.0555 18.5138 17.089 19.0594 16.748L18.5294 15.9ZM24.8767 16.1L24.8093 17.0977L24.8337 17.0994L24.8582 17.0998L24.8767 16.1ZM22.2967 15.5L22.7105 14.5896L22.2967 15.5ZM20.6167 14.24L21.4117 13.6333L20.6167 14.24ZM19.7767 12.84L20.7032 12.4636L19.7767 12.84ZM19.4567 11.58L18.4611 11.6733L18.4614 11.6763L19.4567 11.58ZM19.5167 9.94L18.5315 9.76866L18.527 9.79466L18.5238 9.82085L19.5167 9.94ZM20.1567 8.18L19.2974 7.66852L19.2929 7.67615L19.2885 7.68386L20.1567 8.18ZM21.4167 6.72L22.0488 7.49487L22.051 7.49307L21.4167 6.72ZM23.1967 5.78L23.4841 6.7379L23.4961 6.73415L23.1967 5.78ZM25.3767 5.6L25.4965 4.6072H25.4965L25.3767 5.6ZM27.3567 6.24L26.8361 7.0938L26.8438 7.09847L26.8515 7.10301L27.3567 6.24ZM28.7567 7.48L27.9617 8.08671L27.9687 8.09564L28.7567 7.48ZM29.3767 8.44L30.3312 8.14172L30.3229 8.11505L30.313 8.08888L29.3767 8.44ZM29.5767 9.04L30.543 8.78234L30.5323 8.7425L30.5185 8.70366L29.5767 9.04ZM29.7567 9.72L28.7896 9.9745L28.7958 9.99798L28.8031 10.0211L29.7567 9.72ZM29.8967 10.42L30.8956 10.3713L30.8948 10.3576L29.8967 10.42ZM29.2767 11.62L29.6357 12.5533L29.7083 12.5254L29.7757 12.4866L29.2767 11.62ZM28.7167 11.72V10.72H28.7079L28.6992 10.7202L28.7167 11.72ZM25.2967 11.78L25.3023 12.7801L25.3143 12.7798L25.2967 11.78ZM21.6967 11.86V12.86H22.6967V11.86H21.6967ZM21.6367 11.86V10.86H20.344L20.6688 12.1113L21.6367 11.86ZM24.9967 14.14L24.926 15.1375L24.9357 15.1382L24.9455 15.1387L24.9967 14.14ZM26.2967 14.06L26.5216 15.0344L26.5422 15.0296L26.5626 15.024L26.2967 14.06ZM27.1367 13.78L27.5558 14.688L27.5837 14.6751L27.6108 14.6605L27.1367 13.78ZM27.7767 13.42L27.4482 12.4755L27.3582 12.5068L27.2757 12.5546L27.7767 13.42ZM28.5567 13.44L28.0665 14.3116L28.0981 14.3294L28.1309 14.3448L28.5567 13.44ZM29.0167 13.96L28.068 14.2762L28.0758 14.2995L28.0847 14.3224L29.0167 13.96ZM29.0367 14.7L29.9903 15.0011L29.9903 15.0011L29.0367 14.7ZM28.4967 15.32L28.987 16.1916L28.9929 16.1882L28.4967 15.32ZM27.8367 15.62L27.5039 14.677L27.4777 14.6862L27.4521 14.6969L27.8367 15.62ZM26.6567 15.98L26.8528 16.9606L26.8662 16.9579L26.8795 16.9549L26.6567 15.98ZM21.6767 9.9L20.7213 9.60469L20.2985 10.9726L21.7284 10.8987L21.6767 9.9ZM27.6967 9.78L27.7091 10.7799L29.0358 10.7635L28.6545 9.49265L27.6967 9.78ZM27.1167 8.64L27.9203 8.04477L27.897 8.01334L27.8713 7.98382L27.1167 8.64ZM25.1367 7.58L25.0087 8.57183L25.0189 8.57303L25.1367 7.58ZM22.9567 8.12L23.5429 8.9303L23.554 8.92204L22.9567 8.12ZM24.8767 16.1L24.9441 15.1023C24.0509 15.0419 23.3129 14.8634 22.7105 14.5896L22.2967 15.5L21.8829 16.4104C22.7472 16.8032 23.7292 17.0247 24.8093 17.0977L24.8767 16.1ZM22.2967 15.5L22.7105 14.5896C22.0886 14.3069 21.6753 13.9788 21.4117 13.6333L20.6167 14.24L19.8218 14.8467C20.3315 15.5146 21.0382 16.0264 21.8829 16.4104L22.2967 15.5ZM20.6167 14.24L21.4117 13.6333C21.0599 13.1724 20.8331 12.7833 20.7032 12.4636L19.7767 12.84L18.8503 13.2164C19.067 13.75 19.4002 14.2943 19.8218 14.8467L20.6167 14.24ZM19.7767 12.84L20.7032 12.4636C20.5623 12.1168 20.4818 11.791 20.4521 11.4837L19.4567 11.58L18.4614 11.6763C18.5116 12.1957 18.6445 12.7098 18.8503 13.2164L19.7767 12.84ZM19.4567 11.58L20.4524 11.4867C20.4216 11.1587 20.4339 10.6902 20.5096 10.0591L19.5167 9.94L18.5238 9.82085C18.4396 10.5232 18.4118 11.1479 18.4611 11.6733L19.4567 11.58ZM19.5167 9.94L20.5019 10.1113C20.588 9.61634 20.7604 9.13915 21.025 8.67614L20.1567 8.18L19.2885 7.68386C18.9131 8.34085 18.6588 9.037 18.5315 9.76866L19.5167 9.94ZM20.1567 8.18L21.016 8.69148C21.2894 8.23221 21.6324 7.8346 22.0488 7.49486L21.4167 6.72L20.7846 5.94513C20.1877 6.43207 19.6907 7.00778 19.2974 7.66852L20.1567 8.18ZM21.4167 6.72L22.051 7.49307C22.4652 7.15327 22.9396 6.90115 23.4841 6.73783L23.1967 5.78L22.9094 4.82217C22.1205 5.05885 21.4083 5.4334 20.7824 5.94693L21.4167 6.72ZM23.1967 5.78L23.4961 6.73415C24.0285 6.56711 24.6112 6.51487 25.2569 6.59279L25.3767 5.6L25.4965 4.6072C24.5956 4.49847 23.7249 4.56623 22.8974 4.82585L23.1967 5.78ZM25.3767 5.6L25.2569 6.59279C25.9184 6.67263 26.4351 6.84925 26.8361 7.0938L27.3567 6.24L27.8773 5.3862C27.1851 4.96408 26.3818 4.71404 25.4965 4.6072L25.3767 5.6ZM27.3567 6.24L26.8515 7.10301C27.2851 7.35683 27.6536 7.68284 27.9618 8.08667L28.7567 7.48L29.5517 6.87333C29.0865 6.26382 28.5216 5.76317 27.8619 5.37699L27.3567 6.24ZM28.7567 7.48L27.9687 8.09564C28.1239 8.29433 28.2397 8.45566 28.3217 8.58252C28.3623 8.64549 28.3917 8.69543 28.4121 8.73344C28.4222 8.75218 28.4293 8.76655 28.4341 8.77685C28.439 8.78727 28.4407 8.79186 28.4404 8.79112L29.3767 8.44L30.313 8.08888C30.1738 7.71756 29.8783 7.29129 29.5447 6.86436L28.7567 7.48ZM29.3767 8.44L28.4222 8.73828C28.4924 8.9628 28.5633 9.1756 28.635 9.37634L29.5767 9.04L30.5185 8.70366C30.4568 8.53106 30.3944 8.34386 30.3312 8.14172L29.3767 8.44ZM29.5767 9.04L28.6105 9.29766C28.6635 9.49637 28.7232 9.72196 28.7896 9.9745L29.7567 9.72L30.7238 9.4655C30.6569 9.21138 30.5966 8.98363 30.543 8.78234L29.5767 9.04ZM29.7567 9.72L28.8031 10.0211C28.8643 10.2149 28.8915 10.3669 28.8987 10.4824L29.8967 10.42L30.8948 10.3576C30.8753 10.0464 30.8091 9.7318 30.7103 9.41887L29.7567 9.72ZM29.8967 10.42L28.8979 10.4687C28.9045 10.6039 28.88 10.6581 28.8733 10.671C28.8689 10.6795 28.8534 10.7098 28.7778 10.7534L29.2767 11.62L29.7757 12.4866C30.14 12.2768 30.4479 11.9805 30.6501 11.589C30.8502 11.2019 30.9156 10.7828 30.8955 10.3713L29.8967 10.42ZM29.2767 11.62L28.9177 10.6867C28.8675 10.706 28.8035 10.72 28.7167 10.72V11.72V12.72C29.03 12.72 29.3393 12.6674 29.6357 12.5533L29.2767 11.62ZM28.7167 11.72L28.6992 10.7202L25.2792 10.7802L25.2967 11.78L25.3143 12.7798L28.7343 12.7198L28.7167 11.72ZM25.2967 11.78L25.2912 10.78C24.0899 10.7867 23.1831 10.7967 22.5745 10.8102C22.272 10.817 22.0335 10.8247 21.8662 10.834C21.7862 10.8385 21.7031 10.8443 21.6316 10.853C21.6023 10.8566 21.5366 10.865 21.4632 10.8838C21.4345 10.8911 21.3426 10.9149 21.2373 10.9699C21.186 10.9967 21.0783 11.0578 20.9716 11.1704C20.8601 11.2882 20.6967 11.5225 20.6967 11.86H21.6967H22.6967C22.6967 12.1962 22.534 12.4293 22.4235 12.5459C22.3181 12.6572 22.2121 12.7171 22.1631 12.7427C22.0626 12.7952 21.9777 12.8166 21.9584 12.8215C21.9261 12.8298 21.902 12.834 21.8928 12.8355C21.8818 12.8373 21.875 12.8382 21.8743 12.8382C21.8733 12.8384 21.881 12.8374 21.9008 12.8359C21.9197 12.8344 21.9448 12.8328 21.9772 12.831C22.11 12.8236 22.3214 12.8164 22.6189 12.8098C23.2103 12.7966 24.1035 12.7866 25.3023 12.78L25.2967 11.78ZM21.6967 11.86V10.86H21.6367V11.86V12.86H21.6967V11.86ZM21.6367 11.86L20.6688 12.1113C20.9059 13.0247 21.4118 13.7727 22.1852 14.2975C22.9372 14.8077 23.8759 15.063 24.926 15.1375L24.9967 14.14L25.0675 13.1425C24.2375 13.0836 23.6762 12.8923 23.3082 12.6425C22.9616 12.4073 22.7275 12.082 22.6046 11.6087L21.6367 11.86ZM24.9967 14.14L24.9455 15.1387C25.5195 15.1681 26.0532 15.1425 26.5216 15.0344L26.2967 14.06L26.0719 13.0856C25.8469 13.1375 25.5139 13.1652 25.0479 13.1413L24.9967 14.14ZM26.2967 14.06L26.5626 15.024C26.9577 14.915 27.304 14.8042 27.5558 14.688L27.1367 13.78L26.7177 12.872C26.6228 12.9158 26.4091 12.9917 26.0308 13.096L26.2967 14.06ZM27.1367 13.78L27.6108 14.6605C27.7964 14.5605 28.0193 14.435 28.2778 14.2854L27.7767 13.42L27.2757 12.5546C27.0274 12.6983 26.8237 12.8128 26.6626 12.8995L27.1367 13.78ZM27.7767 13.42L28.1052 14.3645C28.172 14.3413 28.1923 14.3451 28.1761 14.3447C28.1672 14.3444 28.1508 14.343 28.1295 14.3373C28.1078 14.3315 28.0862 14.3227 28.0665 14.3116L28.5567 13.44L29.047 12.5684C28.5089 12.2658 27.9323 12.3071 27.4482 12.4755L27.7767 13.42ZM28.5567 13.44L28.1309 14.3448C28.1314 14.3451 28.1134 14.336 28.0927 14.3126C28.0722 14.2894 28.0666 14.272 28.068 14.2762L29.0167 13.96L29.9654 13.6438C29.7999 13.1472 29.4594 12.7596 28.9825 12.5352L28.5567 13.44ZM29.0167 13.96L28.0847 14.3224C28.0916 14.3401 28.092 14.3485 28.0921 14.352C28.0922 14.3559 28.0922 14.3701 28.0831 14.3989L29.0367 14.7L29.9903 15.0011C30.1365 14.5381 30.1274 14.057 29.9487 13.5976L29.0167 13.96ZM29.0367 14.7L28.0831 14.3989C28.084 14.3962 28.0855 14.3926 28.0874 14.3892C28.0893 14.3858 28.09 14.3855 28.0876 14.3882C28.0829 14.3937 28.0601 14.4177 28.0006 14.4518L28.4967 15.32L28.9929 16.1882C29.442 15.9316 29.8191 15.5434 29.9903 15.0011L29.0367 14.7ZM28.4967 15.32L28.0065 14.4484C27.8425 14.5406 27.6751 14.6166 27.5039 14.677L27.8367 15.62L28.1695 16.563C28.4516 16.4634 28.7242 16.3394 28.987 16.1916L28.4967 15.32ZM27.8367 15.62L27.4521 14.6969C27.2 14.802 26.8645 14.9067 26.4339 15.0051L26.6567 15.98L26.8795 16.9549C27.3823 16.8399 27.8335 16.7047 28.2213 16.5431L27.8367 15.62ZM26.6567 15.98L26.4606 14.9994C26.0907 15.0734 25.5759 15.1128 24.8952 15.1002L24.8767 16.1L24.8582 17.0998C25.6175 17.1139 26.2894 17.0733 26.8528 16.9606L26.6567 15.98ZM21.6767 9.9L21.7284 10.8987C22.4775 10.8599 24.4611 10.82 27.7091 10.7799L27.6967 9.78L27.6844 8.78008C24.4523 8.81998 22.4226 8.86008 21.6251 8.90133L21.6767 9.9ZM27.6967 9.78L28.6545 9.49265C28.499 8.97406 28.2508 8.49091 27.9203 8.04477L27.1167 8.64L26.3132 9.23523C26.516 9.50909 26.6545 9.78594 26.7389 10.0673L27.6967 9.78ZM27.1167 8.64L27.8713 7.98382C27.1796 7.18837 26.2949 6.7104 25.2545 6.58696L25.1367 7.58L25.0189 8.57303C25.5518 8.63626 25.9871 8.86496 26.3621 9.29618L27.1167 8.64ZM25.1367 7.58L25.2647 6.58822C24.1998 6.45081 23.2089 6.68536 22.3595 7.31796L22.9567 8.12L23.554 8.92204C23.9578 8.62131 24.4204 8.49586 25.0087 8.57178L25.1367 7.58ZM22.9567 8.12L22.3706 7.30978C21.5697 7.88913 21.0125 8.66252 20.7213 9.60469L21.6767 9.9L22.6321 10.1953C22.7942 9.67081 23.0904 9.25754 23.5428 8.93022L22.9567 8.12ZM33.7922 19.02L32.7924 18.9985L32.7922 19.0092V19.02H33.7922ZM32.7922 19.98L32.8421 18.9812L32.8172 18.98H32.7922V19.98ZM32.0922 19.72L32.7471 18.9643L32.0922 19.72ZM31.7922 18.98L30.7924 18.9597L30.7922 18.9698V18.98H31.7922ZM32.1522 5.7L31.4451 4.99289V4.99289L32.1522 5.7ZM33.4122 5.68L32.6529 6.33079L32.6779 6.35995L32.7051 6.38711L33.4122 5.68ZM33.7922 6.34L32.8344 6.62735L33.2159 7.89926L34.3329 7.18118L33.7922 6.34ZM34.0722 6.16L33.5577 5.30251L33.5444 5.31046L33.5314 5.31882L34.0722 6.16ZM36.4522 5.38L36.4014 4.38129L36.4522 5.38ZM38.5722 5.9L38.0471 6.75104L38.0625 6.76053L38.0782 6.76946L38.5722 5.9ZM40.0522 7.3L39.2201 7.8547L39.2244 7.86103L39.2287 7.8673L40.0522 7.3ZM40.9522 9.26L39.9854 9.51539L39.9884 9.52676L39.9916 9.53806L40.9522 9.26ZM41.1922 10.88L40.1925 10.9032L41.1922 10.88ZM40.9722 12.48L41.9234 12.7885V12.7885L40.9722 12.48ZM40.2722 13.94L41.1149 14.4784L40.2722 13.94ZM38.9722 15.2L38.4314 14.3588L38.4222 14.3648L38.9722 15.2ZM37.0722 15.94L37.252 16.9237L37.2543 16.9233L37.0722 15.94ZM33.8522 15.3L34.4368 14.4887L32.873 13.3618L32.8522 15.2892L33.8522 15.3ZM36.7122 13.98L36.8911 14.9639L36.8933 14.9635L36.7122 13.98ZM38.8322 12.54L37.9469 12.0749L37.944 12.0806L38.8322 12.54ZM39.0322 9.78L39.9986 9.5231L39.9978 9.52003L39.0322 9.78ZM37.5722 7.64L37.0673 8.50319L37.0762 8.50837L37.0851 8.51336L37.5722 7.64ZM35.1122 7.88L35.6227 8.73985L35.6292 8.73601L35.6356 8.73208L35.1122 7.88ZM34.3722 8.38L35.0793 9.08711L35.1114 9.05503L35.1404 9.02018L34.3722 8.38ZM34.2722 8.48L33.5651 7.77289L33.4951 7.84291L33.4401 7.9253L34.2722 8.48ZM34.1322 8.72L34.9429 9.30549L34.9776 9.25745L35.0063 9.20564L34.1322 8.72ZM33.8722 9.08L33.0615 8.49451L32.8722 8.75665V9.08H33.8722ZM33.8722 12.36H32.8722V12.7742L33.1651 13.0671L33.8722 12.36ZM34.0322 12.58L33.1378 13.0272L33.1608 13.0734L33.1885 13.1169L34.0322 12.58ZM35.2122 13.8L35.693 12.9232L35.2122 13.8ZM33.7922 19.02H32.7922C32.7922 19.0892 32.7815 19.1013 32.7904 19.0793C32.7952 19.0676 32.804 19.05 32.8187 19.0301C32.8335 19.01 32.8505 18.9927 32.8675 18.9791L33.4922 19.76L34.1169 20.5409C34.6219 20.1368 34.7922 19.5581 34.7922 19.02H33.7922ZM33.4922 19.76L32.8675 18.9791C32.8627 18.983 32.8608 18.9838 32.8618 18.9833C32.863 18.9827 32.865 18.9817 32.8674 18.981C32.8696 18.9803 32.8698 18.9805 32.8668 18.9809C32.8636 18.9813 32.8557 18.9819 32.8421 18.9812L32.7922 19.98L32.7423 20.9788C33.2415 21.0037 33.7175 20.8604 34.1169 20.5409L33.4922 19.76ZM32.7922 19.98V18.98C32.7799 18.98 32.7725 18.979 32.7692 18.9784C32.7675 18.9781 32.7665 18.9779 32.766 18.9778C32.7657 18.9777 32.7656 18.9776 32.7655 18.9776C32.7654 18.9776 32.7654 18.9776 32.7654 18.9776C32.7654 18.9776 32.7654 18.9776 32.7653 18.9776C32.7653 18.9775 32.7652 18.9775 32.7651 18.9774C32.7648 18.9773 32.7641 18.977 32.7629 18.9763C32.7607 18.9749 32.7554 18.9715 32.7471 18.9643L32.0922 19.72L31.4373 20.4757C31.8206 20.8079 32.2869 20.98 32.7922 20.98V19.98ZM32.0922 19.72L32.7471 18.9643C32.7552 18.9713 32.7651 18.9817 32.7747 18.995C32.7842 19.0083 32.7904 19.0205 32.7939 19.0293C32.801 19.0468 32.7922 19.0367 32.7922 18.98H31.7922H30.7922C30.7922 19.5237 30.9725 20.0729 31.4373 20.4757L32.0922 19.72ZM31.7922 18.98L32.792 19.0003C32.8455 16.3628 32.8722 12.1608 32.8722 6.4H31.8722H30.8722C30.8722 12.1592 30.8455 16.3439 30.7924 18.9597L31.7922 18.98ZM31.8722 6.4H32.8722C32.8722 6.38565 32.8734 6.37865 32.8736 6.37764C32.8737 6.37683 32.8731 6.38025 32.8707 6.38639C32.8682 6.39261 32.865 6.3986 32.8617 6.40345C32.8586 6.40819 32.8571 6.40934 32.8593 6.40711L32.1522 5.7L31.4451 4.99289C31.0586 5.37935 30.8722 5.87264 30.8722 6.4H31.8722ZM32.1522 5.7L32.8593 6.40711C32.8679 6.39849 32.8726 6.39524 32.873 6.39498C32.8733 6.39482 32.871 6.39632 32.8668 6.39808C32.8626 6.39983 32.8594 6.40059 32.8585 6.40076C32.8578 6.40089 32.8619 6.4 32.8722 6.4V5.4V4.4C32.324 4.4 31.8305 4.6075 31.4451 4.99289L32.1522 5.7ZM32.8722 5.4V6.4C32.8097 6.4 32.7471 6.38378 32.6969 6.35775C32.6515 6.33424 32.6392 6.31473 32.6529 6.33079L33.4122 5.68L34.1714 5.02921C33.8689 4.67625 33.4299 4.4 32.8722 4.4V5.4ZM33.4122 5.68L32.7051 6.38711C32.7463 6.42834 32.7954 6.49742 32.8344 6.62735L33.7922 6.34L34.75 6.05265C34.629 5.64925 34.4247 5.27833 34.1193 4.97289L33.4122 5.68ZM33.7922 6.34L34.3329 7.18118L34.6129 7.00118L34.0722 6.16L33.5314 5.31882L33.2514 5.49882L33.7922 6.34ZM34.0722 6.16L34.5867 7.01749C35.2719 6.60634 35.9078 6.40897 36.503 6.37871L36.4522 5.38L36.4014 4.38129C35.4232 4.43103 34.4724 4.75366 33.5577 5.30251L34.0722 6.16ZM36.4522 5.38L36.503 6.37871C37.102 6.34825 37.6052 6.4784 38.0471 6.75104L38.5722 5.9L39.0973 5.04896C38.2858 4.54827 37.3757 4.33175 36.4014 4.38129L36.4522 5.38ZM38.5722 5.9L38.0782 6.76946C38.5199 7.02044 38.9006 7.37542 39.2201 7.8547L40.0522 7.3L40.8842 6.7453C40.4038 6.02458 39.7978 5.44623 39.0662 5.03054L38.5722 5.9ZM40.0522 7.3L39.2287 7.8673C39.5764 8.37206 39.828 8.91982 39.9854 9.51539L40.9522 9.26L41.919 9.00461C41.703 8.18685 41.3546 7.42793 40.8757 6.73269L40.0522 7.3ZM40.9522 9.26L39.9916 9.53806C40.1123 9.95496 40.181 10.4087 40.1925 10.9032L41.1922 10.88L42.1919 10.8568C42.1768 10.2046 42.0854 9.57837 41.9128 8.98194L40.9522 9.26ZM41.1922 10.88L40.1925 10.9032C40.2034 11.3759 40.1428 11.7959 40.021 12.1715L40.9722 12.48L41.9234 12.7885C42.1216 12.1774 42.2076 11.5308 42.1919 10.8568L41.1922 10.88ZM40.9722 12.48L40.021 12.1715C39.8896 12.5764 39.6948 12.9864 39.4295 13.4016L40.2722 13.94L41.1149 14.4784C41.4629 13.9336 41.7347 13.3703 41.9234 12.7885L40.9722 12.48ZM40.2722 13.94L39.4295 13.4016C39.2125 13.7413 38.8904 14.0637 38.4314 14.3588L38.9722 15.2L39.5129 16.0412C40.1739 15.6163 40.7186 15.0987 41.1149 14.4784L40.2722 13.94ZM38.9722 15.2L38.4222 14.3648C37.9996 14.6432 37.4944 14.8448 36.8901 14.9567L37.0722 15.94L37.2543 16.9233C38.09 16.7685 38.8515 16.4768 39.5222 16.0352L38.9722 15.2ZM37.0722 15.94L36.8924 14.9563C35.8824 15.1409 35.0935 14.9619 34.4368 14.4887L33.8522 15.3L33.2676 16.1113C34.4242 16.9447 35.7819 17.1924 37.252 16.9237L37.0722 15.94ZM33.8522 15.3L32.8522 15.2892C32.839 16.5257 32.819 17.7621 32.7924 18.9985L33.7922 19.02L34.792 19.0415C34.8187 17.7979 34.8388 16.5543 34.8521 15.3108L33.8522 15.3ZM36.7122 13.98L36.8933 14.9635C38.1481 14.7323 39.1515 14.0993 39.7204 12.9994L38.8322 12.54L37.944 12.0806C37.7129 12.5274 37.3029 12.8544 36.531 12.9965L36.7122 13.98ZM38.8322 12.54L39.7174 13.0051C40.2724 11.9488 40.3277 10.7612 39.9986 9.5231L39.0322 9.78L38.0658 10.0369C38.2966 10.9055 38.2186 11.5578 37.9469 12.0749L38.8322 12.54ZM39.0322 9.78L39.9978 9.52003C39.6734 8.31522 39.0629 7.32635 38.0593 6.76664L37.5722 7.64L37.0851 8.51336C37.4682 8.72698 37.8309 9.16478 38.0666 10.04L39.0322 9.78ZM37.5722 7.64L38.0771 6.77681C36.9443 6.11427 35.7139 6.33675 34.5888 7.02792L35.1122 7.88L35.6356 8.73208C36.3771 8.27659 36.7867 8.33906 37.0673 8.50319L37.5722 7.64ZM35.1122 7.88L34.6017 7.02014C34.381 7.15116 34.1939 7.26741 34.0473 7.36641C33.9404 7.43866 33.7422 7.57396 33.604 7.73982L34.3722 8.38L35.1404 9.02018C35.0886 9.08238 35.05 9.10874 35.0745 9.08949C35.0878 9.07899 35.1167 9.05759 35.167 9.02359C35.2672 8.95593 35.4167 8.86218 35.6227 8.73985L35.1122 7.88ZM34.3722 8.38L33.6651 7.67289C33.6358 7.70221 33.5811 7.75691 33.5651 7.77289L34.2722 8.48L34.9793 9.18711C34.9882 9.17821 34.9805 9.18589 34.9896 9.17679C34.992 9.17441 34.9899 9.17651 34.9923 9.17412C34.9929 9.17352 34.992 9.17438 34.9926 9.17378C34.9929 9.17348 34.9927 9.17374 34.993 9.17344C34.9936 9.17284 34.993 9.17337 34.9936 9.17277C34.9948 9.17155 34.9938 9.17262 34.995 9.1714C34.995 9.1714 34.9977 9.16866 34.9978 9.16865C35.0002 9.16616 34.998 9.16836 35.0005 9.16586C35.0206 9.14584 35.0034 9.16295 35.0243 9.14211C35.0745 9.09188 35.0257 9.14067 35.0793 9.08711L34.3722 8.38ZM34.2722 8.48L33.4401 7.9253C33.3876 8.00416 33.3221 8.11896 33.258 8.23436L34.1322 8.72L35.0063 9.20564C35.0377 9.14915 35.0624 9.10571 35.081 9.07387C35.1016 9.03846 35.1079 9.02921 35.1042 9.0347L34.2722 8.48ZM34.1322 8.72L33.3215 8.13451L33.0615 8.49451L33.8722 9.08L34.6829 9.66549L34.9429 9.30549L34.1322 8.72ZM33.8722 9.08H32.8722V12.36H33.8722H34.8722V9.08H33.8722ZM33.8722 12.36L33.1651 13.0671C33.1599 13.0619 33.1484 13.0484 33.1378 13.0272L34.0322 12.58L34.9266 12.1328C34.836 11.9516 34.7178 11.7914 34.5793 11.6529L33.8722 12.36ZM34.0322 12.58L33.1885 13.1169C33.6124 13.783 34.1167 14.3397 34.7314 14.6768L35.2122 13.8L35.693 12.9232C35.481 12.8069 35.1986 12.5504 34.8759 12.0431L34.0322 12.58ZM35.2122 13.8L34.7314 14.6768C35.3942 15.0403 36.1398 15.1005 36.8911 14.9639L36.7122 13.98L36.5333 12.9961C36.1113 13.0729 35.8568 13.013 35.693 12.9232L35.2122 13.8ZM52.8244 15.98L52.9298 14.9856L52.9155 14.9841L52.9011 14.9829L52.8244 15.98ZM50.5844 15.24L51.1472 14.4134L51.139 14.4078L51.1306 14.4024L50.5844 15.24ZM49.2444 13.84L48.3499 14.2872L48.3544 14.2961L48.359 14.3048L49.2444 13.84ZM48.7044 12.4L47.7598 12.7285L47.7633 12.7382L48.7044 12.4ZM48.7444 11.6L47.8824 11.093L48.7444 11.6ZM49.3044 11.12L49.6668 12.052L49.6797 12.047L49.6924 12.0416L49.3044 11.12ZM50.0444 11.1L49.6819 12.032L49.7122 12.0438L49.7432 12.0536L50.0444 11.1ZM50.5844 11.72L49.632 12.0248L49.637 12.0406L49.6426 12.0563L50.5844 11.72ZM51.0044 12.86L51.8882 12.3921L51.8178 12.2592L51.7115 12.1529L51.0044 12.86ZM51.6644 13.52L51.1097 14.3521L51.1205 14.3593L51.1316 14.3662L51.6644 13.52ZM53.0244 13.96L52.9033 14.9526L52.9153 14.9541L52.9273 14.9553L53.0244 13.96ZM54.6844 13.78L54.3887 12.8247L54.6844 13.78ZM56.0444 13.04L56.7227 13.7748L56.7301 13.7679L56.7375 13.7608L56.0444 13.04ZM56.6644 11.9L57.6524 12.0544L57.6536 12.0465L56.6644 11.9ZM55.7844 10.16L56.3202 9.31567L56.3096 9.30895L56.2989 9.30251L55.7844 10.16ZM54.8644 9.76L54.5132 10.6963L54.5415 10.7069L54.5703 10.7158L54.8644 9.76ZM54.5444 9.66L54.7869 8.68986L54.7638 8.68409L54.7405 8.67942L54.5444 9.66ZM54.4444 9.64L54.6405 8.65942L54.5434 8.64H54.4444V9.64ZM54.3844 9.62L55.0915 8.91289L54.7986 8.62H54.3844V9.62ZM54.3044 9.6L54.7516 8.70557L54.688 8.67379L54.6206 8.65132L54.3044 9.6ZM54.1844 9.54L54.7391 8.70795L54.6524 8.65019L54.5558 8.61152L54.1844 9.54ZM53.9844 9.4L54.6915 8.69289L54.6663 8.66767L54.6393 8.64431L53.9844 9.4ZM53.6444 8.72L52.6481 8.80663L52.6489 8.81481L53.6444 8.72ZM53.9244 7.88L54.6893 8.52414L54.6926 8.52018L53.9244 7.88ZM54.1644 7.66L53.6194 6.82156L53.601 6.83351L53.5831 6.84627L54.1644 7.66ZM54.5644 7.4L55.1094 8.23844L55.1177 8.23304L55.1259 8.22748L54.5644 7.4ZM55.4044 6.76L54.7433 6.00964L54.7335 6.0183L54.7239 6.02721L55.4044 6.76ZM56.0044 5.28L55.0486 5.57409L55.0508 5.58131L55.0532 5.5885L56.0044 5.28ZM54.2244 3.8L54.0746 4.78872L54.0848 4.79026L54.095 4.7916L54.2244 3.8ZM52.8644 3.9L52.5896 2.93845L52.5822 2.94063L52.8644 3.9ZM51.6644 4.54L51.0184 3.77661L50.9867 3.80348L50.9573 3.83289L51.6644 4.54ZM51.4044 4.78L50.7797 3.99913L50.7719 4.00537L50.7642 4.01178L51.4044 4.78ZM51.2044 5.04L52.0456 5.58076L52.0747 5.53542L52.0988 5.48721L51.2044 5.04ZM50.9444 5.56L49.9957 5.24377L49.9869 5.2701L49.9796 5.29688L50.9444 5.56ZM50.6844 6.14L49.8102 5.65436L49.7867 5.69677L49.7673 5.74127L50.6844 6.14ZM50.1044 6.7L49.8499 5.73283L49.8367 5.73648L50.1044 6.7ZM49.3644 6.64L48.9172 7.53443L48.9463 7.54899L48.9763 7.56164L49.3644 6.64ZM48.8244 6.1L47.9106 6.50614L47.9198 6.5269L47.9299 6.54721L48.8244 6.1ZM48.8844 5.28L49.7865 5.71145L49.8007 5.68186L49.8129 5.65139L48.8844 5.28ZM49.0644 4.84L48.1506 4.43386L48.145 4.44648L48.1397 4.45925L49.0644 4.84ZM49.3044 4.34L50.1726 4.83614L50.1931 4.8003L50.2106 4.76288L49.3044 4.34ZM50.3844 2.98L51.004 3.76488L51.0252 3.74818L51.0454 3.73036L50.3844 2.98ZM52.3244 1.92L52.045 0.959803L52.045 0.959804L52.3244 1.92ZM54.5044 1.76L54.3578 2.74925L54.3677 2.75062L54.5044 1.76ZM56.5844 2.66L55.9576 3.43921L55.9669 3.44666L55.9763 3.45388L56.5844 2.66ZM57.9244 4.62L58.8794 4.32329L58.8761 4.313L57.9244 4.62ZM56.7244 8.32L56.059 7.57349L56.0376 7.59259L56.0173 7.61289L56.7244 8.32ZM56.7044 8.34L55.9973 7.63289L55.1347 8.49542L56.1497 9.17205L56.7044 8.34ZM56.8244 8.42L56.2697 9.25205L56.2803 9.25912L56.2911 9.26593L56.8244 8.42ZM58.2844 9.94L57.4173 10.4381L57.4212 10.445L57.4253 10.4518L58.2844 9.94ZM58.6244 12.22L57.6376 12.058L57.6362 12.0662L57.635 12.0745L58.6244 12.22ZM57.4644 14.48L56.7804 13.7504L56.7728 13.7577L57.4644 14.48ZM55.2644 15.74L54.9897 14.7785L54.9662 14.7852L54.9431 14.793L55.2644 15.74ZM52.8244 15.98L52.9011 14.9829C52.1827 14.9277 51.6094 14.7281 51.1472 14.4134L50.5844 15.24L50.0216 16.0666C50.8127 16.6052 51.7328 16.899 52.7477 16.9771L52.8244 15.98ZM50.5844 15.24L51.1306 14.4024C50.6297 14.0757 50.315 13.7279 50.1298 13.3752L49.2444 13.84L48.359 14.3048C48.7338 15.0187 49.3124 15.6043 50.0381 16.0776L50.5844 15.24ZM49.2444 13.84L50.1388 13.3928C50.1412 13.3976 50.1035 13.3097 50.0057 13.0489C49.9181 12.8152 49.7982 12.4869 49.6455 12.0618L48.7044 12.4L47.7633 12.7382C47.9172 13.1665 48.0407 13.5048 48.133 13.7511C48.2152 13.9703 48.2942 14.1757 48.3499 14.2872L49.2444 13.84ZM48.7044 12.4L49.6489 12.0715C49.6289 12.0141 49.6341 12.0003 49.6331 12.0199C49.6326 12.0299 49.6306 12.0449 49.6254 12.0625C49.6202 12.0802 49.6131 12.0954 49.6063 12.107L48.7444 11.6L47.8824 11.093C47.5661 11.6308 47.5815 12.2156 47.7599 12.7285L48.7044 12.4ZM48.7444 11.6L49.6063 12.107C49.6209 12.0822 49.6313 12.0726 49.6352 12.0693C49.6388 12.0661 49.647 12.0597 49.6668 12.052L49.3044 11.12L48.9419 10.188C48.4876 10.3647 48.1271 10.677 47.8824 11.093L48.7444 11.6ZM49.3044 11.12L49.6924 12.0416C49.7056 12.0361 49.7128 12.0343 49.7142 12.034C49.7154 12.0337 49.7125 12.0345 49.7064 12.0346C49.7002 12.0348 49.6936 12.0343 49.6878 12.0333C49.6821 12.0322 49.6799 12.0312 49.6819 12.032L50.0444 11.1L50.4068 10.168C49.9074 9.97377 49.3912 9.99842 48.9163 10.1984L49.3044 11.12ZM50.0444 11.1L49.7432 12.0536C49.7199 12.0462 49.694 12.0344 49.6689 12.0178C49.6439 12.0012 49.6262 11.9843 49.6153 11.9718C49.5948 11.9483 49.6091 11.9532 49.632 12.0248L50.5844 11.72L51.5368 11.4152C51.3658 10.8808 51.0027 10.3539 50.3455 10.1464L50.0444 11.1ZM50.5844 11.72L49.6426 12.0563C49.7762 12.4304 49.8793 12.7159 49.951 12.9107C49.9866 13.0073 50.0163 13.0864 50.0389 13.1445C50.0498 13.1723 50.0621 13.2033 50.0743 13.2317C50.0798 13.2447 50.0902 13.2684 50.1035 13.2954C50.1098 13.3082 50.1224 13.3333 50.1401 13.3634C50.1443 13.3707 50.1991 13.4689 50.2973 13.5671L51.0044 12.86L51.7115 12.1529C51.77 12.2114 51.808 12.2643 51.8239 12.287C51.8431 12.3147 51.8572 12.3379 51.8655 12.352C51.8818 12.3798 51.8928 12.402 51.8973 12.411C51.9028 12.4221 51.9067 12.4306 51.9086 12.4349C51.9107 12.4395 51.9121 12.4427 51.9126 12.4439C51.9135 12.4461 51.9106 12.4394 51.9023 12.418C51.8866 12.3778 51.8621 12.3127 51.8277 12.2193C51.7595 12.0341 51.6592 11.7562 51.5261 11.3837L50.5844 11.72ZM51.0044 12.86L50.1206 13.3279C50.3476 13.7567 50.715 14.089 51.1097 14.3521L51.6644 13.52L52.2191 12.6879C51.9737 12.5244 51.9012 12.4166 51.8882 12.3921L51.0044 12.86ZM51.6644 13.52L51.1316 14.3662C51.6474 14.691 52.2518 14.8732 52.9033 14.9526L53.0244 13.96L53.1454 12.9674C52.7037 12.9135 52.4013 12.8023 52.1972 12.6738L51.6644 13.52ZM53.0244 13.96L52.9273 14.9553C53.615 15.0224 54.3017 14.9452 54.9801 14.7353L54.6844 13.78L54.3887 12.8247C53.947 12.9614 53.5271 13.0043 53.1215 12.9647L53.0244 13.96ZM54.6844 13.78L54.9801 14.7353C55.6487 14.5283 56.2432 14.2174 56.7227 13.7748L56.0444 13.04L55.3661 12.3052C55.1522 12.5026 54.84 12.685 54.3887 12.8247L54.6844 13.78ZM56.0444 13.04L56.7375 13.7608C57.2229 13.2941 57.5481 12.7215 57.6524 12.0544L56.6644 11.9L55.6764 11.7456C55.6473 11.9318 55.5592 12.1192 55.3513 12.3192L56.0444 13.04ZM56.6644 11.9L57.6536 12.0465C57.7334 11.5076 57.6677 10.97 57.4167 10.4737C57.17 9.98576 56.7794 9.60708 56.3202 9.31567L55.7844 10.16L55.2486 11.0043C55.4827 11.1529 55.5854 11.2842 55.632 11.3763C55.6744 11.46 55.702 11.5724 55.6752 11.7535L56.6644 11.9ZM55.7844 10.16L56.2989 9.30251C55.9526 9.09477 55.5699 8.9308 55.1585 8.80422L54.8644 9.76L54.5703 10.7158C54.8522 10.8025 55.0828 10.9052 55.2699 11.0175L55.7844 10.16ZM54.8644 9.76L55.2155 8.82367C55.0746 8.77083 54.9317 8.72605 54.7869 8.68986L54.5444 9.66L54.3018 10.6301C54.3704 10.6473 54.4408 10.6692 54.5132 10.6963L54.8644 9.76ZM54.5444 9.66L54.7405 8.67942L54.6405 8.65942L54.4444 9.64L54.2483 10.6206L54.3483 10.6406L54.5444 9.66ZM54.4444 9.64V8.64C54.5718 8.64 54.8511 8.67254 55.0915 8.91289L54.3844 9.62L53.6773 10.3271C53.9443 10.5941 54.2636 10.64 54.4444 10.64V9.64ZM54.3844 9.62V8.62C54.5305 8.62 54.656 8.65776 54.7516 8.70557L54.3044 9.6L53.8572 10.4944C54.0061 10.5689 54.1849 10.62 54.3844 10.62V9.62ZM54.3044 9.6L54.6206 8.65132C54.6758 8.6697 54.7153 8.69207 54.7391 8.70795L54.1844 9.54L53.6297 10.3721C53.7335 10.4413 53.853 10.5036 53.9882 10.5487L54.3044 9.6ZM54.1844 9.54L54.5558 8.61152C54.6476 8.64824 54.6909 8.69234 54.6915 8.69289L53.9844 9.4L53.2773 10.1071C53.4112 10.241 53.5879 10.3784 53.813 10.4685L54.1844 9.54ZM53.9844 9.4L54.6393 8.64431C54.6357 8.64122 54.6359 8.6408 54.6379 8.64334C54.6399 8.64595 54.6421 8.64937 54.6438 8.65279C54.6455 8.65613 54.6454 8.65691 54.6445 8.65366C54.6436 8.65024 54.6414 8.64122 54.6399 8.62519L53.6444 8.72L52.6489 8.81481C52.6982 9.333 52.9222 9.80273 53.3294 10.1557L53.9844 9.4ZM53.6444 8.72L54.6406 8.63337C54.6386 8.61019 54.6415 8.60103 54.6431 8.59623C54.6452 8.58994 54.6541 8.56586 54.6893 8.52414L53.9244 7.88L53.1595 7.23586C52.7894 7.67533 52.5966 8.2139 52.6481 8.80663L53.6444 8.72ZM53.9244 7.88L54.6926 8.52018C54.6994 8.51203 54.7148 8.49574 54.7456 8.47373L54.1644 7.66L53.5831 6.84627C53.4273 6.9576 53.2827 7.08797 53.1562 7.23982L53.9244 7.88ZM54.1644 7.66L54.7094 8.49844L55.1094 8.23844L54.5644 7.4L54.0194 6.56156L53.6194 6.82156L54.1644 7.66ZM54.5644 7.4L55.1259 8.22748C55.5145 7.96379 55.8431 7.71727 56.0848 7.49279L55.4044 6.76L54.7239 6.02721C54.5923 6.14939 54.3609 6.32955 54.0029 6.57252L54.5644 7.4ZM55.4044 6.76L56.0654 7.51036C56.7715 6.88837 57.2912 6.00623 56.9556 4.9715L56.0044 5.28L55.0532 5.5885C55.0561 5.59762 55.0571 5.60311 55.0574 5.60548C55.0577 5.60777 55.0577 5.60886 55.0577 5.60949C55.0577 5.61015 55.0575 5.61256 55.0565 5.61737C55.0554 5.6223 55.053 5.63116 55.0476 5.64429C55.0245 5.70125 54.9509 5.82683 54.7433 6.00964L55.4044 6.76ZM56.0044 5.28L56.9602 4.98591C56.7799 4.40006 56.4693 3.88238 55.9987 3.49107C55.5294 3.10089 54.963 2.88788 54.3537 2.8084L54.2244 3.8L54.095 4.7916C54.4057 4.83212 54.596 4.92578 54.72 5.02893C54.8428 5.13096 54.9622 5.29327 55.0486 5.57409L56.0044 5.28ZM54.2244 3.8L54.3742 2.81128C53.7799 2.72124 53.1816 2.76935 52.5897 2.93848L52.8644 3.9L53.1391 4.86152C53.4805 4.76398 53.7888 4.74542 54.0746 4.78872L54.2244 3.8ZM52.8644 3.9L52.5822 2.94063C52.0008 3.11163 51.4757 3.38968 51.0184 3.77661L51.6644 4.54L52.3103 5.30339C52.5464 5.10365 52.8212 4.95504 53.1465 4.85936L52.8644 3.9ZM51.6644 4.54L50.9573 3.83289C50.8602 3.92997 50.8037 3.97987 50.7797 3.99913L51.4044 4.78L52.0291 5.56087C52.1383 5.47346 52.2552 5.36336 52.3715 5.24711L51.6644 4.54ZM51.4044 4.78L50.7642 4.01178C50.5639 4.17869 50.4161 4.38056 50.3099 4.59279L51.2044 5.04L52.0988 5.48721C52.0994 5.48611 52.0849 5.51464 52.0446 5.54822L51.4044 4.78ZM51.2044 5.04L50.3632 4.49924C50.2114 4.73533 50.0821 4.98443 49.9957 5.24377L50.9444 5.56L51.8931 5.87623C51.9133 5.81557 51.9573 5.718 52.0456 5.58076L51.2044 5.04ZM50.9444 5.56L49.9796 5.29688C49.9713 5.32745 49.9304 5.43798 49.8102 5.65436L50.6844 6.14L51.5585 6.62564C51.705 6.36202 51.8375 6.08588 51.9091 5.82312L50.9444 5.56ZM50.6844 6.14L49.7673 5.74127C49.7406 5.80261 49.7269 5.80784 49.7448 5.7906C49.7541 5.78159 49.7691 5.76937 49.7898 5.75766C49.8106 5.74588 49.8314 5.73778 49.8499 5.73292L50.1044 6.7L50.3589 7.66707C50.9876 7.50161 51.3828 7.04153 51.6014 6.53873L50.6844 6.14ZM50.1044 6.7L49.8367 5.73648C49.8293 5.73855 49.8255 5.7387 49.8202 5.73827C49.8136 5.73774 49.792 5.73504 49.7524 5.71836L49.3644 6.64L48.9763 7.56164C49.4144 7.74611 49.8923 7.79678 50.372 7.66352L50.1044 6.7ZM49.3644 6.64L49.8116 5.74557C49.7651 5.72234 49.742 5.69926 49.7188 5.65279L48.8244 6.1L47.9299 6.54721C48.1467 6.98074 48.4836 7.31766 48.9172 7.53443L49.3644 6.64ZM48.8244 6.1L49.7382 5.69386C49.7452 5.70971 49.7509 5.7281 49.7542 5.74727C49.7574 5.76625 49.7573 5.78055 49.7567 5.78798C49.7557 5.80162 49.7545 5.77838 49.7865 5.71145L48.8844 5.28L47.9822 4.84854C47.7491 5.33599 47.6521 5.92451 47.9106 6.50614L48.8244 6.1ZM48.8844 5.28L49.8129 5.65139C49.8373 5.59033 49.8952 5.44864 49.9891 5.22075L49.0644 4.84L48.1397 4.45925C48.0469 4.68469 47.9848 4.83633 47.9559 4.90861L48.8844 5.28ZM49.0644 4.84L49.9782 5.24614C50.0851 5.00566 50.1471 4.88087 50.1726 4.83614L49.3044 4.34L48.4361 3.84386C48.355 3.9858 48.257 4.19434 48.1506 4.43386L49.0644 4.84ZM49.3044 4.34L50.2106 4.76288C50.2669 4.64221 50.3669 4.47374 50.5294 4.2532L49.7244 3.66L48.9193 3.0668C48.7085 3.35292 48.5285 3.63779 48.3982 3.91712L49.3044 4.34ZM49.7244 3.66L50.5294 4.2532C50.6618 4.07359 50.819 3.91098 51.004 3.76488L50.3844 2.98L49.7647 2.19512C49.4431 2.44901 49.1603 2.73974 48.9193 3.0668L49.7244 3.66ZM50.3844 2.98L51.0454 3.73036C51.4925 3.33648 52.0081 3.05347 52.6037 2.88019L52.3244 1.92L52.045 0.959804C51.174 1.2132 50.3962 1.63685 49.7233 2.22964L50.3844 2.98ZM52.3244 1.92L52.6037 2.88019C53.2058 2.70504 53.7872 2.66467 54.3578 2.7492L54.5044 1.76L54.6509 0.770796C53.7815 0.641996 52.9096 0.708289 52.045 0.959803L52.3244 1.92ZM54.5044 1.76L54.3677 2.75062C54.96 2.83231 55.4843 3.05846 55.9576 3.43921L56.5844 2.66L57.2111 1.88079C56.4578 1.27487 55.5954 0.90102 54.641 0.769378L54.5044 1.76ZM56.5844 2.66L55.9763 3.45388C56.4255 3.79791 56.7619 4.27348 56.9727 4.927L57.9244 4.62L58.8761 4.313C58.5536 3.31319 57.9966 2.48208 57.1925 1.86612L56.5844 2.66ZM57.9244 4.62L56.9694 4.91669C57.1284 5.42859 57.1225 5.86762 56.9932 6.26649C56.8607 6.6749 56.5748 7.1138 56.059 7.57349L56.7244 8.32L57.3897 9.06651C58.1007 8.43287 58.6281 7.70843 58.8956 6.8835C59.1662 6.04904 59.147 5.18474 58.8793 4.32331L57.9244 4.62ZM56.7244 8.32L56.0173 7.61289L55.9973 7.63289L56.7044 8.34L57.4115 9.04711L57.4315 9.02711L56.7244 8.32ZM56.7044 8.34L56.1497 9.17205L56.2697 9.25205L56.8244 8.42L57.3791 7.58795L57.2591 7.50795L56.7044 8.34ZM56.8244 8.42L56.2911 9.26593C56.7669 9.56591 57.1388 9.95335 57.4173 10.4381L58.2844 9.94L59.1515 9.44188C58.71 8.67331 58.1085 8.04743 57.3577 7.57407L56.8244 8.42ZM58.2844 9.94L57.4253 10.4518C57.651 10.8307 57.7556 11.3394 57.6376 12.058L58.6244 12.22L59.6112 12.382C59.7865 11.314 59.6644 10.3027 59.1435 9.42819L58.2844 9.94ZM58.6244 12.22L57.635 12.0745C57.533 12.7683 57.2478 13.3123 56.7804 13.7505L57.4644 14.48L58.1483 15.2095C58.961 14.4477 59.4491 13.485 59.6137 12.3655L58.6244 12.22ZM57.4644 14.48L56.7728 13.7577C56.2644 14.2444 55.6745 14.5828 54.9897 14.7785L55.2644 15.74L55.5391 16.7015C56.5343 16.4172 57.411 15.9156 58.1559 15.2023L57.4644 14.48ZM55.2644 15.74L54.9431 14.793C54.3495 14.9944 53.6835 15.0655 52.9298 14.9856L52.8244 15.98L52.7189 16.9744C53.7252 17.0812 54.686 16.9922 55.5857 16.687L55.2644 15.74ZM62.5691 14.02L61.8441 14.7087L61.8613 14.7269L61.8794 14.7441L62.5691 14.02ZM62.9491 14.88L63.945 14.9705L63.9453 14.9666L62.9491 14.88ZM62.5691 15.64L61.8837 14.9118L61.8727 14.9222L61.862 14.9329L62.5691 15.64ZM61.7891 16L61.7024 15.0038L61.6985 15.0041L61.7891 16ZM60.9691 15.64L61.6941 14.9513L61.6852 14.942L61.6762 14.9329L60.9691 15.64ZM60.6091 14.78L59.6182 14.6449L60.6091 14.78ZM60.9891 14.02L60.282 13.3129L60.9891 14.02ZM61.7491 13.66L61.6585 12.6641L61.7491 13.66ZM62.5291 5.82L61.8041 6.50875L61.8213 6.52689L61.8394 6.54414L62.5291 5.82ZM62.9091 6.68L63.905 6.77054L63.9053 6.76663L62.9091 6.68ZM62.5291 7.44L61.8437 6.7118L61.8327 6.72218L61.822 6.73289L62.5291 7.44ZM61.7491 7.8L61.6624 6.80375L61.6585 6.80411L61.7491 7.8ZM60.9291 7.44L61.6541 6.75125L61.6452 6.74196L61.6362 6.73289L60.9291 7.44ZM60.5691 6.58L61.5599 6.71511L60.5691 6.58ZM60.9491 5.82L61.6562 6.52711V6.52711L60.9491 5.82ZM61.7091 5.46L61.7996 6.45589V6.45589L61.7091 5.46ZM62.5691 14.02L61.8794 14.7441C61.9457 14.8073 61.9601 14.8409 61.9594 14.8392C61.9588 14.838 61.9561 14.8311 61.9542 14.8199C61.9523 14.8087 61.9523 14.7991 61.9528 14.7934L62.9491 14.88L63.9453 14.9666C64.0049 14.2814 63.6971 13.7134 63.2587 13.2959L62.5691 14.02ZM62.9491 14.88L61.9532 14.7895C61.95 14.8248 61.9434 14.8556 61.8837 14.9118L62.5691 15.64L63.2544 16.3682C63.648 15.9978 63.8948 15.5219 63.945 14.9705L62.9491 14.88ZM62.5691 15.64L61.862 14.9329C61.8186 14.9762 61.7799 14.997 61.7024 15.0038L61.7891 16L61.8757 16.9962C62.4116 16.9496 62.8928 16.7305 63.2762 16.3471L62.5691 15.64ZM61.7891 16L61.6985 15.0041C61.7074 15.0033 61.7204 15.0033 61.7353 15.0058C61.7502 15.0082 61.7609 15.0121 61.7661 15.0144C61.7758 15.0186 61.7498 15.01 61.6941 14.9513L60.9691 15.64L60.2441 16.3287C60.6504 16.7565 61.2072 17.057 61.8796 16.9959L61.7891 16ZM60.9691 15.64L61.6762 14.9329C61.604 14.8607 61.5896 14.8243 61.5915 14.8289C61.5929 14.8322 61.5971 14.8437 61.5997 14.8621C61.6023 14.8808 61.602 14.8993 61.5999 14.9151L60.6091 14.78L59.6182 14.6449C59.5227 15.3456 59.8416 15.9267 60.262 16.3471L60.9691 15.64ZM60.6091 14.78L61.5999 14.9151C61.6098 14.8427 61.6342 14.7891 61.6962 14.7271L60.9891 14.02L60.282 13.3129C59.9173 13.6776 59.6884 14.1306 59.6182 14.6449L60.6091 14.78ZM60.9891 14.02L61.6962 14.7271C61.7485 14.6748 61.7853 14.6608 61.8396 14.6559L61.7491 13.66L61.6585 12.6641C61.1261 12.7125 60.6563 12.9385 60.282 13.3129L60.9891 14.02ZM61.7491 13.66L61.8396 14.6559C61.8307 14.6567 61.8177 14.6567 61.8028 14.6542C61.7879 14.6518 61.7772 14.6479 61.7721 14.6456C61.7623 14.6414 61.7883 14.65 61.8441 14.7087L62.5691 14.02L63.2941 13.3313C62.8877 12.9035 62.3309 12.603 61.6585 12.6641L61.7491 13.66ZM62.5291 5.82L61.8394 6.54414C61.9057 6.60726 61.9201 6.64086 61.9194 6.63916C61.9188 6.63796 61.9161 6.63112 61.9142 6.61994C61.9123 6.60868 61.9123 6.5991 61.9128 6.59337L62.9091 6.68L63.9053 6.76663C63.9649 6.08136 63.6571 5.51337 63.2187 5.09586L62.5291 5.82ZM62.9091 6.68L61.9132 6.58946C61.91 6.62477 61.9034 6.65557 61.8437 6.7118L62.5291 7.44L63.2144 8.1682C63.608 7.79777 63.8548 7.32189 63.905 6.77053L62.9091 6.68ZM62.5291 7.44L61.822 6.73289C61.7786 6.7762 61.7399 6.79702 61.6624 6.80376L61.7491 7.8L61.8357 8.79624C62.3716 8.74964 62.8528 8.53047 63.2362 8.14711L62.5291 7.44ZM61.7491 7.8L61.6585 6.80411C61.6674 6.8033 61.6804 6.80334 61.6953 6.80579C61.7102 6.80824 61.7209 6.81208 61.7261 6.81436C61.7358 6.81862 61.7098 6.80996 61.6541 6.75125L60.9291 7.44L60.2041 8.12875C60.6104 8.55648 61.1672 8.85702 61.8396 8.79589L61.7491 7.8ZM60.9291 7.44L61.6362 6.73289C61.5639 6.66067 61.5496 6.62425 61.5515 6.62886C61.5529 6.63216 61.5571 6.64373 61.5597 6.66211C61.5623 6.68079 61.562 6.6993 61.5599 6.71511L60.5691 6.58L59.5782 6.44489C59.4827 7.14563 59.8016 7.72674 60.222 8.14711L60.9291 7.44ZM60.5691 6.58L61.5599 6.71511C61.5698 6.64274 61.5942 6.58909 61.6562 6.52711L60.9491 5.82L60.242 5.11289C59.8773 5.47758 59.6484 5.93059 59.5782 6.44489L60.5691 6.58ZM60.9491 5.82L61.6562 6.52711C61.7085 6.47481 61.7453 6.46083 61.7996 6.45589L61.7091 5.46L61.6185 4.46411C61.0861 4.51251 60.6163 4.73852 60.242 5.11289L60.9491 5.82ZM61.7091 5.46L61.7996 6.45589C61.7907 6.4567 61.7777 6.45666 61.7628 6.45421C61.7479 6.45176 61.7372 6.44791 61.7321 6.44564C61.7223 6.44137 61.7483 6.45004 61.8041 6.50875L62.5291 5.82L63.2541 5.13125C62.8477 4.70351 62.2909 4.40298 61.6185 4.46411L61.7091 5.46Z" fill="#EEE7D9" mask="url(#path-1-outside-1_41_410)"/>
<defs>
<linearGradient id="paint0_linear_41_410" x1="1" y1="10" x2="318" y2="10" gradientUnits="userSpaceOnUse">
<stop stop-color="#834C34"/>
<stop offset="1" stop-color="#DDA360"/>
</linearGradient>
</defs>
</svg>
