<svg width="188" height="67" viewBox="0 0 188 67" fill="none" xmlns="http://www.w3.org/2000/svg">
<path d="M6.86 14C6.86 14.3333 6.76 14.58 6.56 14.74C6.36 14.9 6.12667 14.98 5.86 14.98C5.59333 14.9667 5.36 14.8733 5.16 14.7C4.96 14.5267 4.86 14.28 4.86 13.96C4.87333 13.4933 4.86667 11.6067 4.84 8.3C4.82667 5.88667 4.86667 4.02 4.96 2.7C3.50667 2.68667 2.28 2.7 1.28 2.74C0.946667 2.75333 0.693333 2.66667 0.52 2.48C0.346667 2.28 0.253333 2.05333 0.24 1.8C0.24 1.53333 0.32 1.29333 0.48 1.08C0.64 0.866666 0.88 0.753333 1.2 0.739999C2.34667 0.699999 3.94 0.686666 5.98 0.699999C8.02 0.713332 9.61333 0.713332 10.76 0.699999C11.08 0.699999 11.3267 0.799999 11.5 0.999999C11.6733 1.2 11.76 1.43333 11.76 1.7C11.7733 1.96667 11.7 2.2 11.54 2.4C11.38 2.6 11.1333 2.7 10.8 2.7C9.85333 2.71333 8.57333 2.72 6.96 2.72C6.86667 4 6.82667 5.85333 6.84 8.28C6.86667 11.6 6.87333 13.5067 6.86 14ZM21.2648 14.04C21.2515 14.3733 21.1382 14.62 20.9248 14.78C20.7248 14.9267 20.4915 15 20.2248 15C19.9715 14.9867 19.7448 14.9 19.5448 14.74C19.3582 14.5667 19.2648 14.32 19.2648 14C19.2648 13.9867 19.3048 13.36 19.3848 12.12C19.4648 10.76 19.4782 9.72667 19.4248 9.02C19.3048 7.35333 18.6915 6.48 17.5848 6.4C16.9982 6.36 16.5115 6.45333 16.1248 6.68C15.7515 6.89333 15.3848 7.27333 15.0248 7.82C14.9982 7.86 14.9448 7.95333 14.8648 8.1C14.9582 10.98 15.0048 12.9533 15.0048 14.02C15.0048 14.3533 14.9048 14.6067 14.7048 14.78C14.5048 14.94 14.2715 15.02 14.0048 15.02C13.7382 15.02 13.5048 14.94 13.3048 14.78C13.1048 14.6067 13.0048 14.3533 13.0048 14.02C13.0048 13.4067 12.9515 11.3333 12.8448 7.8C12.7648 5.14667 12.7515 3.04 12.8048 1.48C12.8182 1.16 12.9315 0.919999 13.1448 0.76C13.3582 0.599999 13.5915 0.526666 13.8448 0.539999C14.1115 0.539999 14.3382 0.626666 14.5248 0.799999C14.7248 0.973333 14.8182 1.22667 14.8048 1.56C14.7915 1.92 14.7848 3.31333 14.7848 5.74C15.6382 4.75333 16.6382 4.30667 17.7848 4.4C19.9982 4.58667 21.2115 6.07333 21.4248 8.86C21.4648 9.63333 21.4782 10.3067 21.4648 10.88C21.4382 11.48 21.3982 12.08 21.3448 12.68C21.2915 13.28 21.2648 13.7333 21.2648 14.04ZM28.7595 15.1C27.7729 15.0333 26.9129 14.8333 26.1795 14.5C25.4462 14.1667 24.8862 13.7467 24.4995 13.24C24.1129 12.7333 23.8329 12.2667 23.6595 11.84C23.4862 11.4133 23.3795 10.9933 23.3395 10.58C23.2995 10.1533 23.3195 9.60667 23.3995 8.94C23.5062 8.32667 23.7195 7.74 24.0395 7.18C24.3729 6.62 24.7929 6.13333 25.2995 5.72C25.8195 5.29333 26.4129 4.98 27.0795 4.78C27.7595 4.56667 28.4862 4.50667 29.2595 4.6C30.0329 4.69333 30.6929 4.90667 31.2395 5.24C31.7862 5.56 32.2529 5.97333 32.6395 6.48C32.9729 6.90667 33.1795 7.22667 33.2595 7.44C33.3262 7.65333 33.3929 7.85333 33.4595 8.04C33.5129 8.24 33.5729 8.46667 33.6395 8.72C33.7195 8.97333 33.7662 9.20667 33.7795 9.42C33.8062 9.96667 33.5995 10.3667 33.1595 10.62C32.9862 10.6867 32.7995 10.72 32.5995 10.72L29.1795 10.78C26.7795 10.7933 25.5795 10.82 25.5795 10.86H25.5195C25.8795 12.2467 26.9995 13.0067 28.8795 13.14C29.3995 13.1667 29.8329 13.14 30.1795 13.06C30.5662 12.9533 30.8462 12.86 31.0195 12.78C31.1929 12.6867 31.4062 12.5667 31.6595 12.42C31.9662 12.3133 32.2262 12.32 32.4395 12.44C32.6662 12.5467 32.8195 12.72 32.8995 12.96C32.9929 13.2 32.9995 13.4467 32.9195 13.7C32.8395 13.9533 32.6595 14.16 32.3795 14.32C32.1662 14.44 31.9462 14.54 31.7195 14.62C31.3995 14.7533 31.0062 14.8733 30.5395 14.98C30.0729 15.0733 29.4795 15.1133 28.7595 15.1ZM25.5595 8.9C26.3329 8.86 28.3395 8.82 31.5795 8.78C31.4595 8.38 31.2662 8 30.9995 7.64C30.4662 7.02667 29.8062 6.67333 29.0195 6.58C28.1929 6.47333 27.4662 6.65333 26.8395 7.12C26.2129 7.57333 25.7862 8.16667 25.5595 8.9ZM43.0656 18.02C43.0656 18.3533 42.9656 18.6 42.7656 18.76C42.5656 18.92 42.3323 18.9933 42.0656 18.98C41.799 18.98 41.5656 18.8933 41.3656 18.72C41.1656 18.5467 41.0656 18.3 41.0656 17.98C41.119 15.3533 41.1456 11.16 41.1456 5.4C41.1456 5.12 41.239 4.88667 41.4256 4.7C41.6256 4.5 41.8656 4.4 42.1456 4.4C42.3456 4.4 42.5256 4.49333 42.6856 4.68C42.859 4.85333 42.9856 5.07333 43.0656 5.34L43.3456 5.16C44.1456 4.68 44.939 4.42 45.7256 4.38C46.5123 4.34 47.219 4.51333 47.8456 4.9C48.4323 5.23333 48.9256 5.7 49.3256 6.3C49.739 6.9 50.039 7.55333 50.2256 8.26C50.3723 8.76667 50.4523 9.30667 50.4656 9.88C50.479 10.4533 50.4056 10.9867 50.2456 11.48C50.0856 11.9733 49.8523 12.46 49.5456 12.94C49.239 13.42 48.8056 13.84 48.2456 14.2C47.699 14.56 47.0656 14.8067 46.3456 14.94C45.1056 15.1667 44.0323 14.9533 43.1256 14.3C43.1123 15.54 43.0923 16.78 43.0656 18.02ZM45.9856 12.98C46.999 12.7933 47.7056 12.3133 48.1056 11.54C48.519 10.7533 48.5856 9.83333 48.3056 8.78C48.0256 7.74 47.539 7.02667 46.8456 6.64C46.139 6.22667 45.319 6.30667 44.3856 6.88C43.959 7.13333 43.7123 7.3 43.6456 7.38C43.6056 7.42 43.5723 7.45333 43.5456 7.48C43.519 7.52 43.4723 7.6 43.4056 7.72L43.1456 8.08V11.36C43.2123 11.4267 43.2656 11.5 43.3056 11.58C43.679 12.1667 44.0723 12.5733 44.4856 12.8C44.899 13.0267 45.399 13.0867 45.9856 12.98ZM58.2272 14.68C57.7472 14.8667 57.2072 14.9733 56.6072 15C55.3672 15.0533 54.3405 14.7267 53.5272 14.02C52.8339 13.4467 52.3872 12.7333 52.1872 11.88C51.9872 11.0267 51.9805 10.26 52.1672 9.58C52.3539 8.9 52.6405 8.23333 53.0272 7.58C53.5205 6.72667 54.1072 6.02 54.7872 5.46C55.4805 4.9 56.2339 4.55333 57.0472 4.42C57.8739 4.28667 58.7472 4.44667 59.6672 4.9C59.7739 4.95333 59.8872 5.03333 60.0072 5.14C60.1405 5.24667 60.2539 5.34 60.3472 5.42L60.6072 5.68C60.6872 5.76 60.7272 5.80667 60.7272 5.82C60.9405 6.00667 61.0539 6.24667 61.0672 6.54C61.2405 7.34 61.3539 8.18 61.4072 9.06C61.4339 9.5 61.4472 10.0267 61.4472 10.64C61.4472 11.24 61.4472 11.8467 61.4472 12.46C61.4605 13.06 61.4739 13.5733 61.4872 14C61.5005 14.32 61.4072 14.5667 61.2072 14.74C61.0205 14.9133 60.7939 15 60.5272 15C60.2739 15.0133 60.0405 14.9467 59.8272 14.8C59.6139 14.64 59.5005 14.4 59.4872 14.08V13.78C59.0872 14.1933 58.6672 14.4933 58.2272 14.68ZM57.3272 12.88C57.5672 12.8133 57.8939 12.6733 58.3072 12.46C58.7205 12.2467 59.0739 11.92 59.3672 11.48C59.3939 11.4533 59.4272 11.4267 59.4672 11.4C59.4672 9.6 59.3539 8.15333 59.1272 7.06C59.0072 6.9 58.8672 6.76667 58.7072 6.66C58.0672 6.31333 57.3939 6.30667 56.6872 6.64C55.9805 6.96 55.3605 7.56667 54.8272 8.46C53.7739 10.2467 53.7672 11.5933 54.8072 12.5C55.1139 12.7533 55.4939 12.9133 55.9472 12.98C56.4005 13.0467 56.8605 13.0133 57.3272 12.88ZM65.0553 15C64.7886 15 64.5553 14.9133 64.3553 14.74C64.1553 14.5533 64.0553 14.3067 64.0553 14C64.0553 12.9467 64.0486 12.04 64.0353 11.28C64.0086 9.01333 63.9953 7.04667 63.9953 5.38C63.9953 5.07333 64.0886 4.83333 64.2753 4.66C64.462 4.48667 64.6886 4.4 64.9553 4.4C65.2353 4.4 65.4753 4.49333 65.6753 4.68C65.8886 4.85333 65.9953 5.1 65.9953 5.42V6.04C66.822 4.96 67.9086 4.42 69.2553 4.42C70.4153 4.42 71.302 4.82667 71.9153 5.64C72.542 6.45333 72.8553 7.54667 72.8553 8.92C72.8553 10.44 72.8353 11.44 72.7953 11.92L72.6953 13.26L72.6353 14.12C72.6086 14.3867 72.502 14.6 72.3153 14.76C72.1286 14.92 71.9086 15 71.6553 15C71.3886 15 71.1553 14.9133 70.9553 14.74C70.7553 14.5533 70.6553 14.3067 70.6553 14C70.6553 13.7867 70.702 13.0467 70.7953 11.78C70.862 10.9133 70.8953 10.2333 70.8953 9.74C70.8953 8.60667 70.7353 7.77333 70.4153 7.24C70.0953 6.69333 69.602 6.42 68.9353 6.42C68.4553 6.42 67.9553 6.56667 67.4353 6.86C66.9286 7.15333 66.4486 7.52667 65.9953 7.98L66.0353 10.82L66.0553 14C66.0553 14.3067 65.9553 14.5533 65.7553 14.74C65.5553 14.9133 65.322 15 65.0553 15ZM78.6044 14.94C78.5244 14.9133 78.3644 14.8733 78.1244 14.82C77.871 14.7667 77.6577 14.7067 77.4844 14.64C77.1244 14.5067 76.791 14.32 76.4844 14.08C76.191 13.84 75.9444 13.4933 75.7444 13.04C75.5977 12.68 75.5044 11.9733 75.4644 10.92C75.4244 10.1067 75.4177 9.06 75.4444 7.78C75.4444 7.54 75.451 7.14 75.4644 6.58L75.3044 6.6C74.971 6.62667 74.711 6.55333 74.5244 6.38C74.3377 6.19333 74.231 5.97333 74.2044 5.72C74.1777 5.46667 74.231 5.23333 74.3644 5.02C74.511 4.79333 74.7444 4.65333 75.0644 4.6L75.5244 4.56C75.5377 3.85333 75.5577 3.14 75.5844 2.42C75.5977 2.08667 75.711 1.84667 75.9244 1.7C76.1377 1.54 76.371 1.46667 76.6244 1.48C76.891 1.48 77.1177 1.56667 77.3044 1.74C77.5044 1.91333 77.5977 2.16667 77.5844 2.5L77.5244 4.4L78.1844 4.36C78.5177 4.34667 78.771 4.43333 78.9444 4.62C79.131 4.80667 79.231 5.03333 79.2444 5.3C79.271 5.55333 79.211 5.78667 79.0644 6C78.9177 6.21333 78.6777 6.33333 78.3444 6.36L77.4644 6.4C77.451 7.04 77.4444 7.50667 77.4444 7.8C77.4177 9.05333 77.4244 10.0733 77.4644 10.86C77.4777 11.34 77.5044 11.7267 77.5444 12.02C77.5844 12.3133 77.691 12.5133 77.8644 12.62C77.891 12.6467 77.991 12.6867 78.1644 12.74C78.351 12.7933 78.551 12.8533 78.7644 12.92C78.9777 12.9733 79.1377 13.02 79.2444 13.06C79.551 13.1533 79.751 13.3267 79.8444 13.58C79.9377 13.82 79.9444 14.0667 79.8644 14.32C79.7844 14.56 79.631 14.7533 79.4044 14.9C79.191 15.0333 78.9244 15.0467 78.6044 14.94ZM82.4772 15C82.2105 15 81.9772 14.9133 81.7772 14.74C81.5772 14.5533 81.4772 14.3067 81.4772 14L81.4372 9.92C81.4239 9 81.4172 7.85333 81.4172 6.48V5.3C81.4172 4.99333 81.5105 4.75333 81.6972 4.58C81.8839 4.40667 82.1105 4.32 82.3772 4.32C82.6572 4.32 82.8972 4.41333 83.0972 4.6C83.3105 4.77333 83.4172 5.02 83.4172 5.34V5.94C83.5639 5.62 83.8372 5.34667 84.2372 5.12C84.7839 4.78667 85.3839 4.62 86.0372 4.62C86.5305 4.62 86.9105 4.7 87.1772 4.86C87.4439 5.02 87.5772 5.30667 87.5772 5.72C87.5772 5.98667 87.4972 6.21333 87.3372 6.4C87.1772 6.57333 86.9439 6.66 86.6372 6.66C85.5172 6.66 84.7439 6.81333 84.3172 7.12C84.0772 7.28 83.8639 7.47333 83.6772 7.7C83.5039 7.92667 83.4172 8.14667 83.4172 8.36L83.4572 10.86L83.4772 14C83.4772 14.3067 83.3772 14.5533 83.1772 14.74C82.9772 14.9133 82.7439 15 82.4772 15ZM89.3998 19.02C89.0665 19.0467 88.8065 18.9667 88.6198 18.78C88.4332 18.6067 88.3332 18.3867 88.3198 18.12C88.2932 17.8533 88.3532 17.6067 88.4998 17.38C88.6465 17.1667 88.8798 17.0467 89.1998 17.02C89.3865 17.0067 89.6265 16.9867 89.9198 16.96C90.2132 16.9333 90.4065 16.8867 90.4998 16.82L90.6998 16.7C91.0198 16.54 91.3065 16.0933 91.5598 15.36C91.6398 15.1333 91.7198 14.9733 91.7998 14.88C91.7065 14.7733 91.6332 14.6467 91.5798 14.5C91.3398 13.4733 90.8465 11.9533 90.0998 9.94C89.4332 8.16667 88.9398 6.74667 88.6198 5.68C88.5265 5.36 88.5532 5.09333 88.6998 4.88C88.8465 4.66667 89.0465 4.52667 89.2998 4.46C89.5532 4.38 89.7998 4.39333 90.0398 4.5C90.2798 4.59333 90.4465 4.8 90.5398 5.12C90.7932 5.97333 91.2732 7.34667 91.9798 9.24L92.7398 11.32C93.6732 8.46667 94.5265 6.32667 95.2998 4.9C95.4598 4.60667 95.6665 4.44 95.9198 4.4C96.1865 4.34667 96.4332 4.38667 96.6598 4.52C96.8865 4.64 97.0465 4.82 97.1398 5.06C97.2465 5.3 97.2198 5.56667 97.0598 5.86C96.7132 6.5 96.3532 7.28 95.9798 8.2C95.7265 8.81333 95.5132 9.35333 95.3398 9.82C95.1798 10.2733 95.0132 10.7533 94.8398 11.26C94.6798 11.7667 94.4865 12.3933 94.2598 13.14C94.1798 13.4067 94.1265 13.5933 94.0998 13.7C94.0332 13.8733 93.9398 14.22 93.8198 14.74C93.6732 15.2333 93.5532 15.6333 93.4598 15.94C93.0865 16.98 92.5798 17.7533 91.9398 18.26C91.7532 18.4067 91.5665 18.5267 91.3798 18.62C91.1932 18.7267 90.9998 18.8 90.7998 18.84C90.7198 18.8667 90.5732 18.8867 90.3598 18.9C90.1465 18.9267 89.9332 18.9533 89.7198 18.98C89.5198 19.0067 89.4132 19.02 89.3998 19.02ZM102.785 14.04C102.758 13.04 102.765 11.5067 102.805 9.44C102.832 7.37333 102.845 6.02 102.845 5.38C102.845 5.04667 102.945 4.8 103.145 4.64C103.345 4.46667 103.578 4.38 103.845 4.38C104.112 4.38 104.345 4.46667 104.545 4.64C104.745 4.8 104.845 5.04667 104.845 5.38C104.845 6.02 104.832 7.36667 104.805 9.42C104.765 11.4733 104.758 13 104.785 14C104.785 14.32 104.685 14.5667 104.485 14.74C104.285 14.9133 104.052 15 103.785 15C103.518 15.0133 103.285 14.94 103.085 14.78C102.885 14.62 102.785 14.3733 102.785 14.04ZM104.645 0.919999C104.925 1.2 105.045 1.49333 105.005 1.8C104.978 2.10667 104.852 2.37333 104.625 2.6C104.412 2.81333 104.152 2.94 103.845 2.98C103.538 3.00667 103.245 2.88 102.965 2.6C102.685 2.32 102.565 2.02667 102.605 1.72C102.645 1.41333 102.778 1.14667 103.005 0.919999C103.232 0.693333 103.498 0.566666 103.805 0.539999C104.112 0.5 104.392 0.626666 104.645 0.919999ZM109.592 15C108.606 14.8267 107.892 14.4267 107.452 13.8C107.239 13.52 107.086 13.1467 106.992 12.68L106.912 12.24C106.886 12.1067 106.859 12 106.832 11.92C106.739 11.6267 106.766 11.38 106.912 11.18C107.059 10.9667 107.259 10.82 107.512 10.74C107.766 10.66 108.012 10.6667 108.252 10.76C108.492 10.8533 108.659 11.06 108.752 11.38C108.792 11.5267 108.832 11.6933 108.872 11.88C108.886 11.9467 108.899 12.0067 108.912 12.06C108.912 12.1267 108.932 12.2333 108.972 12.38C109.012 12.5533 109.106 12.7 109.252 12.82C109.412 12.9667 109.652 13.06 109.972 13.1C110.506 13.2067 111.079 13.1933 111.692 13.06C112.292 12.9267 112.759 12.7333 113.092 12.48C113.332 12.2667 113.432 12.0467 113.392 11.82C113.352 11.4467 113.119 11.1667 112.692 10.98C112.426 10.86 111.732 10.7 110.612 10.5C109.452 10.2733 108.632 9.98 108.152 9.62C107.272 8.96667 106.986 7.99333 107.292 6.7C107.479 5.95333 107.859 5.40667 108.432 5.06C109.019 4.7 109.666 4.5 110.372 4.46C110.972 4.43333 111.579 4.50667 112.192 4.68C112.819 4.84 113.352 5.06667 113.792 5.36C113.819 5.37333 113.892 5.44 114.012 5.56C114.132 5.68 114.266 5.81333 114.412 5.96C114.572 6.09333 114.706 6.22 114.812 6.34C114.932 6.44667 114.992 6.5 114.992 6.5C115.232 6.74 115.339 6.98667 115.312 7.24C115.286 7.48 115.179 7.69333 114.992 7.88C114.806 8.05333 114.586 8.15333 114.332 8.18C114.079 8.19333 113.832 8.09333 113.592 7.88C113.459 7.76 113.326 7.63333 113.192 7.5L112.912 7.16C112.832 7.09333 112.739 7.02667 112.632 6.96C112.379 6.8 112.052 6.66667 111.652 6.56C111.252 6.44 110.859 6.38667 110.472 6.4C109.766 6.44 109.359 6.68667 109.252 7.14C109.132 7.62 109.172 7.93333 109.372 8.08C109.612 8.25333 110.152 8.42667 110.992 8.6C112.232 8.81333 113.079 9.02 113.532 9.22C114.626 9.71333 115.246 10.5067 115.392 11.6C115.512 12.4933 115.179 13.2667 114.392 13.92C113.792 14.4133 113.032 14.7533 112.112 14.94C111.232 15.14 110.392 15.16 109.592 15ZM125.345 15C125.092 15 124.865 14.9333 124.665 14.8C124.465 14.6667 124.332 14.4933 124.265 14.28C124.065 13.5733 123.619 12.18 122.925 10.1C122.325 8.31333 121.885 6.84 121.605 5.68C121.499 5.37333 121.545 5.09333 121.745 4.84C121.959 4.57333 122.245 4.44 122.605 4.44C123.112 4.44 123.432 4.70667 123.565 5.24C123.925 6.56 124.359 7.96667 124.865 9.46C125.065 10.0867 125.199 10.6067 125.265 11.02L125.725 9.62L126.005 8.78C125.992 8.82 126.139 8.36 126.445 7.4C126.525 7.16 126.605 6.90667 126.685 6.64C126.765 6.38667 126.852 6.12667 126.945 5.86C127.172 5.23333 127.572 4.92 128.145 4.92C128.425 4.92 128.652 5 128.825 5.16C129.012 5.32 129.172 5.58667 129.305 5.96C129.932 7.72 130.532 9.59333 131.105 11.58L131.545 9.78C131.652 9.3 131.772 8.78 131.905 8.22C132.172 7.1 132.432 6.10667 132.685 5.24C132.752 4.98667 132.872 4.78667 133.045 4.64C133.219 4.49333 133.412 4.42 133.625 4.42C133.959 4.42 134.219 4.54667 134.405 4.8C134.592 5.05333 134.632 5.35333 134.525 5.7C134.512 5.72667 134.459 5.96667 134.365 6.42C134.219 7.07333 134.052 7.74 133.865 8.42L133.425 10.02C132.919 11.9133 132.552 13.1933 132.325 13.86C132.032 14.62 131.625 15 131.105 15C130.519 15 130.112 14.6733 129.885 14.02L129.565 13.04C129.259 12.1333 128.725 10.5267 127.965 8.22L127.625 9.42C127.012 11.5267 126.639 12.88 126.505 13.48C126.265 14.4933 125.879 15 125.345 15ZM141.587 14.68C141.107 14.8667 140.567 14.9733 139.967 15C138.727 15.0533 137.7 14.7267 136.887 14.02C136.193 13.4467 135.747 12.7333 135.547 11.88C135.347 11.0267 135.34 10.26 135.527 9.58C135.713 8.9 136 8.23333 136.387 7.58C136.88 6.72667 137.467 6.02 138.147 5.46C138.84 4.9 139.593 4.55333 140.407 4.42C141.233 4.28667 142.107 4.44667 143.027 4.9C143.133 4.95333 143.247 5.03333 143.367 5.14C143.5 5.24667 143.613 5.34 143.707 5.42L143.967 5.68C144.047 5.76 144.087 5.80667 144.087 5.82C144.3 6.00667 144.413 6.24667 144.427 6.54C144.6 7.34 144.713 8.18 144.767 9.06C144.793 9.5 144.807 10.0267 144.807 10.64C144.807 11.24 144.807 11.8467 144.807 12.46C144.82 13.06 144.833 13.5733 144.847 14C144.86 14.32 144.767 14.5667 144.567 14.74C144.38 14.9133 144.153 15 143.887 15C143.633 15.0133 143.4 14.9467 143.187 14.8C142.973 14.64 142.86 14.4 142.847 14.08V13.78C142.447 14.1933 142.027 14.4933 141.587 14.68ZM140.687 12.88C140.927 12.8133 141.253 12.6733 141.667 12.46C142.08 12.2467 142.433 11.92 142.727 11.48C142.753 11.4533 142.787 11.4267 142.827 11.4C142.827 9.6 142.713 8.15333 142.487 7.06C142.367 6.9 142.227 6.76667 142.067 6.66C141.427 6.31333 140.753 6.30667 140.047 6.64C139.34 6.96 138.72 7.56667 138.187 8.46C137.133 10.2467 137.127 11.5933 138.167 12.5C138.473 12.7533 138.853 12.9133 139.307 12.98C139.76 13.0467 140.22 13.0133 140.687 12.88ZM147.375 14.04C147.348 13.04 147.355 11.5067 147.395 9.44C147.421 7.37333 147.435 6.02 147.435 5.38C147.435 5.04667 147.535 4.8 147.735 4.64C147.935 4.46667 148.168 4.38 148.435 4.38C148.701 4.38 148.935 4.46667 149.135 4.64C149.335 4.8 149.435 5.04667 149.435 5.38C149.435 6.02 149.421 7.36667 149.395 9.42C149.355 11.4733 149.348 13 149.375 14C149.375 14.32 149.275 14.5667 149.075 14.74C148.875 14.9133 148.641 15 148.375 15C148.108 15.0133 147.875 14.94 147.675 14.78C147.475 14.62 147.375 14.3733 147.375 14.04ZM149.235 0.919999C149.515 1.2 149.635 1.49333 149.595 1.8C149.568 2.10667 149.441 2.37333 149.215 2.6C149.001 2.81333 148.741 2.94 148.435 2.98C148.128 3.00667 147.835 2.88 147.555 2.6C147.275 2.32 147.155 2.02667 147.195 1.72C147.235 1.41333 147.368 1.14667 147.595 0.919999C147.821 0.693333 148.088 0.566666 148.395 0.539999C148.701 0.5 148.981 0.626666 149.235 0.919999ZM155.362 14.94C155.282 14.9133 155.122 14.8733 154.882 14.82C154.629 14.7667 154.416 14.7067 154.242 14.64C153.882 14.5067 153.549 14.32 153.242 14.08C152.949 13.84 152.702 13.4933 152.502 13.04C152.356 12.68 152.262 11.9733 152.222 10.92C152.182 10.1067 152.176 9.06 152.202 7.78C152.202 7.54 152.209 7.14 152.222 6.58L152.062 6.6C151.729 6.62667 151.469 6.55333 151.282 6.38C151.096 6.19333 150.989 5.97333 150.962 5.72C150.936 5.46667 150.989 5.23333 151.122 5.02C151.269 4.79333 151.502 4.65333 151.822 4.6L152.282 4.56C152.296 3.85333 152.316 3.14 152.342 2.42C152.356 2.08667 152.469 1.84667 152.682 1.7C152.896 1.54 153.129 1.46667 153.382 1.48C153.649 1.48 153.876 1.56667 154.062 1.74C154.262 1.91333 154.356 2.16667 154.342 2.5L154.282 4.4L154.942 4.36C155.276 4.34667 155.529 4.43333 155.702 4.62C155.889 4.80667 155.989 5.03333 156.002 5.3C156.029 5.55333 155.969 5.78667 155.822 6C155.676 6.21333 155.436 6.33333 155.102 6.36L154.222 6.4C154.209 7.04 154.202 7.50667 154.202 7.8C154.176 9.05333 154.182 10.0733 154.222 10.86C154.236 11.34 154.262 11.7267 154.302 12.02C154.342 12.3133 154.449 12.5133 154.622 12.62C154.649 12.6467 154.749 12.6867 154.922 12.74C155.109 12.7933 155.309 12.8533 155.522 12.92C155.736 12.9733 155.896 13.02 156.002 13.06C156.309 13.1533 156.509 13.3267 156.602 13.58C156.696 13.82 156.702 14.0667 156.622 14.32C156.542 14.56 156.389 14.7533 156.162 14.9C155.949 15.0333 155.682 15.0467 155.362 14.94ZM158.195 14.04C158.168 13.04 158.175 11.5067 158.215 9.44C158.242 7.37333 158.255 6.02 158.255 5.38C158.255 5.04667 158.355 4.8 158.555 4.64C158.755 4.46667 158.988 4.38 159.255 4.38C159.522 4.38 159.755 4.46667 159.955 4.64C160.155 4.8 160.255 5.04667 160.255 5.38C160.255 6.02 160.242 7.36667 160.215 9.42C160.175 11.4733 160.168 13 160.195 14C160.195 14.32 160.095 14.5667 159.895 14.74C159.695 14.9133 159.462 15 159.195 15C158.928 15.0133 158.695 14.94 158.495 14.78C158.295 14.62 158.195 14.3733 158.195 14.04ZM160.055 0.919999C160.335 1.2 160.455 1.49333 160.415 1.8C160.388 2.10667 160.262 2.37333 160.035 2.6C159.822 2.81333 159.562 2.94 159.255 2.98C158.948 3.00667 158.655 2.88 158.375 2.6C158.095 2.32 157.975 2.02667 158.015 1.72C158.055 1.41333 158.188 1.14667 158.415 0.919999C158.642 0.693333 158.908 0.566666 159.215 0.539999C159.522 0.5 159.802 0.626666 160.055 0.919999ZM163.923 15C163.656 15 163.423 14.9133 163.223 14.74C163.023 14.5533 162.923 14.3067 162.923 14C162.923 12.9467 162.916 12.04 162.903 11.28C162.876 9.01333 162.863 7.04667 162.863 5.38C162.863 5.07333 162.956 4.83333 163.143 4.66C163.329 4.48667 163.556 4.4 163.823 4.4C164.103 4.4 164.343 4.49333 164.543 4.68C164.756 4.85333 164.863 5.1 164.863 5.42V6.04C165.689 4.96 166.776 4.42 168.123 4.42C169.283 4.42 170.169 4.82667 170.783 5.64C171.409 6.45333 171.723 7.54667 171.723 8.92C171.723 10.44 171.703 11.44 171.662 11.92L171.562 13.26L171.503 14.12C171.476 14.3867 171.369 14.6 171.183 14.76C170.996 14.92 170.776 15 170.523 15C170.256 15 170.023 14.9133 169.823 14.74C169.623 14.5533 169.523 14.3067 169.523 14C169.523 13.7867 169.569 13.0467 169.663 11.78C169.729 10.9133 169.763 10.2333 169.763 9.74C169.763 8.60667 169.603 7.77333 169.283 7.24C168.963 6.69333 168.469 6.42 167.803 6.42C167.323 6.42 166.823 6.56667 166.303 6.86C165.796 7.15333 165.316 7.52667 164.863 7.98L164.903 10.82L164.923 14C164.923 14.3067 164.823 14.5533 164.623 14.74C164.423 14.9133 164.189 15 163.923 15ZM178.692 19.1C177.918 19.1667 177.172 19.08 176.452 18.84C175.745 18.6 175.158 18.18 174.692 17.58C174.518 17.3533 174.372 17.0733 174.252 16.74C174.145 16.4067 174.158 16.1133 174.292 15.86C174.438 15.6067 174.638 15.4467 174.892 15.38C175.145 15.3133 175.392 15.3333 175.632 15.44C175.872 15.56 176.038 15.76 176.132 16.04C176.158 16.1467 176.192 16.2867 176.232 16.46C176.272 16.6467 176.418 16.8267 176.672 17C177.272 17.2133 177.932 17.3067 178.652 17.28C179.305 17.2533 179.805 17.1133 180.152 16.86C180.498 16.62 180.718 16.34 180.812 16.02C180.945 15.5667 181.052 14.8467 181.132 13.86C180.625 14.3933 179.858 14.7133 178.832 14.82C177.952 14.86 177.165 14.7333 176.472 14.44C175.765 14.16 175.205 13.7533 174.792 13.22C174.392 12.6867 174.098 12.0933 173.912 11.44C173.725 10.8133 173.658 10.0267 173.712 9.08C173.818 7.61333 174.392 6.43333 175.432 5.54C176.592 4.62 177.992 4.29333 179.632 4.56C180.232 4.76 180.705 5 181.052 5.28C181.065 4.74667 181.318 4.42 181.812 4.3C182.132 4.27333 182.385 4.34667 182.572 4.52C182.772 4.69333 182.892 4.91333 182.932 5.18C183.078 6.80667 183.165 8.79333 183.192 11.14C183.205 12.4733 183.165 13.5867 183.072 14.48C182.965 15.8133 182.652 16.8067 182.132 17.46C181.785 17.9 181.438 18.2267 181.092 18.44C180.758 18.6667 180.398 18.82 180.012 18.9C179.625 18.9933 179.185 19.06 178.692 19.1ZM178.692 12.78C179.185 12.7933 179.565 12.7333 179.832 12.6C180.605 12.36 181.052 11.7267 181.172 10.7C181.238 9.91333 181.205 9.16 181.072 8.44C180.978 7.98667 180.705 7.59333 180.252 7.26C179.985 7.04667 179.645 6.90667 179.232 6.84C178.165 6.65333 177.345 6.81333 176.772 7.32C176.225 7.76 175.912 8.40667 175.832 9.26C175.765 10.38 175.985 11.2533 176.492 11.88C177.012 12.4933 177.745 12.7933 178.692 12.78ZM187.135 13.02C187.415 13.2867 187.541 13.5733 187.515 13.88C187.488 14.1733 187.361 14.4267 187.135 14.64C186.921 14.8533 186.661 14.9733 186.355 15C186.061 15.0267 185.788 14.9067 185.535 14.64C185.255 14.36 185.135 14.0733 185.175 13.78C185.215 13.4867 185.341 13.2333 185.555 13.02C185.768 12.8067 186.021 12.6867 186.315 12.66C186.608 12.6333 186.881 12.7533 187.135 13.02ZM6.66 39.04C4.92667 39.0667 3.69333 39.06 2.96 39.02C2.70667 39.0067 2.48667 38.9133 2.3 38.74C2.11333 38.5533 2.01333 38.3267 2 38.06C1.98667 37.9933 1.98 37.9333 1.98 37.88C1.96667 37.1067 1.93333 35.3133 1.88 32.5C1.82667 29.6733 1.8 27.3667 1.8 25.58C1.8 25.2467 1.9 25 2.1 24.84C2.3 24.6667 2.53333 24.58 2.8 24.58C3.06667 24.58 3.3 24.6667 3.5 24.84C3.7 25 3.8 25.2467 3.8 25.58C3.8 26.9267 3.81333 28.22 3.84 29.46C3.84 30.26 3.85333 31.1333 3.88 32.08C3.90667 33.0133 3.92667 33.92 3.94 34.8C3.95333 35.68 3.96 36.4267 3.96 37.04C4.65333 37.0533 5.72 37.0467 7.16 37.02C8.58667 36.9933 9.67333 36.9867 10.42 37C10.7533 37 11 37.1 11.16 37.3C11.32 37.5 11.3933 37.7333 11.38 38C11.38 38.2667 11.2933 38.5 11.12 38.7C10.9467 38.9 10.7 39 10.38 39C9.66 38.9867 8.42 39 6.66 39.04ZM17.1384 39.1C16.1518 39.0333 15.2918 38.8333 14.5584 38.5C13.8251 38.1667 13.2651 37.7467 12.8784 37.24C12.4918 36.7333 12.2118 36.2667 12.0384 35.84C11.8651 35.4133 11.7584 34.9933 11.7184 34.58C11.6784 34.1533 11.6984 33.6067 11.7784 32.94C11.8851 32.3267 12.0984 31.74 12.4184 31.18C12.7518 30.62 13.1718 30.1333 13.6784 29.72C14.1984 29.2933 14.7918 28.98 15.4584 28.78C16.1384 28.5667 16.8651 28.5067 17.6384 28.6C18.4118 28.6933 19.0718 28.9067 19.6184 29.24C20.1651 29.56 20.6318 29.9733 21.0184 30.48C21.3518 30.9067 21.5584 31.2267 21.6384 31.44C21.7051 31.6533 21.7718 31.8533 21.8384 32.04C21.8918 32.24 21.9518 32.4667 22.0184 32.72C22.0984 32.9733 22.1451 33.2067 22.1584 33.42C22.1851 33.9667 21.9784 34.3667 21.5384 34.62C21.3651 34.6867 21.1784 34.72 20.9784 34.72L17.5584 34.78C15.1584 34.7933 13.9584 34.82 13.9584 34.86H13.8984C14.2584 36.2467 15.3784 37.0067 17.2584 37.14C17.7784 37.1667 18.2118 37.14 18.5584 37.06C18.9451 36.9533 19.2251 36.86 19.3984 36.78C19.5718 36.6867 19.7851 36.5667 20.0384 36.42C20.3451 36.3133 20.6051 36.32 20.8184 36.44C21.0451 36.5467 21.1984 36.72 21.2784 36.96C21.3718 37.2 21.3784 37.4467 21.2984 37.7C21.2184 37.9533 21.0384 38.16 20.7584 38.32C20.5451 38.44 20.3251 38.54 20.0984 38.62C19.7784 38.7533 19.3851 38.8733 18.9184 38.98C18.4518 39.0733 17.8584 39.1133 17.1384 39.1ZM13.9384 32.9C14.7118 32.86 16.7184 32.82 19.9584 32.78C19.8384 32.38 19.6451 32 19.3784 31.64C18.8451 31.0267 18.1851 30.6733 17.3984 30.58C16.5718 30.4733 15.8451 30.6533 15.2184 31.12C14.5918 31.5733 14.1651 32.1667 13.9384 32.9ZM27.3739 38.94C27.2939 38.9133 27.1339 38.8733 26.8939 38.82C26.6406 38.7667 26.4272 38.7067 26.2539 38.64C25.8939 38.5067 25.5606 38.32 25.2539 38.08C24.9606 37.84 24.7139 37.4933 24.5139 37.04C24.3672 36.68 24.2739 35.9733 24.2339 34.92C24.1939 34.1067 24.1872 33.06 24.2139 31.78C24.2139 31.54 24.2206 31.14 24.2339 30.58L24.0739 30.6C23.7406 30.6267 23.4806 30.5533 23.2939 30.38C23.1072 30.1933 23.0006 29.9733 22.9739 29.72C22.9472 29.4667 23.0006 29.2333 23.1339 29.02C23.2806 28.7933 23.5139 28.6533 23.8339 28.6L24.2939 28.56C24.3072 27.8533 24.3272 27.14 24.3539 26.42C24.3672 26.0867 24.4806 25.8467 24.6939 25.7C24.9072 25.54 25.1406 25.4667 25.3939 25.48C25.6606 25.48 25.8872 25.5667 26.0739 25.74C26.2739 25.9133 26.3672 26.1667 26.3539 26.5L26.2939 28.4L26.9539 28.36C27.2872 28.3467 27.5406 28.4333 27.7139 28.62C27.9006 28.8067 28.0006 29.0333 28.0139 29.3C28.0406 29.5533 27.9806 29.7867 27.8339 30C27.6872 30.2133 27.4472 30.3333 27.1139 30.36L26.2339 30.4C26.2206 31.04 26.2139 31.5067 26.2139 31.8C26.1872 33.0533 26.1939 34.0733 26.2339 34.86C26.2472 35.34 26.2739 35.7267 26.3139 36.02C26.3539 36.3133 26.4606 36.5133 26.6339 36.62C26.6606 36.6467 26.7606 36.6867 26.9339 36.74C27.1206 36.7933 27.3206 36.8533 27.5339 36.92C27.7472 36.9733 27.9072 37.02 28.0139 37.06C28.3206 37.1533 28.5206 37.3267 28.6139 37.58C28.7072 37.82 28.7139 38.0667 28.6339 38.32C28.5539 38.56 28.4006 38.7533 28.1739 38.9C27.9606 39.0333 27.6939 39.0467 27.3739 38.94ZM29.8067 28.28C29.5801 28.1733 29.4201 28 29.3267 27.76C29.2467 27.52 29.2601 27.28 29.3667 27.04C29.7934 26.0133 30.2467 24.8867 30.7267 23.66C30.8201 23.4333 30.9801 23.2733 31.2067 23.18C31.4467 23.0733 31.6801 23.0667 31.9067 23.16C32.1334 23.24 32.3001 23.4 32.4067 23.64C32.5134 23.88 32.5201 24.1067 32.4267 24.32L31.0067 27.8C30.9134 28.0133 30.7467 28.1733 30.5067 28.28C30.2667 28.3733 30.0334 28.3733 29.8067 28.28ZM36.0181 39C35.0315 38.8267 34.3181 38.4267 33.8781 37.8C33.6648 37.52 33.5115 37.1467 33.4181 36.68L33.3381 36.24C33.3115 36.1067 33.2848 36 33.2581 35.92C33.1648 35.6267 33.1915 35.38 33.3381 35.18C33.4848 34.9667 33.6848 34.82 33.9381 34.74C34.1915 34.66 34.4381 34.6667 34.6781 34.76C34.9181 34.8533 35.0848 35.06 35.1781 35.38C35.2181 35.5267 35.2581 35.6933 35.2981 35.88C35.3115 35.9467 35.3248 36.0067 35.3381 36.06C35.3381 36.1267 35.3581 36.2333 35.3981 36.38C35.4381 36.5533 35.5315 36.7 35.6781 36.82C35.8381 36.9667 36.0781 37.06 36.3981 37.1C36.9315 37.2067 37.5048 37.1933 38.1181 37.06C38.7181 36.9267 39.1848 36.7333 39.5181 36.48C39.7581 36.2667 39.8581 36.0467 39.8181 35.82C39.7781 35.4467 39.5448 35.1667 39.1181 34.98C38.8515 34.86 38.1581 34.7 37.0381 34.5C35.8781 34.2733 35.0581 33.98 34.5781 33.62C33.6981 32.9667 33.4115 31.9933 33.7181 30.7C33.9048 29.9533 34.2848 29.4067 34.8581 29.06C35.4448 28.7 36.0915 28.5 36.7981 28.46C37.3981 28.4333 38.0048 28.5067 38.6181 28.68C39.2448 28.84 39.7781 29.0667 40.2181 29.36C40.2448 29.3733 40.3181 29.44 40.4381 29.56C40.5581 29.68 40.6915 29.8133 40.8381 29.96C40.9981 30.0933 41.1315 30.22 41.2381 30.34C41.3581 30.4467 41.4181 30.5 41.4181 30.5C41.6581 30.74 41.7648 30.9867 41.7381 31.24C41.7115 31.48 41.6048 31.6933 41.4181 31.88C41.2315 32.0533 41.0115 32.1533 40.7581 32.18C40.5048 32.1933 40.2581 32.0933 40.0181 31.88C39.8848 31.76 39.7515 31.6333 39.6181 31.5L39.3381 31.16C39.2581 31.0933 39.1648 31.0267 39.0581 30.96C38.8048 30.8 38.4781 30.6667 38.0781 30.56C37.6781 30.44 37.2848 30.3867 36.8981 30.4C36.1915 30.44 35.7848 30.6867 35.6781 31.14C35.5581 31.62 35.5981 31.9333 35.7981 32.08C36.0381 32.2533 36.5781 32.4267 37.4181 32.6C38.6581 32.8133 39.5048 33.02 39.9581 33.22C41.0515 33.7133 41.6715 34.5067 41.8181 35.6C41.9381 36.4933 41.6048 37.2667 40.8181 37.92C40.2181 38.4133 39.4581 38.7533 38.5381 38.94C37.6581 39.14 36.8181 39.16 36.0181 39ZM53.7111 43.1C52.9378 43.1667 52.1911 43.08 51.4711 42.84C50.7644 42.6 50.1778 42.18 49.7111 41.58C49.5378 41.3533 49.3911 41.0733 49.2711 40.74C49.1644 40.4067 49.1778 40.1133 49.3111 39.86C49.4578 39.6067 49.6578 39.4467 49.9111 39.38C50.1644 39.3133 50.4111 39.3333 50.6511 39.44C50.8911 39.56 51.0578 39.76 51.1511 40.04C51.1778 40.1467 51.2111 40.2867 51.2511 40.46C51.2911 40.6467 51.4378 40.8267 51.6911 41C52.2911 41.2133 52.9511 41.3067 53.6711 41.28C54.3244 41.2533 54.8244 41.1133 55.1711 40.86C55.5178 40.62 55.7378 40.34 55.8311 40.02C55.9644 39.5667 56.0711 38.8467 56.1511 37.86C55.6444 38.3933 54.8778 38.7133 53.8511 38.82C52.9711 38.86 52.1844 38.7333 51.4911 38.44C50.7844 38.16 50.2244 37.7533 49.8111 37.22C49.4111 36.6867 49.1178 36.0933 48.9311 35.44C48.7444 34.8133 48.6778 34.0267 48.7311 33.08C48.8378 31.6133 49.4111 30.4333 50.4511 29.54C51.6111 28.62 53.0111 28.2933 54.6511 28.56C55.2511 28.76 55.7244 29 56.0711 29.28C56.0844 28.7467 56.3378 28.42 56.8311 28.3C57.1511 28.2733 57.4044 28.3467 57.5911 28.52C57.7911 28.6933 57.9111 28.9133 57.9511 29.18C58.0978 30.8067 58.1844 32.7933 58.2111 35.14C58.2244 36.4733 58.1844 37.5867 58.0911 38.48C57.9844 39.8133 57.6711 40.8067 57.1511 41.46C56.8044 41.9 56.4578 42.2267 56.1111 42.44C55.7778 42.6667 55.4178 42.82 55.0311 42.9C54.6444 42.9933 54.2044 43.06 53.7111 43.1ZM53.7111 36.78C54.2044 36.7933 54.5844 36.7333 54.8511 36.6C55.6244 36.36 56.0711 35.7267 56.1911 34.7C56.2578 33.9133 56.2244 33.16 56.0911 32.44C55.9978 31.9867 55.7244 31.5933 55.2711 31.26C55.0044 31.0467 54.6644 30.9067 54.2511 30.84C53.1844 30.6533 52.3644 30.8133 51.7911 31.32C51.2444 31.76 50.9311 32.4067 50.8511 33.26C50.7844 34.38 51.0044 35.2533 51.5111 35.88C52.0311 36.4933 52.7644 36.7933 53.7111 36.78ZM66.3131 38.68C65.8331 38.8667 65.2931 38.9733 64.6931 39C63.4531 39.0533 62.4265 38.7267 61.6131 38.02C60.9198 37.4467 60.4731 36.7333 60.2731 35.88C60.0731 35.0267 60.0665 34.26 60.2531 33.58C60.4398 32.9 60.7265 32.2333 61.1131 31.58C61.6065 30.7267 62.1931 30.02 62.8731 29.46C63.5665 28.9 64.3198 28.5533 65.1331 28.42C65.9598 28.2867 66.8331 28.4467 67.7531 28.9C67.8598 28.9533 67.9731 29.0333 68.0931 29.14C68.2265 29.2467 68.3398 29.34 68.4331 29.42L68.6931 29.68C68.7731 29.76 68.8131 29.8067 68.8131 29.82C69.0265 30.0067 69.1398 30.2467 69.1531 30.54C69.3265 31.34 69.4398 32.18 69.4931 33.06C69.5198 33.5 69.5331 34.0267 69.5331 34.64C69.5331 35.24 69.5331 35.8467 69.5331 36.46C69.5465 37.06 69.5598 37.5733 69.5731 38C69.5865 38.32 69.4931 38.5667 69.2931 38.74C69.1065 38.9133 68.8798 39 68.6131 39C68.3598 39.0133 68.1265 38.9467 67.9131 38.8C67.6998 38.64 67.5865 38.4 67.5731 38.08V37.78C67.1731 38.1933 66.7531 38.4933 66.3131 38.68ZM65.4131 36.88C65.6531 36.8133 65.9798 36.6733 66.3931 36.46C66.8065 36.2467 67.1598 35.92 67.4531 35.48C67.4798 35.4533 67.5131 35.4267 67.5531 35.4C67.5531 33.6 67.4398 32.1533 67.2131 31.06C67.0931 30.9 66.9531 30.7667 66.7931 30.66C66.1531 30.3133 65.4798 30.3067 64.7731 30.64C64.0665 30.96 63.4465 31.5667 62.9131 32.46C61.8598 34.2467 61.8531 35.5933 62.8931 36.5C63.1998 36.7533 63.5798 36.9133 64.0331 36.98C64.4865 37.0467 64.9465 37.0133 65.4131 36.88ZM75.4013 38.94C75.3213 38.9133 75.1613 38.8733 74.9213 38.82C74.6679 38.7667 74.4546 38.7067 74.2813 38.64C73.9213 38.5067 73.5879 38.32 73.2812 38.08C72.9879 37.84 72.7413 37.4933 72.5413 37.04C72.3946 36.68 72.3013 35.9733 72.2613 34.92C72.2213 34.1067 72.2146 33.06 72.2413 31.78C72.2413 31.54 72.2479 31.14 72.2613 30.58L72.1012 30.6C71.7679 30.6267 71.5079 30.5533 71.3213 30.38C71.1346 30.1933 71.0279 29.9733 71.0013 29.72C70.9746 29.4667 71.0279 29.2333 71.1613 29.02C71.3079 28.7933 71.5413 28.6533 71.8613 28.6L72.3213 28.56C72.3346 27.8533 72.3546 27.14 72.3813 26.42C72.3946 26.0867 72.5079 25.8467 72.7213 25.7C72.9346 25.54 73.1679 25.4667 73.4212 25.48C73.6879 25.48 73.9146 25.5667 74.1013 25.74C74.3013 25.9133 74.3946 26.1667 74.3813 26.5L74.3213 28.4L74.9813 28.36C75.3146 28.3467 75.5679 28.4333 75.7413 28.62C75.9279 28.8067 76.0279 29.0333 76.0413 29.3C76.0679 29.5533 76.0079 29.7867 75.8613 30C75.7146 30.2133 75.4746 30.3333 75.1413 30.36L74.2613 30.4C74.2479 31.04 74.2413 31.5067 74.2413 31.8C74.2146 33.0533 74.2213 34.0733 74.2613 34.86C74.2746 35.34 74.3013 35.7267 74.3413 36.02C74.3813 36.3133 74.4879 36.5133 74.6613 36.62C74.6879 36.6467 74.7879 36.6867 74.9613 36.74C75.1479 36.7933 75.3479 36.8533 75.5613 36.92C75.7746 36.9733 75.9346 37.02 76.0413 37.06C76.3479 37.1533 76.5479 37.3267 76.6413 37.58C76.7346 37.82 76.7413 38.0667 76.6612 38.32C76.5813 38.56 76.4279 38.7533 76.2013 38.9C75.9879 39.0333 75.7213 39.0467 75.4013 38.94ZM86.7141 38.04C86.7007 38.3733 86.5874 38.62 86.3741 38.78C86.1741 38.9267 85.9407 39 85.6741 39C85.4207 38.9867 85.1941 38.9 84.9941 38.74C84.8074 38.5667 84.7141 38.32 84.7141 38C84.7141 37.9867 84.7541 37.36 84.8341 36.12C84.9141 34.76 84.9274 33.7267 84.8741 33.02C84.7541 31.3533 84.1407 30.48 83.0341 30.4C82.4474 30.36 81.9607 30.4533 81.5741 30.68C81.2007 30.8933 80.8341 31.2733 80.4741 31.82C80.4474 31.86 80.3941 31.9533 80.3141 32.1C80.4074 34.98 80.4541 36.9533 80.4541 38.02C80.4541 38.3533 80.3541 38.6067 80.1541 38.78C79.9541 38.94 79.7207 39.02 79.4541 39.02C79.1874 39.02 78.9541 38.94 78.7541 38.78C78.5541 38.6067 78.4541 38.3533 78.4541 38.02C78.4541 37.4067 78.4007 35.3333 78.2941 31.8C78.2141 29.1467 78.2007 27.04 78.2541 25.48C78.2674 25.16 78.3807 24.92 78.5941 24.76C78.8074 24.6 79.0407 24.5267 79.2941 24.54C79.5607 24.54 79.7874 24.6267 79.9741 24.8C80.1741 24.9733 80.2674 25.2267 80.2541 25.56C80.2407 25.92 80.2341 27.3133 80.2341 29.74C81.0874 28.7533 82.0874 28.3067 83.2341 28.4C85.4474 28.5867 86.6607 30.0733 86.8741 32.86C86.9141 33.6333 86.9274 34.3067 86.9141 34.88C86.8874 35.48 86.8474 36.08 86.7941 36.68C86.7407 37.28 86.7141 37.7333 86.7141 38.04ZM94.2088 39.1C93.2221 39.0333 92.3621 38.8333 91.6288 38.5C90.8954 38.1667 90.3354 37.7467 89.9488 37.24C89.5621 36.7333 89.2821 36.2667 89.1088 35.84C88.9354 35.4133 88.8288 34.9933 88.7888 34.58C88.7488 34.1533 88.7688 33.6067 88.8488 32.94C88.9554 32.3267 89.1688 31.74 89.4888 31.18C89.8221 30.62 90.2421 30.1333 90.7488 29.72C91.2688 29.2933 91.8621 28.98 92.5288 28.78C93.2088 28.5667 93.9354 28.5067 94.7088 28.6C95.4821 28.6933 96.1421 28.9067 96.6888 29.24C97.2354 29.56 97.7021 29.9733 98.0888 30.48C98.4221 30.9067 98.6288 31.2267 98.7088 31.44C98.7754 31.6533 98.8421 31.8533 98.9088 32.04C98.9621 32.24 99.0221 32.4667 99.0888 32.72C99.1688 32.9733 99.2154 33.2067 99.2288 33.42C99.2554 33.9667 99.0488 34.3667 98.6088 34.62C98.4354 34.6867 98.2488 34.72 98.0488 34.72L94.6288 34.78C92.2288 34.7933 91.0288 34.82 91.0288 34.86H90.9688C91.3288 36.2467 92.4488 37.0067 94.3288 37.14C94.8488 37.1667 95.2821 37.14 95.6288 37.06C96.0154 36.9533 96.2954 36.86 96.4688 36.78C96.6421 36.6867 96.8554 36.5667 97.1088 36.42C97.4154 36.3133 97.6754 36.32 97.8888 36.44C98.1154 36.5467 98.2688 36.72 98.3488 36.96C98.4421 37.2 98.4488 37.4467 98.3688 37.7C98.2888 37.9533 98.1088 38.16 97.8288 38.32C97.6154 38.44 97.3954 38.54 97.1688 38.62C96.8488 38.7533 96.4554 38.8733 95.9888 38.98C95.5221 39.0733 94.9288 39.1133 94.2088 39.1ZM91.0088 32.9C91.7821 32.86 93.7888 32.82 97.0288 32.78C96.9088 32.38 96.7154 32 96.4488 31.64C95.9154 31.0267 95.2554 30.6733 94.4688 30.58C93.6421 30.4733 92.9154 30.6533 92.2888 31.12C91.6621 31.5733 91.2354 32.1667 91.0088 32.9ZM102.184 39C101.918 39 101.684 38.9133 101.484 38.74C101.284 38.5533 101.184 38.3067 101.184 38L101.144 33.92C101.131 33 101.124 31.8533 101.124 30.48V29.3C101.124 28.9933 101.218 28.7533 101.404 28.58C101.591 28.4067 101.818 28.32 102.084 28.32C102.364 28.32 102.604 28.4133 102.804 28.6C103.018 28.7733 103.124 29.02 103.124 29.34V29.94C103.271 29.62 103.544 29.3467 103.944 29.12C104.491 28.7867 105.091 28.62 105.744 28.62C106.238 28.62 106.618 28.7 106.884 28.86C107.151 29.02 107.284 29.3067 107.284 29.72C107.284 29.9867 107.204 30.2133 107.044 30.4C106.884 30.5733 106.651 30.66 106.344 30.66C105.224 30.66 104.451 30.8133 104.024 31.12C103.784 31.28 103.571 31.4733 103.384 31.7C103.211 31.9267 103.124 32.1467 103.124 32.36L103.164 34.86L103.184 38C103.184 38.3067 103.084 38.5533 102.884 38.74C102.684 38.9133 102.451 39 102.184 39ZM112.798 43.02C112.465 43.0467 112.205 42.9667 112.018 42.78C111.832 42.6067 111.732 42.3867 111.718 42.12C111.692 41.8533 111.752 41.6067 111.898 41.38C112.045 41.1667 112.278 41.0467 112.598 41.02C112.785 41.0067 113.025 40.9867 113.318 40.96C113.612 40.9333 113.805 40.8867 113.898 40.82L114.098 40.7C114.418 40.54 114.705 40.0933 114.958 39.36C115.038 39.1333 115.118 38.9733 115.198 38.88C115.105 38.7733 115.032 38.6467 114.978 38.5C114.738 37.4733 114.245 35.9533 113.498 33.94C112.832 32.1667 112.338 30.7467 112.018 29.68C111.925 29.36 111.952 29.0933 112.098 28.88C112.245 28.6667 112.445 28.5267 112.698 28.46C112.952 28.38 113.198 28.3933 113.438 28.5C113.678 28.5933 113.845 28.8 113.938 29.12C114.192 29.9733 114.672 31.3467 115.378 33.24L116.138 35.32C117.072 32.4667 117.925 30.3267 118.698 28.9C118.858 28.6067 119.065 28.44 119.318 28.4C119.585 28.3467 119.832 28.3867 120.058 28.52C120.285 28.64 120.445 28.82 120.538 29.06C120.645 29.3 120.618 29.5667 120.458 29.86C120.112 30.5 119.752 31.28 119.378 32.2C119.125 32.8133 118.912 33.3533 118.738 33.82C118.578 34.2733 118.412 34.7533 118.238 35.26C118.078 35.7667 117.885 36.3933 117.658 37.14C117.578 37.4067 117.525 37.5933 117.498 37.7C117.432 37.8733 117.338 38.22 117.218 38.74C117.072 39.2333 116.952 39.6333 116.858 39.94C116.485 40.98 115.978 41.7533 115.338 42.26C115.152 42.4067 114.965 42.5267 114.778 42.62C114.592 42.7267 114.398 42.8 114.198 42.84C114.118 42.8667 113.972 42.8867 113.758 42.9C113.545 42.9267 113.332 42.9533 113.118 42.98C112.918 43.0067 112.812 43.02 112.798 43.02ZM126.974 38.86C125.214 39.2867 123.808 38.9333 122.754 37.8C121.914 36.9333 121.394 35.82 121.194 34.46C121.048 33.3933 121.174 32.38 121.574 31.42C122.054 30.1933 122.814 29.2867 123.854 28.7C124.068 28.58 124.334 28.4933 124.654 28.44C124.668 28.44 124.761 28.4333 124.934 28.42C125.001 28.4067 125.054 28.3933 125.094 28.38C125.294 28.34 125.494 28.36 125.694 28.44C125.801 28.44 125.954 28.4467 126.154 28.46C126.368 28.4733 126.574 28.4933 126.774 28.52C126.974 28.5333 127.128 28.5533 127.234 28.58L127.614 28.72C127.774 28.7733 127.928 28.84 128.074 28.92C128.221 29 128.381 29.0933 128.554 29.2C128.994 29.4933 129.361 29.86 129.654 30.3C129.948 30.7267 130.181 31.1867 130.354 31.68C130.528 32.16 130.634 32.6267 130.674 33.08C130.714 33.5333 130.694 33.92 130.614 34.24C130.494 34.96 130.281 35.6267 129.974 36.24C129.668 36.8667 129.241 37.42 128.694 37.9C128.161 38.38 127.588 38.7 126.974 38.86ZM126.354 36.78C126.861 36.7133 127.288 36.5133 127.634 36.18C127.981 35.8333 128.241 35.42 128.414 34.94C128.588 34.4467 128.668 33.94 128.654 33.42C128.641 32.8867 128.534 32.3933 128.334 31.94C128.134 31.4867 127.834 31.1333 127.434 30.88C127.288 30.7733 127.168 30.7 127.074 30.66C126.981 30.6067 126.874 30.56 126.754 30.52C126.674 30.5067 126.534 30.4933 126.334 30.48C126.148 30.4667 125.954 30.4533 125.754 30.44C125.554 30.4267 125.414 30.42 125.334 30.42C125.294 30.42 125.248 30.4133 125.194 30.4C125.048 30.4133 124.968 30.42 124.954 30.42L124.814 30.46C124.428 30.6733 124.094 30.98 123.814 31.38C123.548 31.7667 123.354 32.2067 123.234 32.7C123.114 33.18 123.101 33.6667 123.194 34.16C123.341 35.0667 123.668 35.7533 124.174 36.22C124.721 36.7267 125.448 36.9133 126.354 36.78ZM140.086 39C139.846 38.9867 139.633 38.8933 139.446 38.72C139.273 38.5467 139.173 38.2533 139.146 37.84C138.533 38.3733 137.9 38.72 137.246 38.88C136.313 39.12 135.46 38.9667 134.686 38.42C133.94 37.8867 133.353 37.0067 132.926 35.78C132.78 35.3533 132.666 34.9133 132.586 34.46C132.52 34.0867 132.48 33.66 132.466 33.18C132.466 32.7 132.48 32.2133 132.506 31.72C132.533 31.2133 132.566 30.7467 132.606 30.32C132.646 29.8933 132.68 29.5467 132.706 29.28C132.733 28.96 132.853 28.7267 133.066 28.58C133.28 28.4333 133.513 28.3667 133.766 28.38C134.033 28.3933 134.26 28.4933 134.446 28.68C134.633 28.8533 134.72 29.1067 134.706 29.44C134.693 29.64 134.66 30.02 134.606 30.58C134.54 31.14 134.506 31.5533 134.506 31.82C134.48 32.4467 134.473 33.02 134.486 33.54C134.513 34.0467 134.62 34.58 134.806 35.14C135.1 35.9533 135.473 36.5067 135.926 36.8C136.113 36.92 136.42 36.98 136.846 36.98C137.233 36.9133 137.566 36.8267 137.846 36.72C138.126 36.6 138.373 36.4 138.586 36.12C138.813 35.84 139.026 35.4133 139.226 34.84C139.253 33.0667 139.233 31.2667 139.166 29.44C139.153 29.1067 139.24 28.8533 139.426 28.68C139.626 28.5067 139.853 28.42 140.106 28.42C140.373 28.4067 140.613 28.48 140.826 28.64C141.04 28.8 141.153 29.04 141.166 29.36C141.273 32.5067 141.266 35.4067 141.146 38.06C141.133 38.3267 141.02 38.5533 140.806 38.74C140.606 38.9267 140.366 39.0133 140.086 39ZM144.899 39C144.632 39 144.399 38.9133 144.199 38.74C143.999 38.5533 143.899 38.3067 143.899 38L143.859 33.92C143.846 33 143.839 31.8533 143.839 30.48V29.3C143.839 28.9933 143.932 28.7533 144.119 28.58C144.306 28.4067 144.532 28.32 144.799 28.32C145.079 28.32 145.319 28.4133 145.519 28.6C145.732 28.7733 145.839 29.02 145.839 29.34V29.94C145.986 29.62 146.259 29.3467 146.659 29.12C147.206 28.7867 147.806 28.62 148.459 28.62C148.952 28.62 149.332 28.7 149.599 28.86C149.866 29.02 149.999 29.3067 149.999 29.72C149.999 29.9867 149.919 30.2133 149.759 30.4C149.599 30.5733 149.366 30.66 149.059 30.66C147.939 30.66 147.166 30.8133 146.739 31.12C146.499 31.28 146.286 31.4733 146.099 31.7C145.926 31.9267 145.839 32.1467 145.839 32.36L145.879 34.86L145.899 38C145.899 38.3067 145.799 38.5533 145.599 38.74C145.399 38.9133 145.166 39 144.899 39ZM2.66 63C2.42 63 2.21333 62.9267 2.04 62.78C1.86667 62.6333 1.76667 62.42 1.74 62.14C1.52667 60.3933 1.40667 58.3933 1.38 56.14L1.36 54.64H1.2C0.866667 54.64 0.606667 54.5467 0.42 54.36C0.246667 54.16 0.16 53.9133 0.16 53.62C0.16 53.3533 0.24 53.12 0.4 52.92C0.56 52.7067 0.786667 52.6 1.08 52.6H1.44C1.44 52.08 1.49333 51.5667 1.6 51.06C1.70667 50.54 1.86 50.0867 2.06 49.7C2.26 49.3133 2.51333 49.0333 2.82 48.86C3.27333 48.62 3.7 48.5 4.1 48.5C4.66 48.5 5.10667 48.6 5.44 48.8C5.77333 49 5.94 49.2867 5.94 49.66C5.94 49.9667 5.86667 50.2133 5.72 50.4C5.57333 50.5867 5.36667 50.68 5.1 50.68C5.02 50.68 4.94 50.6733 4.86 50.66C4.79333 50.6467 4.72667 50.6333 4.66 50.62C4.47333 50.5667 4.28 50.54 4.08 50.54C3.85333 50.54 3.7 50.72 3.62 51.08C3.54 51.4533 3.48 51.96 3.44 52.6H4.3C4.60667 52.6 4.84667 52.7 5.02 52.9C5.20667 53.1 5.3 53.3333 5.3 53.6C5.3 53.8667 5.20667 54.1 5.02 54.3C4.84667 54.5 4.60667 54.6 4.3 54.6H3.36L3.38 56.12C3.5 59.08 3.60667 60.9667 3.7 61.78C3.74 62.22 3.65333 62.5333 3.44 62.72C3.22667 62.9067 2.96667 63 2.66 63ZM12.2702 62.68C11.7902 62.8667 11.2502 62.9733 10.6502 63C9.41016 63.0533 8.38349 62.7267 7.57016 62.02C6.87682 61.4467 6.43016 60.7333 6.23016 59.88C6.03016 59.0267 6.02349 58.26 6.21016 57.58C6.39682 56.9 6.68349 56.2333 7.07016 55.58C7.56349 54.7267 8.15016 54.02 8.83016 53.46C9.52349 52.9 10.2768 52.5533 11.0902 52.42C11.9168 52.2867 12.7902 52.4467 13.7102 52.9C13.8168 52.9533 13.9302 53.0333 14.0502 53.14C14.1835 53.2467 14.2968 53.34 14.3902 53.42L14.6502 53.68C14.7302 53.76 14.7702 53.8067 14.7702 53.82C14.9835 54.0067 15.0968 54.2467 15.1102 54.54C15.2835 55.34 15.3968 56.18 15.4502 57.06C15.4768 57.5 15.4902 58.0267 15.4902 58.64C15.4902 59.24 15.4902 59.8467 15.4902 60.46C15.5035 61.06 15.5168 61.5733 15.5302 62C15.5435 62.32 15.4502 62.5667 15.2502 62.74C15.0635 62.9133 14.8368 63 14.5702 63C14.3168 63.0133 14.0835 62.9467 13.8702 62.8C13.6568 62.64 13.5435 62.4 13.5302 62.08V61.78C13.1302 62.1933 12.7102 62.4933 12.2702 62.68ZM11.3702 60.88C11.6102 60.8133 11.9368 60.6733 12.3502 60.46C12.7635 60.2467 13.1168 59.92 13.4102 59.48C13.4368 59.4533 13.4702 59.4267 13.5102 59.4C13.5102 57.6 13.3968 56.1533 13.1702 55.06C13.0502 54.9 12.9102 54.7667 12.7502 54.66C12.1102 54.3133 11.4368 54.3067 10.7302 54.64C10.0235 54.96 9.40349 55.5667 8.87016 56.46C7.81682 58.2467 7.81016 59.5933 8.85016 60.5C9.15682 60.7533 9.53682 60.9133 9.99016 60.98C10.4435 61.0467 10.9035 61.0133 11.3702 60.88ZM21.2783 63C21.0249 63.0133 20.7983 62.9467 20.5983 62.8C20.5316 62.7467 20.4716 62.6867 20.4183 62.62C20.3649 62.5667 20.3183 62.5067 20.2783 62.44L20.1183 62.16C20.0383 62 19.9383 61.78 19.8183 61.5L19.4183 60.6C19.2049 60.08 18.7449 58.8867 18.0383 57.02C17.3183 55.1667 16.8916 54.0733 16.7583 53.74C16.6516 53.4333 16.6583 53.1667 16.7783 52.94C16.9116 52.7133 17.0983 52.5533 17.3383 52.46C17.5783 52.3667 17.8183 52.36 18.0583 52.44C18.3116 52.52 18.5049 52.7133 18.6383 53.02C18.6783 53.14 18.7783 53.42 18.9383 53.86C19.1116 54.2867 19.3116 54.8 19.5383 55.4C19.7649 56 19.9983 56.6067 20.2383 57.22C20.4783 57.82 20.6849 58.36 20.8583 58.84C21.0449 59.32 21.1783 59.6533 21.2583 59.84L21.3383 60.02C21.3783 59.94 21.4316 59.82 21.4983 59.66C21.5783 59.4867 21.6249 59.3733 21.6383 59.32L21.6783 59.24C21.7716 59.0267 22.1316 58.12 22.7583 56.52C23.3716 54.92 23.8983 53.72 24.3383 52.92C24.4983 52.6267 24.7049 52.46 24.9583 52.42C25.2249 52.3667 25.4716 52.4067 25.6983 52.54C25.9249 52.66 26.0849 52.84 26.1783 53.08C26.2849 53.32 26.2583 53.5867 26.0983 53.88C25.6716 54.6533 25.1849 55.76 24.6383 57.2C24.0783 58.64 23.7049 59.5867 23.5183 60.04L22.9583 61.26C22.7716 61.6333 22.5983 61.94 22.4383 62.18C22.3183 62.3533 22.1983 62.4933 22.0783 62.6C21.8383 62.84 21.5716 62.9733 21.2783 63ZM32.8728 62.86C31.1128 63.2867 29.7061 62.9333 28.6528 61.8C27.8128 60.9333 27.2928 59.82 27.0928 58.46C26.9461 57.3933 27.0728 56.38 27.4728 55.42C27.9528 54.1933 28.7128 53.2867 29.7528 52.7C29.9661 52.58 30.2328 52.4933 30.5528 52.44C30.5661 52.44 30.6595 52.4333 30.8328 52.42C30.8995 52.4067 30.9528 52.3933 30.9928 52.38C31.1928 52.34 31.3928 52.36 31.5928 52.44C31.6995 52.44 31.8528 52.4467 32.0528 52.46C32.2661 52.4733 32.4728 52.4933 32.6728 52.52C32.8728 52.5333 33.0261 52.5533 33.1328 52.58L33.5128 52.72C33.6728 52.7733 33.8261 52.84 33.9728 52.92C34.1195 53 34.2795 53.0933 34.4528 53.2C34.8928 53.4933 35.2595 53.86 35.5528 54.3C35.8461 54.7267 36.0795 55.1867 36.2528 55.68C36.4261 56.16 36.5328 56.6267 36.5728 57.08C36.6128 57.5333 36.5928 57.92 36.5128 58.24C36.3928 58.96 36.1795 59.6267 35.8728 60.24C35.5661 60.8667 35.1395 61.42 34.5928 61.9C34.0595 62.38 33.4861 62.7 32.8728 62.86ZM32.2528 60.78C32.7595 60.7133 33.1861 60.5133 33.5328 60.18C33.8795 59.8333 34.1395 59.42 34.3128 58.94C34.4861 58.4467 34.5661 57.94 34.5528 57.42C34.5395 56.8867 34.4328 56.3933 34.2328 55.94C34.0328 55.4867 33.7328 55.1333 33.3328 54.88C33.1861 54.7733 33.0661 54.7 32.9728 54.66C32.8795 54.6067 32.7728 54.56 32.6528 54.52C32.5728 54.5067 32.4328 54.4933 32.2328 54.48C32.0461 54.4667 31.8528 54.4533 31.6528 54.44C31.4528 54.4267 31.3128 54.42 31.2328 54.42C31.1928 54.42 31.1461 54.4133 31.0928 54.4C30.9461 54.4133 30.8661 54.42 30.8528 54.42L30.7128 54.46C30.3261 54.6733 29.9928 54.98 29.7128 55.38C29.4461 55.7667 29.2528 56.2067 29.1328 56.7C29.0128 57.18 28.9995 57.6667 29.0928 58.16C29.2395 59.0667 29.5661 59.7533 30.0728 60.22C30.6195 60.7267 31.3461 60.9133 32.2528 60.78ZM39.86 63C39.5933 63 39.36 62.9133 39.16 62.74C38.96 62.5533 38.86 62.3067 38.86 62L38.82 57.92C38.8067 57 38.8 55.8533 38.8 54.48V53.3C38.8 52.9933 38.8933 52.7533 39.08 52.58C39.2667 52.4067 39.4933 52.32 39.76 52.32C40.04 52.32 40.28 52.4133 40.48 52.6C40.6933 52.7733 40.8 53.02 40.8 53.34V53.94C40.9467 53.62 41.22 53.3467 41.62 53.12C42.1667 52.7867 42.7667 52.62 43.42 52.62C43.9133 52.62 44.2933 52.7 44.56 52.86C44.8267 53.02 44.96 53.3067 44.96 53.72C44.96 53.9867 44.88 54.2133 44.72 54.4C44.56 54.5733 44.3267 54.66 44.02 54.66C42.9 54.66 42.1267 54.8133 41.7 55.12C41.46 55.28 41.2467 55.4733 41.06 55.7C40.8867 55.9267 40.8 56.1467 40.8 56.36L40.84 58.86L40.86 62C40.86 62.3067 40.76 62.5533 40.56 62.74C40.36 62.9133 40.1267 63 39.86 63ZM46.0466 62.04C46.0199 61.04 46.0266 59.5067 46.0666 57.44C46.0932 55.3733 46.1066 54.02 46.1066 53.38C46.1066 53.0467 46.2066 52.8 46.4066 52.64C46.6066 52.4667 46.8399 52.38 47.1066 52.38C47.3732 52.38 47.6066 52.4667 47.8066 52.64C48.0066 52.8 48.1066 53.0467 48.1066 53.38C48.1066 54.02 48.0932 55.3667 48.0666 57.42C48.0266 59.4733 48.0199 61 48.0466 62C48.0466 62.32 47.9466 62.5667 47.7466 62.74C47.5466 62.9133 47.3132 63 47.0466 63C46.7799 63.0133 46.5466 62.94 46.3466 62.78C46.1466 62.62 46.0466 62.3733 46.0466 62.04ZM47.9066 48.92C48.1866 49.2 48.3066 49.4933 48.2666 49.8C48.2399 50.1067 48.1132 50.3733 47.8866 50.6C47.6732 50.8133 47.4132 50.94 47.1066 50.98C46.7999 51.0067 46.5066 50.88 46.2266 50.6C45.9466 50.32 45.8266 50.0267 45.8666 49.72C45.9066 49.4133 46.0399 49.1467 46.2666 48.92C46.4932 48.6933 46.7599 48.5667 47.0666 48.54C47.3732 48.5 47.6532 48.6267 47.9066 48.92ZM54.0341 62.94C53.9541 62.9133 53.7941 62.8733 53.5541 62.82C53.3007 62.7667 53.0874 62.7067 52.9141 62.64C52.5541 62.5067 52.2207 62.32 51.9141 62.08C51.6207 61.84 51.3741 61.4933 51.1741 61.04C51.0274 60.68 50.9341 59.9733 50.8941 58.92C50.8541 58.1067 50.8474 57.06 50.8741 55.78C50.8741 55.54 50.8807 55.14 50.8941 54.58L50.7341 54.6C50.4007 54.6267 50.1407 54.5533 49.9541 54.38C49.7674 54.1933 49.6607 53.9733 49.6341 53.72C49.6074 53.4667 49.6607 53.2333 49.7941 53.02C49.9407 52.7933 50.1741 52.6533 50.4941 52.6L50.9541 52.56C50.9674 51.8533 50.9874 51.14 51.0141 50.42C51.0274 50.0867 51.1407 49.8467 51.3541 49.7C51.5674 49.54 51.8007 49.4667 52.0541 49.48C52.3207 49.48 52.5474 49.5667 52.7341 49.74C52.9341 49.9133 53.0274 50.1667 53.0141 50.5L52.9541 52.4L53.6141 52.36C53.9474 52.3467 54.2007 52.4333 54.3741 52.62C54.5607 52.8067 54.6607 53.0333 54.6741 53.3C54.7007 53.5533 54.6407 53.7867 54.4941 54C54.3474 54.2133 54.1074 54.3333 53.7741 54.36L52.8941 54.4C52.8807 55.04 52.8741 55.5067 52.8741 55.8C52.8474 57.0533 52.8541 58.0733 52.8941 58.86C52.9074 59.34 52.9341 59.7267 52.9741 60.02C53.0141 60.3133 53.1207 60.5133 53.2941 60.62C53.3207 60.6467 53.4207 60.6867 53.5941 60.74C53.7807 60.7933 53.9807 60.8533 54.1941 60.92C54.4074 60.9733 54.5674 61.02 54.6741 61.06C54.9807 61.1533 55.1807 61.3267 55.2741 61.58C55.3674 61.82 55.3741 62.0667 55.2941 62.32C55.2141 62.56 55.0607 62.7533 54.8341 62.9C54.6207 63.0333 54.3541 63.0467 54.0341 62.94ZM61.1814 63.1C60.1947 63.0333 59.3347 62.8333 58.6014 62.5C57.8681 62.1667 57.3081 61.7467 56.9214 61.24C56.5347 60.7333 56.2547 60.2667 56.0814 59.84C55.9081 59.4133 55.8014 58.9933 55.7614 58.58C55.7214 58.1533 55.7414 57.6067 55.8214 56.94C55.9281 56.3267 56.1414 55.74 56.4614 55.18C56.7947 54.62 57.2147 54.1333 57.7214 53.72C58.2414 53.2933 58.8347 52.98 59.5014 52.78C60.1814 52.5667 60.9081 52.5067 61.6814 52.6C62.4547 52.6933 63.1147 52.9067 63.6614 53.24C64.2081 53.56 64.6747 53.9733 65.0614 54.48C65.3947 54.9067 65.6014 55.2267 65.6814 55.44C65.7481 55.6533 65.8147 55.8533 65.8814 56.04C65.9347 56.24 65.9947 56.4667 66.0614 56.72C66.1414 56.9733 66.1881 57.2067 66.2014 57.42C66.2281 57.9667 66.0214 58.3667 65.5814 58.62C65.4081 58.6867 65.2214 58.72 65.0214 58.72L61.6014 58.78C59.2014 58.7933 58.0014 58.82 58.0014 58.86H57.9414C58.3014 60.2467 59.4214 61.0067 61.3014 61.14C61.8214 61.1667 62.2547 61.14 62.6014 61.06C62.9881 60.9533 63.2681 60.86 63.4414 60.78C63.6147 60.6867 63.8281 60.5667 64.0814 60.42C64.3881 60.3133 64.6481 60.32 64.8614 60.44C65.0881 60.5467 65.2414 60.72 65.3214 60.96C65.4147 61.2 65.4214 61.4467 65.3414 61.7C65.2614 61.9533 65.0814 62.16 64.8014 62.32C64.5881 62.44 64.3681 62.54 64.1414 62.62C63.8214 62.7533 63.4281 62.8733 62.9614 62.98C62.4947 63.0733 61.9014 63.1133 61.1814 63.1ZM57.9814 56.9C58.7547 56.86 60.7614 56.82 64.0014 56.78C63.8814 56.38 63.6881 56 63.4214 55.64C62.8881 55.0267 62.2281 54.6733 61.4414 54.58C60.6147 54.4733 59.8881 54.6533 59.2614 55.12C58.6347 55.5733 58.2081 56.1667 57.9814 56.9ZM74.5475 63C74.2808 63 74.0475 62.9133 73.8475 62.74C73.6475 62.5533 73.5475 62.3067 73.5475 62L73.5075 57.92C73.4942 57 73.4875 55.8533 73.4875 54.48V53.3C73.4875 52.9933 73.5808 52.7533 73.7675 52.58C73.9542 52.4067 74.1808 52.32 74.4475 52.32C74.7275 52.32 74.9675 52.4133 75.1675 52.6C75.3808 52.7733 75.4875 53.02 75.4875 53.34V53.94C75.6342 53.62 75.9075 53.3467 76.3075 53.12C76.8542 52.7867 77.4542 52.62 78.1075 52.62C78.6008 52.62 78.9808 52.7 79.2475 52.86C79.5142 53.02 79.6475 53.3067 79.6475 53.72C79.6475 53.9867 79.5675 54.2133 79.4075 54.4C79.2475 54.5733 79.0142 54.66 78.7075 54.66C77.5875 54.66 76.8142 54.8133 76.3875 55.12C76.1475 55.28 75.9342 55.4733 75.7475 55.7C75.5742 55.9267 75.4875 56.1467 75.4875 56.36L75.5275 58.86L75.5475 62C75.5475 62.3067 75.4475 62.5533 75.2475 62.74C75.0475 62.9133 74.8142 63 74.5475 63ZM85.2634 63.1C84.2768 63.0333 83.4168 62.8333 82.6834 62.5C81.9501 62.1667 81.3901 61.7467 81.0034 61.24C80.6168 60.7333 80.3368 60.2667 80.1634 59.84C79.9901 59.4133 79.8834 58.9933 79.8434 58.58C79.8034 58.1533 79.8234 57.6067 79.9034 56.94C80.0101 56.3267 80.2234 55.74 80.5434 55.18C80.8768 54.62 81.2968 54.1333 81.8034 53.72C82.3234 53.2933 82.9168 52.98 83.5834 52.78C84.2634 52.5667 84.9901 52.5067 85.7634 52.6C86.5368 52.6933 87.1968 52.9067 87.7434 53.24C88.2901 53.56 88.7568 53.9733 89.1434 54.48C89.4768 54.9067 89.6834 55.2267 89.7634 55.44C89.8301 55.6533 89.8968 55.8533 89.9634 56.04C90.0168 56.24 90.0768 56.4667 90.1434 56.72C90.2234 56.9733 90.2701 57.2067 90.2834 57.42C90.3101 57.9667 90.1034 58.3667 89.6634 58.62C89.4901 58.6867 89.3034 58.72 89.1034 58.72L85.6834 58.78C83.2834 58.7933 82.0834 58.82 82.0834 58.86H82.0234C82.3834 60.2467 83.5034 61.0067 85.3834 61.14C85.9034 61.1667 86.3368 61.14 86.6834 61.06C87.0701 60.9533 87.3501 60.86 87.5234 60.78C87.6968 60.6867 87.9101 60.5667 88.1634 60.42C88.4701 60.3133 88.7301 60.32 88.9434 60.44C89.1701 60.5467 89.3234 60.72 89.4034 60.96C89.4968 61.2 89.5034 61.4467 89.4234 61.7C89.3434 61.9533 89.1634 62.16 88.8834 62.32C88.6701 62.44 88.4501 62.54 88.2234 62.62C87.9034 62.7533 87.5101 62.8733 87.0434 62.98C86.5768 63.0733 85.9834 63.1133 85.2634 63.1ZM82.0634 56.9C82.8368 56.86 84.8434 56.82 88.0834 56.78C87.9634 56.38 87.7701 56 87.5034 55.64C86.9701 55.0267 86.3101 54.6733 85.5234 54.58C84.6968 54.4733 83.9701 54.6533 83.3434 55.12C82.7168 55.5733 82.2901 56.1667 82.0634 56.9ZM96.8789 63.04C96.1189 63.0533 95.3722 62.92 94.6389 62.64C93.9189 62.36 93.3256 61.9533 92.8589 61.42C92.3789 60.86 92.0656 60.1867 91.9189 59.4C91.7589 58.6267 91.7456 57.8867 91.8789 57.18C92.0256 56.4733 92.2656 55.7933 92.5989 55.14C92.9856 54.4333 93.4656 53.84 94.0389 53.36C94.6122 52.88 95.2589 52.5733 95.9789 52.44C96.6989 52.3067 97.4722 52.4067 98.2989 52.74C98.6456 52.9 98.9989 53.1533 99.3589 53.5L99.9989 54.14C100.252 54.3533 100.372 54.5933 100.359 54.86C100.359 55.1133 100.272 55.3467 100.099 55.56C99.9256 55.76 99.7122 55.8867 99.4589 55.94C99.2056 55.98 98.9589 55.8867 98.7189 55.66C98.5989 55.5667 98.4589 55.44 98.2989 55.28L97.9589 54.94C97.7722 54.7533 97.6189 54.6333 97.4989 54.58C96.8989 54.3133 96.3256 54.32 95.7789 54.6C95.2322 54.8667 94.7656 55.36 94.3789 56.08C93.9789 56.8267 93.7789 57.5733 93.7789 58.32C93.7922 59.0667 93.9922 59.66 94.3789 60.1C94.6189 60.38 94.9656 60.6067 95.4189 60.78C95.8722 60.9533 96.3522 61.04 96.8589 61.04C97.8856 61.0133 98.5456 60.6467 98.8389 59.94L98.8189 59.84V59.26C98.8322 58.9267 98.9456 58.6867 99.1589 58.54C99.3722 58.38 99.6056 58.3133 99.8589 58.34C100.126 58.3533 100.352 58.4467 100.539 58.62C100.739 58.7933 100.832 59.0467 100.819 59.38V59.82C100.832 60.1533 100.786 60.4467 100.679 60.7C100.372 61.4733 99.8656 62.0533 99.1589 62.44C98.4656 62.8267 97.7056 63.0267 96.8789 63.04ZM102.843 62.04C102.817 61.04 102.823 59.5067 102.863 57.44C102.89 55.3733 102.903 54.02 102.903 53.38C102.903 53.0467 103.003 52.8 103.203 52.64C103.403 52.4667 103.637 52.38 103.903 52.38C104.17 52.38 104.403 52.4667 104.603 52.64C104.803 52.8 104.903 53.0467 104.903 53.38C104.903 54.02 104.89 55.3667 104.863 57.42C104.823 59.4733 104.817 61 104.843 62C104.843 62.32 104.743 62.5667 104.543 62.74C104.343 62.9133 104.11 63 103.843 63C103.577 63.0133 103.343 62.94 103.143 62.78C102.943 62.62 102.843 62.3733 102.843 62.04ZM104.703 48.92C104.983 49.2 105.103 49.4933 105.063 49.8C105.037 50.1067 104.91 50.3733 104.683 50.6C104.47 50.8133 104.21 50.94 103.903 50.98C103.597 51.0067 103.303 50.88 103.023 50.6C102.743 50.32 102.623 50.0267 102.663 49.72C102.703 49.4133 102.837 49.1467 103.063 48.92C103.29 48.6933 103.557 48.5667 103.863 48.54C104.17 48.5 104.45 48.6267 104.703 48.92ZM109.511 66.02C109.511 66.3533 109.411 66.6 109.211 66.76C109.011 66.92 108.778 66.9933 108.511 66.98C108.244 66.98 108.011 66.8933 107.811 66.72C107.611 66.5467 107.511 66.3 107.511 65.98C107.564 63.3533 107.591 59.16 107.591 53.4C107.591 53.12 107.684 52.8867 107.871 52.7C108.071 52.5 108.311 52.4 108.591 52.4C108.791 52.4 108.971 52.4933 109.131 52.68C109.304 52.8533 109.431 53.0733 109.511 53.34L109.791 53.16C110.591 52.68 111.384 52.42 112.171 52.38C112.958 52.34 113.664 52.5133 114.291 52.9C114.878 53.2333 115.371 53.7 115.771 54.3C116.184 54.9 116.484 55.5533 116.671 56.26C116.818 56.7667 116.898 57.3067 116.911 57.88C116.924 58.4533 116.851 58.9867 116.691 59.48C116.531 59.9733 116.298 60.46 115.991 60.94C115.684 61.42 115.251 61.84 114.691 62.2C114.144 62.56 113.511 62.8067 112.791 62.94C111.551 63.1667 110.478 62.9533 109.571 62.3C109.558 63.54 109.538 64.78 109.511 66.02ZM112.431 60.98C113.444 60.7933 114.151 60.3133 114.551 59.54C114.964 58.7533 115.031 57.8333 114.751 56.78C114.471 55.74 113.984 55.0267 113.291 54.64C112.584 54.2267 111.764 54.3067 110.831 54.88C110.404 55.1333 110.158 55.3 110.091 55.38C110.051 55.42 110.018 55.4533 109.991 55.48C109.964 55.52 109.918 55.6 109.851 55.72L109.591 56.08V59.36C109.658 59.4267 109.711 59.5 109.751 59.58C110.124 60.1667 110.518 60.5733 110.931 60.8C111.344 61.0267 111.844 61.0867 112.431 60.98ZM124.053 63.1C123.066 63.0333 122.206 62.8333 121.473 62.5C120.739 62.1667 120.179 61.7467 119.793 61.24C119.406 60.7333 119.126 60.2667 118.953 59.84C118.779 59.4133 118.673 58.9933 118.633 58.58C118.593 58.1533 118.613 57.6067 118.693 56.94C118.799 56.3267 119.013 55.74 119.333 55.18C119.666 54.62 120.086 54.1333 120.593 53.72C121.113 53.2933 121.706 52.98 122.373 52.78C123.053 52.5667 123.779 52.5067 124.553 52.6C125.326 52.6933 125.986 52.9067 126.533 53.24C127.079 53.56 127.546 53.9733 127.933 54.48C128.266 54.9067 128.473 55.2267 128.553 55.44C128.619 55.6533 128.686 55.8533 128.753 56.04C128.806 56.24 128.866 56.4667 128.933 56.72C129.013 56.9733 129.059 57.2067 129.073 57.42C129.099 57.9667 128.893 58.3667 128.453 58.62C128.279 58.6867 128.093 58.72 127.893 58.72L124.473 58.78C122.073 58.7933 120.873 58.82 120.873 58.86H120.813C121.173 60.2467 122.293 61.0067 124.173 61.14C124.693 61.1667 125.126 61.14 125.473 61.06C125.859 60.9533 126.139 60.86 126.313 60.78C126.486 60.6867 126.699 60.5667 126.953 60.42C127.259 60.3133 127.519 60.32 127.733 60.44C127.959 60.5467 128.113 60.72 128.193 60.96C128.286 61.2 128.293 61.4467 128.213 61.7C128.133 61.9533 127.953 62.16 127.673 62.32C127.459 62.44 127.239 62.54 127.013 62.62C126.693 62.7533 126.299 62.8733 125.833 62.98C125.366 63.0733 124.773 63.1133 124.053 63.1ZM120.853 56.9C121.626 56.86 123.633 56.82 126.873 56.78C126.753 56.38 126.559 56 126.293 55.64C125.759 55.0267 125.099 54.6733 124.313 54.58C123.486 54.4733 122.759 54.6533 122.133 55.12C121.506 55.5733 121.079 56.1667 120.853 56.9ZM133.108 63C132.121 62.8267 131.408 62.4267 130.968 61.8C130.755 61.52 130.601 61.1467 130.508 60.68L130.428 60.24C130.401 60.1067 130.375 60 130.348 59.92C130.255 59.6267 130.281 59.38 130.428 59.18C130.575 58.9667 130.775 58.82 131.028 58.74C131.281 58.66 131.528 58.6667 131.768 58.76C132.008 58.8533 132.175 59.06 132.268 59.38C132.308 59.5267 132.348 59.6933 132.388 59.88C132.401 59.9467 132.415 60.0067 132.428 60.06C132.428 60.1267 132.448 60.2333 132.488 60.38C132.528 60.5533 132.621 60.7 132.768 60.82C132.928 60.9667 133.168 61.06 133.488 61.1C134.021 61.2067 134.595 61.1933 135.208 61.06C135.808 60.9267 136.275 60.7333 136.608 60.48C136.848 60.2667 136.948 60.0467 136.908 59.82C136.868 59.4467 136.635 59.1667 136.208 58.98C135.941 58.86 135.248 58.7 134.128 58.5C132.968 58.2733 132.148 57.98 131.668 57.62C130.788 56.9667 130.501 55.9933 130.808 54.7C130.995 53.9533 131.375 53.4067 131.948 53.06C132.535 52.7 133.181 52.5 133.888 52.46C134.488 52.4333 135.095 52.5067 135.708 52.68C136.335 52.84 136.868 53.0667 137.308 53.36C137.335 53.3733 137.408 53.44 137.528 53.56C137.648 53.68 137.781 53.8133 137.928 53.96C138.088 54.0933 138.221 54.22 138.328 54.34C138.448 54.4467 138.508 54.5 138.508 54.5C138.748 54.74 138.855 54.9867 138.828 55.24C138.801 55.48 138.695 55.6933 138.508 55.88C138.321 56.0533 138.101 56.1533 137.848 56.18C137.595 56.1933 137.348 56.0933 137.108 55.88C136.975 55.76 136.841 55.6333 136.708 55.5L136.428 55.16C136.348 55.0933 136.255 55.0267 136.148 54.96C135.895 54.8 135.568 54.6667 135.168 54.56C134.768 54.44 134.375 54.3867 133.988 54.4C133.281 54.44 132.875 54.6867 132.768 55.14C132.648 55.62 132.688 55.9333 132.888 56.08C133.128 56.2533 133.668 56.4267 134.508 56.6C135.748 56.8133 136.595 57.02 137.048 57.22C138.141 57.7133 138.761 58.5067 138.908 59.6C139.028 60.4933 138.695 61.2667 137.908 61.92C137.308 62.4133 136.548 62.7533 135.628 62.94C134.748 63.14 133.908 63.16 133.108 63ZM140.75 58.68C140.71 57.8 140.69 56.8667 140.69 55.88C140.677 55.2133 140.67 54.4933 140.67 53.72C140.684 52.9467 140.697 52.2067 140.71 51.5C140.724 50.7933 140.73 50.1933 140.73 49.7C140.73 49.3667 140.83 49.12 141.03 48.96C141.23 48.7867 141.464 48.7 141.73 48.7C141.997 48.7 142.23 48.7867 142.43 48.96C142.63 49.12 142.73 49.3667 142.73 49.7C142.73 50.3267 142.724 51.2533 142.71 52.48C142.684 53.72 142.67 54.8267 142.67 55.8C142.684 56.7733 142.71 57.7067 142.75 58.6C142.764 58.92 142.67 59.1667 142.47 59.34C142.284 59.5133 142.057 59.6067 141.79 59.62C141.537 59.6333 141.304 59.5667 141.09 59.42C140.877 59.26 140.764 59.0133 140.75 58.68ZM142.27 61.36C142.51 61.5867 142.617 61.8267 142.59 62.08C142.564 62.3333 142.457 62.56 142.27 62.76C142.084 62.9467 141.857 63.0533 141.59 63.08C141.337 63.1067 141.097 63 140.87 62.76C140.63 62.5333 140.524 62.2933 140.55 62.04C140.577 61.7733 140.684 61.5467 140.87 61.36C141.07 61.1733 141.297 61.0667 141.55 61.04C141.804 61.0133 142.044 61.12 142.27 61.36Z" fill="url(#paint0_linear_41_405)"/>
<defs>
<linearGradient id="paint0_linear_41_405" x1="0" y1="33" x2="195" y2="33" gradientUnits="userSpaceOnUse">
<stop stop-color="#834C34"/>
<stop offset="1" stop-color="#DDA360"/>
</linearGradient>
</defs>
</svg>
