<svg width="185" height="68" viewBox="0 0 185 68" fill="none" xmlns="http://www.w3.org/2000/svg">
<path d="M4.4 14.98C4.01333 14.8733 3.78 14.62 3.7 14.22C3.66 14.14 3.62667 14.0533 3.6 13.96C2.76 10.1333 1.73333 6.10667 0.52 1.88C0.426667 1.56 0.453333 1.29333 0.6 1.08C0.746667 0.866666 0.946667 0.726666 1.2 0.66C1.45333 0.579999 1.7 0.593332 1.94 0.699999C2.18 0.793333 2.34667 1 2.44 1.32C3.29333 4.33333 4.08 7.49333 4.8 10.8L6.36 6.08C7.04 4.12 7.54667 2.61333 7.88 1.56C7.90667 1.09333 8.14667 0.786666 8.6 0.639999C8.64 0.613333 8.7 0.599999 8.78 0.599999C8.86 0.599999 8.95333 0.613333 9.06 0.639999C9.27333 0.706666 9.44 0.826666 9.56 0.999999C9.69333 1.17333 9.76 1.36667 9.76 1.58C10.68 4.40667 11.7267 7.64667 12.9 11.3L15.78 1.24C15.8733 0.92 16.04 0.713333 16.28 0.619999C16.52 0.513332 16.7667 0.499999 17.02 0.58C17.2733 0.659999 17.4733 0.806666 17.62 1.02C17.7667 1.23333 17.7933 1.49333 17.7 1.8L13.94 14.3C13.86 14.5533 13.6933 14.7467 13.44 14.88C13.2 15.0133 12.9467 15.04 12.68 14.96C12.44 14.88 12.2533 14.7333 12.12 14.52C12.0267 14.4133 11.9533 14.2933 11.9 14.16C10.7133 10.6133 9.66 7.4 8.74 4.52L8 7.2L7.12 9.7L6.4 11.88C6.10667 12.7733 5.85333 13.58 5.64 14.3C5.56 14.5667 5.4 14.7667 5.16 14.9C4.92 15.0333 4.66667 15.06 4.4 14.98ZM23.3494 15.1C22.3627 15.0333 21.5027 14.8333 20.7694 14.5C20.036 14.1667 19.476 13.7467 19.0894 13.24C18.7027 12.7333 18.4227 12.2667 18.2494 11.84C18.076 11.4133 17.9694 10.9933 17.9294 10.58C17.8894 10.1533 17.9094 9.60667 17.9894 8.94C18.096 8.32667 18.3094 7.74 18.6294 7.18C18.9627 6.62 19.3827 6.13333 19.8894 5.72C20.4094 5.29333 21.0027 4.98 21.6694 4.78C22.3494 4.56667 23.076 4.50667 23.8494 4.6C24.6227 4.69333 25.2827 4.90667 25.8294 5.24C26.376 5.56 26.8427 5.97333 27.2294 6.48C27.5627 6.90667 27.7694 7.22667 27.8494 7.44C27.916 7.65333 27.9827 7.85333 28.0494 8.04C28.1027 8.24 28.1627 8.46667 28.2294 8.72C28.3094 8.97333 28.356 9.20667 28.3694 9.42C28.396 9.96667 28.1894 10.3667 27.7494 10.62C27.576 10.6867 27.3894 10.72 27.1894 10.72L23.7694 10.78C21.3694 10.7933 20.1694 10.82 20.1694 10.86H20.1094C20.4694 12.2467 21.5894 13.0067 23.4694 13.14C23.9894 13.1667 24.4227 13.14 24.7694 13.06C25.156 12.9533 25.436 12.86 25.6094 12.78C25.7827 12.6867 25.996 12.5667 26.2494 12.42C26.556 12.3133 26.816 12.32 27.0294 12.44C27.256 12.5467 27.4094 12.72 27.4894 12.96C27.5827 13.2 27.5894 13.4467 27.5094 13.7C27.4294 13.9533 27.2494 14.16 26.9694 14.32C26.756 14.44 26.536 14.54 26.3094 14.62C25.9894 14.7533 25.596 14.8733 25.1294 14.98C24.6627 15.0733 24.0694 15.1133 23.3494 15.1ZM20.1494 8.9C20.9227 8.86 22.9294 8.82 26.1694 8.78C26.0494 8.38 25.856 8 25.5894 7.64C25.056 7.02667 24.396 6.67333 23.6094 6.58C22.7827 6.47333 22.056 6.65333 21.4294 7.12C20.8027 7.57333 20.376 8.16667 20.1494 8.9ZM32.1648 14.04C32.1515 14.3733 32.0382 14.62 31.8248 14.78C31.6115 14.9267 31.3715 15 31.1048 15C30.8515 14.9867 30.6248 14.8933 30.4248 14.72C30.2382 14.5467 30.1515 14.2933 30.1648 13.96C30.2182 12.1867 30.2448 10.84 30.2448 9.92C30.2448 9.12 30.2382 8.23333 30.2248 7.26C30.2115 6.28667 30.1982 5.31333 30.1848 4.34C30.1715 3.36667 30.1648 2.48 30.1648 1.68C30.1648 1.34667 30.2648 1.1 30.4648 0.94C30.6648 0.766666 30.8982 0.68 31.1648 0.68C31.4315 0.68 31.6648 0.766666 31.8648 0.94C32.0648 1.1 32.1648 1.34667 32.1648 1.68C32.1648 2.6 32.1782 3.90667 32.2048 5.6C32.2315 7.29333 32.2382 8.83333 32.2248 10.22C32.2248 11.5933 32.2048 12.8667 32.1648 14.04ZM39.2813 15.04C38.5213 15.0533 37.7746 14.92 37.0413 14.64C36.3213 14.36 35.7279 13.9533 35.2613 13.42C34.7813 12.86 34.4679 12.1867 34.3213 11.4C34.1613 10.6267 34.1479 9.88667 34.2813 9.18C34.4279 8.47333 34.6679 7.79333 35.0013 7.14C35.3879 6.43333 35.8679 5.84 36.4413 5.36C37.0146 4.88 37.6613 4.57333 38.3813 4.44C39.1013 4.30667 39.8746 4.40667 40.7013 4.74C41.0479 4.9 41.4013 5.15333 41.7613 5.5L42.4013 6.14C42.6546 6.35333 42.7746 6.59333 42.7613 6.86C42.7613 7.11333 42.6746 7.34667 42.5013 7.56C42.3279 7.76 42.1146 7.88667 41.8613 7.94C41.6079 7.98 41.3613 7.88667 41.1213 7.66C41.0013 7.56667 40.8613 7.44 40.7013 7.28L40.3613 6.94C40.1746 6.75333 40.0213 6.63333 39.9013 6.58C39.3013 6.31333 38.7279 6.32 38.1813 6.6C37.6346 6.86667 37.1679 7.36 36.7813 8.08C36.3813 8.82667 36.1813 9.57333 36.1813 10.32C36.1946 11.0667 36.3946 11.66 36.7813 12.1C37.0213 12.38 37.3679 12.6067 37.8213 12.78C38.2746 12.9533 38.7546 13.04 39.2613 13.04C40.2879 13.0133 40.9479 12.6467 41.2413 11.94L41.2213 11.84V11.26C41.2346 10.9267 41.3479 10.6867 41.5613 10.54C41.7746 10.38 42.0079 10.3133 42.2613 10.34C42.5279 10.3533 42.7546 10.4467 42.9413 10.62C43.1413 10.7933 43.2346 11.0467 43.2213 11.38V11.82C43.2346 12.1533 43.1879 12.4467 43.0813 12.7C42.7746 13.4733 42.2679 14.0533 41.5613 14.44C40.8679 14.8267 40.1079 15.0267 39.2813 15.04ZM50.6658 14.86C48.9058 15.2867 47.4991 14.9333 46.4458 13.8C45.6058 12.9333 45.0858 11.82 44.8858 10.46C44.7391 9.39333 44.8658 8.38 45.2658 7.42C45.7458 6.19333 46.5058 5.28667 47.5458 4.7C47.7591 4.58 48.0258 4.49333 48.3458 4.44C48.3591 4.44 48.4524 4.43333 48.6258 4.42C48.6924 4.40667 48.7458 4.39333 48.7858 4.38C48.9858 4.34 49.1858 4.36 49.3858 4.44C49.4924 4.44 49.6458 4.44667 49.8458 4.46C50.0591 4.47333 50.2658 4.49333 50.4658 4.52C50.6658 4.53333 50.8191 4.55333 50.9258 4.58L51.3058 4.72C51.4658 4.77333 51.6191 4.84 51.7658 4.92C51.9124 5 52.0724 5.09333 52.2458 5.2C52.6858 5.49333 53.0524 5.86 53.3458 6.3C53.6391 6.72667 53.8724 7.18667 54.0458 7.68C54.2191 8.16 54.3258 8.62667 54.3658 9.08C54.4058 9.53333 54.3858 9.92 54.3058 10.24C54.1858 10.96 53.9724 11.6267 53.6658 12.24C53.3591 12.8667 52.9324 13.42 52.3858 13.9C51.8524 14.38 51.2791 14.7 50.6658 14.86ZM50.0458 12.78C50.5524 12.7133 50.9791 12.5133 51.3258 12.18C51.6724 11.8333 51.9324 11.42 52.1058 10.94C52.2791 10.4467 52.3591 9.94 52.3458 9.42C52.3324 8.88667 52.2258 8.39333 52.0258 7.94C51.8258 7.48667 51.5258 7.13333 51.1258 6.88C50.9791 6.77333 50.8591 6.7 50.7658 6.66C50.6724 6.60667 50.5658 6.56 50.4458 6.52C50.3658 6.50667 50.2258 6.49333 50.0258 6.48C49.8391 6.46667 49.6458 6.45333 49.4458 6.44C49.2458 6.42667 49.1058 6.42 49.0258 6.42C48.9858 6.42 48.9391 6.41333 48.8858 6.4C48.7391 6.41333 48.6591 6.42 48.6458 6.42L48.5058 6.46C48.1191 6.67333 47.7858 6.98 47.5058 7.38C47.2391 7.76667 47.0458 8.20667 46.9258 8.7C46.8058 9.18 46.7924 9.66667 46.8858 10.16C47.0324 11.0667 47.3591 11.7533 47.8658 12.22C48.4124 12.7267 49.1391 12.9133 50.0458 12.78ZM68.733 14.12C68.733 14.0133 68.7196 13.84 68.693 13.6C68.6796 13.3467 68.6596 13.1067 68.633 12.88C68.6196 12.6533 68.613 12.52 68.613 12.48V11.34C68.613 11.0067 68.6196 10.62 68.633 10.18C68.6463 9.74 68.653 9.31333 68.653 8.9C68.653 8.47333 68.6196 8.1 68.553 7.78C68.473 7.31333 68.333 6.98 68.133 6.78C67.933 6.56667 67.6263 6.46 67.213 6.46C66.293 6.47333 65.373 7.03333 64.453 8.14C64.493 8.54 64.513 9.31333 64.513 10.46C64.513 11.3 64.533 12.4733 64.573 13.98C64.5863 14.3133 64.493 14.5667 64.293 14.74C64.1063 14.9 63.8796 14.9867 63.613 15C63.3596 15 63.1263 14.92 62.913 14.76C62.6996 14.6 62.5863 14.3533 62.573 14.02C62.533 12.5133 62.513 11.3267 62.513 10.46V9.46C62.513 9.39333 62.5063 9.25333 62.493 9.04C62.493 8.82667 62.493 8.66667 62.493 8.56C62.4796 8.41333 62.453 8.20667 62.413 7.94C62.373 7.67333 62.333 7.48 62.293 7.36C62.1863 6.98667 62.0396 6.72667 61.853 6.58C61.653 6.42 61.353 6.36 60.953 6.4C60.513 6.44 60.133 6.56 59.813 6.76C59.5063 6.96 59.193 7.28 58.873 7.72C58.8063 7.8 58.733 7.87333 58.653 7.94C58.7063 10.6067 58.7063 12.64 58.653 14.04C58.6396 14.3733 58.5263 14.62 58.313 14.78C58.0996 14.9267 57.8596 15 57.593 15C57.3396 14.9867 57.113 14.8933 56.913 14.72C56.7263 14.5467 56.6396 14.2933 56.653 13.96C56.6796 12.48 56.693 11.5267 56.693 11.1C56.693 10.5533 56.6863 9.93333 56.673 9.24C56.6596 8.54667 56.6396 7.86 56.613 7.18C56.5996 6.48667 56.593 5.86 56.593 5.3C56.593 5.04667 56.693 4.84 56.893 4.68C57.1063 4.52 57.3463 4.43333 57.613 4.42C57.8796 4.39333 58.113 4.47333 58.313 4.66C58.513 4.83333 58.6063 5.14 58.593 5.58C59.193 4.87333 59.9263 4.48 60.793 4.4C61.713 4.32 62.4796 4.52667 63.093 5.02C63.413 5.27333 63.6996 5.62667 63.953 6.08C64.7796 5.04 65.8663 4.48 67.213 4.4C68.1996 4.38667 68.993 4.69333 69.593 5.32C70.0596 5.86667 70.373 6.56667 70.533 7.42C70.5996 7.83333 70.633 8.28667 70.633 8.78C70.6463 9.26 70.6463 9.72667 70.633 10.18C70.6196 10.6333 70.613 11.02 70.613 11.34V12.44C70.613 12.4667 70.6196 12.5867 70.633 12.8C70.6463 13 70.6596 13.22 70.673 13.46C70.6996 13.6867 70.7196 13.8533 70.733 13.96C70.7463 14.2933 70.6596 14.5533 70.473 14.74C70.2863 14.9133 70.0596 15.0067 69.793 15.02C69.5396 15.0333 69.3063 14.9667 69.093 14.82C68.8796 14.6733 68.7596 14.44 68.733 14.12ZM78.0759 15.1C77.0893 15.0333 76.2293 14.8333 75.4959 14.5C74.7626 14.1667 74.2026 13.7467 73.8159 13.24C73.4293 12.7333 73.1493 12.2667 72.9759 11.84C72.8026 11.4133 72.6959 10.9933 72.6559 10.58C72.6159 10.1533 72.6359 9.60667 72.7159 8.94C72.8226 8.32667 73.0359 7.74 73.3559 7.18C73.6893 6.62 74.1093 6.13333 74.6159 5.72C75.1359 5.29333 75.7293 4.98 76.3959 4.78C77.0759 4.56667 77.8026 4.50667 78.5759 4.6C79.3493 4.69333 80.0093 4.90667 80.5559 5.24C81.1026 5.56 81.5693 5.97333 81.9559 6.48C82.2893 6.90667 82.4959 7.22667 82.5759 7.44C82.6426 7.65333 82.7093 7.85333 82.7759 8.04C82.8293 8.24 82.8893 8.46667 82.9559 8.72C83.0359 8.97333 83.0826 9.20667 83.0959 9.42C83.1226 9.96667 82.9159 10.3667 82.4759 10.62C82.3026 10.6867 82.1159 10.72 81.9159 10.72L78.4959 10.78C76.0959 10.7933 74.8959 10.82 74.8959 10.86H74.8359C75.1959 12.2467 76.3159 13.0067 78.1959 13.14C78.7159 13.1667 79.1493 13.14 79.4959 13.06C79.8826 12.9533 80.1626 12.86 80.3359 12.78C80.5093 12.6867 80.7226 12.5667 80.9759 12.42C81.2826 12.3133 81.5426 12.32 81.7559 12.44C81.9826 12.5467 82.1359 12.72 82.2159 12.96C82.3093 13.2 82.3159 13.4467 82.2359 13.7C82.1559 13.9533 81.9759 14.16 81.6959 14.32C81.4826 14.44 81.2626 14.54 81.0359 14.62C80.7159 14.7533 80.3226 14.8733 79.8559 14.98C79.3893 15.0733 78.7959 15.1133 78.0759 15.1ZM74.8759 8.9C75.6493 8.86 77.6559 8.82 80.8959 8.78C80.7759 8.38 80.5826 8 80.3159 7.64C79.7826 7.02667 79.1226 6.67333 78.3359 6.58C77.5093 6.47333 76.7826 6.65333 76.1559 7.12C75.5293 7.57333 75.1026 8.16667 74.8759 8.9ZM91.342 15C91.062 14.9867 90.8287 14.88 90.642 14.68C90.4554 14.4667 90.3687 14.2267 90.382 13.96C90.4087 13.36 90.4287 12.88 90.442 12.52C90.4554 12.0533 90.4687 11.5533 90.482 11.02C90.4954 10.4733 90.5087 10.0133 90.522 9.64C90.522 9.25333 90.5154 8.81333 90.502 8.32C90.502 7.81333 90.502 7.39333 90.502 7.06C90.502 6.92667 90.502 6.72 90.502 6.44C90.502 6.16 90.4954 5.86667 90.482 5.56C90.482 5.24 90.482 4.95333 90.482 4.7C90.482 4.44667 90.482 4.26667 90.482 4.16C90.4687 4.06667 90.4554 3.9 90.442 3.66C90.442 3.42 90.442 3.16667 90.442 2.9C90.442 2.62 90.4354 2.36667 90.422 2.14C90.422 1.91333 90.422 1.76667 90.422 1.7C90.422 1.38 90.522 1.13333 90.722 0.96C90.922 0.786666 91.1554 0.699999 91.422 0.699999C91.6887 0.686666 91.922 0.759999 92.122 0.919999C92.322 1.08 92.422 1.32667 92.422 1.66C92.462 3.44667 92.482 4.56667 92.482 5.02C92.682 4.88667 92.8887 4.78 93.102 4.7C94.0087 4.36667 94.8287 4.28 95.562 4.44C96.2954 4.58667 96.9554 4.93333 97.542 5.48C98.0487 5.96 98.462 6.54667 98.782 7.24C99.1154 7.93333 99.3287 8.56 99.422 9.12C99.6487 10.8133 99.3554 12.2333 98.542 13.38C98.0754 14.0467 97.462 14.52 96.702 14.8C95.9554 15.0933 95.0954 15.16 94.122 15C93.4687 14.8933 92.8687 14.68 92.322 14.36C92.242 14.56 92.1087 14.72 91.922 14.84C91.7487 14.96 91.5554 15.0133 91.342 15ZM94.442 13.04C95.5754 13.2133 96.402 12.94 96.922 12.22C97.4287 11.5 97.602 10.5533 97.442 9.38C97.282 8.39333 96.862 7.58 96.182 6.94C95.5154 6.32667 94.7287 6.19333 93.822 6.54C93.7287 6.58 93.642 6.62667 93.562 6.68C93.4954 6.72 93.422 6.78667 93.342 6.88L93.102 7.08C93.0487 7.14667 92.9554 7.26 92.822 7.42C92.6887 7.56667 92.582 7.68 92.502 7.76C92.5154 9.14667 92.502 10.5 92.462 11.82L92.482 11.84C92.9354 12.4933 93.5887 12.8933 94.442 13.04ZM107.212 14.68C106.732 14.8667 106.192 14.9733 105.592 15C104.352 15.0533 103.325 14.7267 102.512 14.02C101.818 13.4467 101.372 12.7333 101.172 11.88C100.972 11.0267 100.965 10.26 101.152 9.58C101.338 8.9 101.625 8.23333 102.012 7.58C102.505 6.72667 103.092 6.02 103.772 5.46C104.465 4.9 105.218 4.55333 106.032 4.42C106.858 4.28667 107.732 4.44667 108.652 4.9C108.758 4.95333 108.872 5.03333 108.992 5.14C109.125 5.24667 109.238 5.34 109.332 5.42L109.592 5.68C109.672 5.76 109.712 5.80667 109.712 5.82C109.925 6.00667 110.038 6.24667 110.052 6.54C110.225 7.34 110.338 8.18 110.392 9.06C110.418 9.5 110.432 10.0267 110.432 10.64C110.432 11.24 110.432 11.8467 110.432 12.46C110.445 13.06 110.458 13.5733 110.472 14C110.485 14.32 110.392 14.5667 110.192 14.74C110.005 14.9133 109.778 15 109.512 15C109.258 15.0133 109.025 14.9467 108.812 14.8C108.598 14.64 108.485 14.4 108.472 14.08V13.78C108.072 14.1933 107.652 14.4933 107.212 14.68ZM106.312 12.88C106.552 12.8133 106.878 12.6733 107.292 12.46C107.705 12.2467 108.058 11.92 108.352 11.48C108.378 11.4533 108.412 11.4267 108.452 11.4C108.452 9.6 108.338 8.15333 108.112 7.06C107.992 6.9 107.852 6.76667 107.692 6.66C107.052 6.31333 106.378 6.30667 105.672 6.64C104.965 6.96 104.345 7.56667 103.812 8.46C102.758 10.2467 102.752 11.5933 103.792 12.5C104.098 12.7533 104.478 12.9133 104.932 12.98C105.385 13.0467 105.845 13.0133 106.312 12.88ZM117.68 15.04C116.92 15.0533 116.173 14.92 115.44 14.64C114.72 14.36 114.126 13.9533 113.66 13.42C113.18 12.86 112.866 12.1867 112.72 11.4C112.56 10.6267 112.546 9.88667 112.68 9.18C112.826 8.47333 113.066 7.79333 113.4 7.14C113.786 6.43333 114.266 5.84 114.84 5.36C115.413 4.88 116.06 4.57333 116.78 4.44C117.5 4.30667 118.273 4.40667 119.1 4.74C119.446 4.9 119.8 5.15333 120.16 5.5L120.8 6.14C121.053 6.35333 121.173 6.59333 121.16 6.86C121.16 7.11333 121.073 7.34667 120.9 7.56C120.726 7.76 120.513 7.88667 120.26 7.94C120.006 7.98 119.76 7.88667 119.52 7.66C119.4 7.56667 119.26 7.44 119.1 7.28L118.76 6.94C118.573 6.75333 118.42 6.63333 118.3 6.58C117.7 6.31333 117.126 6.32 116.58 6.6C116.033 6.86667 115.566 7.36 115.18 8.08C114.78 8.82667 114.58 9.57333 114.58 10.32C114.593 11.0667 114.793 11.66 115.18 12.1C115.42 12.38 115.766 12.6067 116.22 12.78C116.673 12.9533 117.153 13.04 117.66 13.04C118.686 13.0133 119.346 12.6467 119.64 11.94L119.62 11.84V11.26C119.633 10.9267 119.746 10.6867 119.96 10.54C120.173 10.38 120.406 10.3133 120.66 10.34C120.926 10.3533 121.153 10.4467 121.34 10.62C121.54 10.7933 121.633 11.0467 121.62 11.38V11.82C121.633 12.1533 121.586 12.4467 121.48 12.7C121.173 13.4733 120.666 14.0533 119.96 14.44C119.266 14.8267 118.506 15.0267 117.68 15.04ZM130.464 14.68C128.931 12.9867 127.744 11.4 126.904 9.92L125.824 10.82C125.798 10.8467 125.771 10.8667 125.744 10.88C125.718 11.92 125.678 12.98 125.624 14.06C125.611 14.3933 125.498 14.64 125.284 14.8C125.071 14.9467 124.831 15.0133 124.564 15C124.311 14.9867 124.084 14.8933 123.884 14.72C123.698 14.5467 123.611 14.3 123.624 13.98C123.771 10.9133 123.844 6.81333 123.844 1.68C123.844 1.34667 123.944 1.1 124.144 0.94C124.344 0.766666 124.578 0.68 124.844 0.68C125.111 0.68 125.344 0.766666 125.544 0.94C125.744 1.1 125.844 1.34667 125.844 1.68C125.844 4.29333 125.831 6.48 125.804 8.24C127.751 6.61333 129.098 5.44 129.844 4.72C130.058 4.46667 130.291 4.34667 130.544 4.36C130.811 4.36 131.038 4.45333 131.224 4.64C131.424 4.81333 131.544 5.03333 131.584 5.3C131.638 5.55333 131.551 5.8 131.324 6.04C130.658 6.69333 129.704 7.55333 128.464 8.62C129.264 10.0867 130.424 11.6667 131.944 13.36C132.171 13.6 132.264 13.8467 132.224 14.1C132.184 14.3533 132.064 14.5733 131.864 14.76C131.664 14.9333 131.431 15.0267 131.164 15.04C130.911 15.0533 130.678 14.9333 130.464 14.68ZM145.52 15.16C144.786 15.16 144.066 15.0667 143.36 14.88C142.653 14.6933 142.04 14.4333 141.52 14.1C140.933 13.7267 140.406 13.2 139.94 12.52C139.46 11.84 139.086 11.1 138.82 10.3C138.553 9.48667 138.42 8.70667 138.42 7.96C138.42 6.96 138.633 5.98667 139.06 5.04C139.486 4.09333 140.086 3.23333 140.86 2.46C141.446 1.87333 142.106 1.42 142.84 1.1C143.706 0.739999 144.58 0.559999 145.46 0.559999C146.22 0.559999 146.98 0.706666 147.74 0.999999C148.233 1.18667 148.653 1.42667 149 1.72C149.346 2 149.726 2.37333 150.14 2.84L150.74 3.58C150.9 3.78 150.98 3.98667 150.98 4.2C150.98 4.46667 150.873 4.7 150.66 4.9C150.446 5.1 150.2 5.2 149.92 5.2C149.64 5.2 149.393 5.07333 149.18 4.82L148.44 3.92C148.253 3.72 148.033 3.52667 147.78 3.34C147.526 3.14 147.273 2.98667 147.02 2.88C146.446 2.64 145.873 2.54 145.3 2.58C144.086 2.68667 143.066 3.13333 142.24 3.92C141.026 5.09333 140.42 6.44 140.42 7.96C140.42 8.50667 140.52 9.07333 140.72 9.66C140.92 10.2467 141.186 10.7933 141.52 11.3C141.853 11.7933 142.213 12.1667 142.6 12.42C142.96 12.6467 143.393 12.8267 143.9 12.96C144.406 13.0933 144.926 13.16 145.46 13.16C147.073 13.16 148.126 12.7133 148.62 11.82C148.713 11.66 148.826 11.3533 148.96 10.9L149.16 10.26C149.24 10.0467 149.36 9.88 149.52 9.76C149.693 9.64 149.873 9.58 150.06 9.58C150.326 9.58 150.566 9.67333 150.78 9.86C150.993 10.0467 151.1 10.2867 151.1 10.58C151.1 10.7 151.08 10.82 151.04 10.94L150.9 11.36C150.673 12.0533 150.5 12.5267 150.38 12.78C149.966 13.5 149.386 14.0533 148.64 14.44C147.893 14.8267 147.04 15.06 146.08 15.14C145.96 15.1533 145.773 15.16 145.52 15.16ZM161.538 14.04C161.525 14.3733 161.412 14.62 161.198 14.78C160.998 14.9267 160.765 15 160.498 15C160.245 14.9867 160.018 14.9 159.818 14.74C159.632 14.5667 159.538 14.32 159.538 14C159.538 13.9867 159.578 13.36 159.658 12.12C159.738 10.76 159.752 9.72667 159.698 9.02C159.578 7.35333 158.965 6.48 157.858 6.4C157.272 6.36 156.785 6.45333 156.398 6.68C156.025 6.89333 155.658 7.27333 155.298 7.82C155.272 7.86 155.218 7.95333 155.138 8.1C155.232 10.98 155.278 12.9533 155.278 14.02C155.278 14.3533 155.178 14.6067 154.978 14.78C154.778 14.94 154.545 15.02 154.278 15.02C154.012 15.02 153.778 14.94 153.578 14.78C153.378 14.6067 153.278 14.3533 153.278 14.02C153.278 13.4067 153.225 11.3333 153.118 7.8C153.038 5.14667 153.025 3.04 153.078 1.48C153.092 1.16 153.205 0.919999 153.418 0.76C153.632 0.599999 153.865 0.526666 154.118 0.539999C154.385 0.539999 154.612 0.626666 154.798 0.799999C154.998 0.973333 155.092 1.22667 155.078 1.56C155.065 1.92 155.058 3.31333 155.058 5.74C155.912 4.75333 156.912 4.30667 158.058 4.4C160.272 4.58667 161.485 6.07333 161.698 8.86C161.738 9.63333 161.752 10.3067 161.738 10.88C161.712 11.48 161.672 12.08 161.618 12.68C161.565 13.28 161.538 13.7333 161.538 14.04ZM169.033 15.1C168.046 15.0333 167.186 14.8333 166.453 14.5C165.72 14.1667 165.16 13.7467 164.773 13.24C164.386 12.7333 164.106 12.2667 163.933 11.84C163.76 11.4133 163.653 10.9933 163.613 10.58C163.573 10.1533 163.593 9.60667 163.673 8.94C163.78 8.32667 163.993 7.74 164.313 7.18C164.646 6.62 165.066 6.13333 165.573 5.72C166.093 5.29333 166.686 4.98 167.353 4.78C168.033 4.56667 168.76 4.50667 169.533 4.6C170.306 4.69333 170.966 4.90667 171.513 5.24C172.06 5.56 172.526 5.97333 172.913 6.48C173.246 6.90667 173.453 7.22667 173.533 7.44C173.6 7.65333 173.666 7.85333 173.733 8.04C173.786 8.24 173.846 8.46667 173.913 8.72C173.993 8.97333 174.04 9.20667 174.053 9.42C174.08 9.96667 173.873 10.3667 173.433 10.62C173.26 10.6867 173.073 10.72 172.873 10.72L169.453 10.78C167.053 10.7933 165.853 10.82 165.853 10.86H165.793C166.153 12.2467 167.273 13.0067 169.153 13.14C169.673 13.1667 170.106 13.14 170.453 13.06C170.84 12.9533 171.12 12.86 171.293 12.78C171.466 12.6867 171.68 12.5667 171.933 12.42C172.24 12.3133 172.5 12.32 172.713 12.44C172.94 12.5467 173.093 12.72 173.173 12.96C173.266 13.2 173.273 13.4467 173.193 13.7C173.113 13.9533 172.933 14.16 172.653 14.32C172.44 14.44 172.22 14.54 171.993 14.62C171.673 14.7533 171.28 14.8733 170.813 14.98C170.346 15.0733 169.753 15.1133 169.033 15.1ZM165.833 8.9C166.606 8.86 168.613 8.82 171.853 8.78C171.733 8.38 171.54 8 171.273 7.64C170.74 7.02667 170.08 6.67333 169.293 6.58C168.466 6.47333 167.74 6.65333 167.113 7.12C166.486 7.57333 166.06 8.16667 165.833 8.9ZM177.308 15C177.068 15 176.862 14.9267 176.688 14.78C176.515 14.6333 176.415 14.42 176.388 14.14C176.175 12.3933 176.055 10.3933 176.028 8.14L176.008 6.64H175.848C175.515 6.64 175.255 6.54667 175.068 6.36C174.895 6.16 174.808 5.91333 174.808 5.62C174.808 5.35333 174.888 5.12 175.048 4.92C175.208 4.70667 175.435 4.6 175.728 4.6H176.088C176.088 4.08 176.142 3.56667 176.248 3.06C176.355 2.54 176.508 2.08667 176.708 1.7C176.908 1.31333 177.162 1.03333 177.468 0.86C177.922 0.62 178.348 0.5 178.748 0.5C179.308 0.5 179.755 0.599999 180.088 0.799999C180.422 0.999999 180.588 1.28667 180.588 1.66C180.588 1.96667 180.515 2.21333 180.368 2.4C180.222 2.58667 180.015 2.68 179.748 2.68C179.668 2.68 179.588 2.67333 179.508 2.66C179.442 2.64667 179.375 2.63333 179.308 2.62C179.122 2.56667 178.928 2.54 178.728 2.54C178.502 2.54 178.348 2.72 178.268 3.08C178.188 3.45333 178.128 3.96 178.088 4.6H178.948C179.255 4.6 179.495 4.7 179.668 4.9C179.855 5.1 179.948 5.33333 179.948 5.6C179.948 5.86667 179.855 6.1 179.668 6.3C179.495 6.5 179.255 6.6 178.948 6.6H178.008L178.028 8.12C178.148 11.08 178.255 12.9667 178.348 13.78C178.388 14.22 178.302 14.5333 178.088 14.72C177.875 14.9067 177.615 15 177.308 15ZM182 10.68C181.96 9.8 181.94 8.86667 181.94 7.88C181.927 7.21333 181.92 6.49333 181.92 5.72C181.934 4.94667 181.947 4.20667 181.96 3.5C181.974 2.79333 181.98 2.19333 181.98 1.7C181.98 1.36667 182.08 1.12 182.28 0.96C182.48 0.786666 182.714 0.699999 182.98 0.699999C183.247 0.699999 183.48 0.786666 183.68 0.96C183.88 1.12 183.98 1.36667 183.98 1.7C183.98 2.32667 183.974 3.25333 183.96 4.48C183.934 5.72 183.92 6.82667 183.92 7.8C183.934 8.77333 183.96 9.70667 184 10.6C184.014 10.92 183.92 11.1667 183.72 11.34C183.534 11.5133 183.307 11.6067 183.04 11.62C182.787 11.6333 182.554 11.5667 182.34 11.42C182.127 11.26 182.014 11.0133 182 10.68ZM183.52 13.36C183.76 13.5867 183.867 13.8267 183.84 14.08C183.814 14.3333 183.707 14.56 183.52 14.76C183.334 14.9467 183.107 15.0533 182.84 15.08C182.587 15.1067 182.347 15 182.12 14.76C181.88 14.5333 181.774 14.2933 181.8 14.04C181.827 13.7733 181.934 13.5467 182.12 13.36C182.32 13.1733 182.547 13.0667 182.8 13.04C183.054 13.0133 183.294 13.12 183.52 13.36ZM6.66 39.04C4.92667 39.0667 3.69333 39.06 2.96 39.02C2.70667 39.0067 2.48667 38.9133 2.3 38.74C2.11333 38.5533 2.01333 38.3267 2 38.06C1.98667 37.9933 1.98 37.9333 1.98 37.88C1.96667 37.1067 1.93333 35.3133 1.88 32.5C1.82667 29.6733 1.8 27.3667 1.8 25.58C1.8 25.2467 1.9 25 2.1 24.84C2.3 24.6667 2.53333 24.58 2.8 24.58C3.06667 24.58 3.3 24.6667 3.5 24.84C3.7 25 3.8 25.2467 3.8 25.58C3.8 26.9267 3.81333 28.22 3.84 29.46C3.84 30.26 3.85333 31.1333 3.88 32.08C3.90667 33.0133 3.92667 33.92 3.94 34.8C3.95333 35.68 3.96 36.4267 3.96 37.04C4.65333 37.0533 5.72 37.0467 7.16 37.02C8.58667 36.9933 9.67333 36.9867 10.42 37C10.7533 37 11 37.1 11.16 37.3C11.32 37.5 11.3933 37.7333 11.38 38C11.38 38.2667 11.2933 38.5 11.12 38.7C10.9467 38.9 10.7 39 10.38 39C9.66 38.9867 8.42 39 6.66 39.04ZM17.1384 39.1C16.1518 39.0333 15.2918 38.8333 14.5584 38.5C13.8251 38.1667 13.2651 37.7467 12.8784 37.24C12.4918 36.7333 12.2118 36.2667 12.0384 35.84C11.8651 35.4133 11.7584 34.9933 11.7184 34.58C11.6784 34.1533 11.6984 33.6067 11.7784 32.94C11.8851 32.3267 12.0984 31.74 12.4184 31.18C12.7518 30.62 13.1718 30.1333 13.6784 29.72C14.1984 29.2933 14.7918 28.98 15.4584 28.78C16.1384 28.5667 16.8651 28.5067 17.6384 28.6C18.4118 28.6933 19.0718 28.9067 19.6184 29.24C20.1651 29.56 20.6318 29.9733 21.0184 30.48C21.3518 30.9067 21.5584 31.2267 21.6384 31.44C21.7051 31.6533 21.7718 31.8533 21.8384 32.04C21.8918 32.24 21.9518 32.4667 22.0184 32.72C22.0984 32.9733 22.1451 33.2067 22.1584 33.42C22.1851 33.9667 21.9784 34.3667 21.5384 34.62C21.3651 34.6867 21.1784 34.72 20.9784 34.72L17.5584 34.78C15.1584 34.7933 13.9584 34.82 13.9584 34.86H13.8984C14.2584 36.2467 15.3784 37.0067 17.2584 37.14C17.7784 37.1667 18.2118 37.14 18.5584 37.06C18.9451 36.9533 19.2251 36.86 19.3984 36.78C19.5718 36.6867 19.7851 36.5667 20.0384 36.42C20.3451 36.3133 20.6051 36.32 20.8184 36.44C21.0451 36.5467 21.1984 36.72 21.2784 36.96C21.3718 37.2 21.3784 37.4467 21.2984 37.7C21.2184 37.9533 21.0384 38.16 20.7584 38.32C20.5451 38.44 20.3251 38.54 20.0984 38.62C19.7784 38.7533 19.3851 38.8733 18.9184 38.98C18.4518 39.0733 17.8584 39.1133 17.1384 39.1ZM13.9384 32.9C14.7118 32.86 16.7184 32.82 19.9584 32.78C19.8384 32.38 19.6451 32 19.3784 31.64C18.8451 31.0267 18.1851 30.6733 17.3984 30.58C16.5718 30.4733 15.8451 30.6533 15.2184 31.12C14.5918 31.5733 14.1651 32.1667 13.9384 32.9ZM27.3739 38.94C27.2939 38.9133 27.1339 38.8733 26.8939 38.82C26.6406 38.7667 26.4272 38.7067 26.2539 38.64C25.8939 38.5067 25.5606 38.32 25.2539 38.08C24.9606 37.84 24.7139 37.4933 24.5139 37.04C24.3672 36.68 24.2739 35.9733 24.2339 34.92C24.1939 34.1067 24.1872 33.06 24.2139 31.78C24.2139 31.54 24.2206 31.14 24.2339 30.58L24.0739 30.6C23.7406 30.6267 23.4806 30.5533 23.2939 30.38C23.1072 30.1933 23.0006 29.9733 22.9739 29.72C22.9472 29.4667 23.0006 29.2333 23.1339 29.02C23.2806 28.7933 23.5139 28.6533 23.8339 28.6L24.2939 28.56C24.3072 27.8533 24.3272 27.14 24.3539 26.42C24.3672 26.0867 24.4806 25.8467 24.6939 25.7C24.9072 25.54 25.1406 25.4667 25.3939 25.48C25.6606 25.48 25.8872 25.5667 26.0739 25.74C26.2739 25.9133 26.3672 26.1667 26.3539 26.5L26.2939 28.4L26.9539 28.36C27.2872 28.3467 27.5406 28.4333 27.7139 28.62C27.9006 28.8067 28.0006 29.0333 28.0139 29.3C28.0406 29.5533 27.9806 29.7867 27.8339 30C27.6872 30.2133 27.4472 30.3333 27.1139 30.36L26.2339 30.4C26.2206 31.04 26.2139 31.5067 26.2139 31.8C26.1872 33.0533 26.1939 34.0733 26.2339 34.86C26.2472 35.34 26.2739 35.7267 26.3139 36.02C26.3539 36.3133 26.4606 36.5133 26.6339 36.62C26.6606 36.6467 26.7606 36.6867 26.9339 36.74C27.1206 36.7933 27.3206 36.8533 27.5339 36.92C27.7472 36.9733 27.9072 37.02 28.0139 37.06C28.3206 37.1533 28.5206 37.3267 28.6139 37.58C28.7072 37.82 28.7139 38.0667 28.6339 38.32C28.5539 38.56 28.4006 38.7533 28.1739 38.9C27.9606 39.0333 27.6939 39.0467 27.3739 38.94ZM29.8067 28.28C29.5801 28.1733 29.4201 28 29.3267 27.76C29.2467 27.52 29.2601 27.28 29.3667 27.04C29.7934 26.0133 30.2467 24.8867 30.7267 23.66C30.8201 23.4333 30.9801 23.2733 31.2067 23.18C31.4467 23.0733 31.6801 23.0667 31.9067 23.16C32.1334 23.24 32.3001 23.4 32.4067 23.64C32.5134 23.88 32.5201 24.1067 32.4267 24.32L31.0067 27.8C30.9134 28.0133 30.7467 28.1733 30.5067 28.28C30.2667 28.3733 30.0334 28.3733 29.8067 28.28ZM36.0181 39C35.0315 38.8267 34.3181 38.4267 33.8781 37.8C33.6648 37.52 33.5115 37.1467 33.4181 36.68L33.3381 36.24C33.3115 36.1067 33.2848 36 33.2581 35.92C33.1648 35.6267 33.1915 35.38 33.3381 35.18C33.4848 34.9667 33.6848 34.82 33.9381 34.74C34.1915 34.66 34.4381 34.6667 34.6781 34.76C34.9181 34.8533 35.0848 35.06 35.1781 35.38C35.2181 35.5267 35.2581 35.6933 35.2981 35.88C35.3115 35.9467 35.3248 36.0067 35.3381 36.06C35.3381 36.1267 35.3581 36.2333 35.3981 36.38C35.4381 36.5533 35.5315 36.7 35.6781 36.82C35.8381 36.9667 36.0781 37.06 36.3981 37.1C36.9315 37.2067 37.5048 37.1933 38.1181 37.06C38.7181 36.9267 39.1848 36.7333 39.5181 36.48C39.7581 36.2667 39.8581 36.0467 39.8181 35.82C39.7781 35.4467 39.5448 35.1667 39.1181 34.98C38.8515 34.86 38.1581 34.7 37.0381 34.5C35.8781 34.2733 35.0581 33.98 34.5781 33.62C33.6981 32.9667 33.4115 31.9933 33.7181 30.7C33.9048 29.9533 34.2848 29.4067 34.8581 29.06C35.4448 28.7 36.0915 28.5 36.7981 28.46C37.3981 28.4333 38.0048 28.5067 38.6181 28.68C39.2448 28.84 39.7781 29.0667 40.2181 29.36C40.2448 29.3733 40.3181 29.44 40.4381 29.56C40.5581 29.68 40.6915 29.8133 40.8381 29.96C40.9981 30.0933 41.1315 30.22 41.2381 30.34C41.3581 30.4467 41.4181 30.5 41.4181 30.5C41.6581 30.74 41.7648 30.9867 41.7381 31.24C41.7115 31.48 41.6048 31.6933 41.4181 31.88C41.2315 32.0533 41.0115 32.1533 40.7581 32.18C40.5048 32.1933 40.2581 32.0933 40.0181 31.88C39.8848 31.76 39.7515 31.6333 39.6181 31.5L39.3381 31.16C39.2581 31.0933 39.1648 31.0267 39.0581 30.96C38.8048 30.8 38.4781 30.6667 38.0781 30.56C37.6781 30.44 37.2848 30.3867 36.8981 30.4C36.1915 30.44 35.7848 30.6867 35.6781 31.14C35.5581 31.62 35.5981 31.9333 35.7981 32.08C36.0381 32.2533 36.5781 32.4267 37.4181 32.6C38.6581 32.8133 39.5048 33.02 39.9581 33.22C41.0515 33.7133 41.6715 34.5067 41.8181 35.6C41.9381 36.4933 41.6048 37.2667 40.8181 37.92C40.2181 38.4133 39.4581 38.7533 38.5381 38.94C37.6581 39.14 36.8181 39.16 36.0181 39ZM51.1711 42.02C51.1711 42.3533 51.0711 42.6 50.8711 42.76C50.6711 42.92 50.4378 42.9933 50.1711 42.98C49.9044 42.98 49.6711 42.8933 49.4711 42.72C49.2711 42.5467 49.1711 42.3 49.1711 41.98C49.2244 39.3533 49.2511 35.16 49.2511 29.4C49.2511 29.12 49.3444 28.8867 49.5311 28.7C49.7311 28.5 49.9711 28.4 50.2511 28.4C50.4511 28.4 50.6311 28.4933 50.7911 28.68C50.9644 28.8533 51.0911 29.0733 51.1711 29.34L51.4511 29.16C52.2511 28.68 53.0444 28.42 53.8311 28.38C54.6178 28.34 55.3244 28.5133 55.9511 28.9C56.5378 29.2333 57.0311 29.7 57.4311 30.3C57.8444 30.9 58.1444 31.5533 58.3311 32.26C58.4778 32.7667 58.5578 33.3067 58.5711 33.88C58.5844 34.4533 58.5111 34.9867 58.3511 35.48C58.1911 35.9733 57.9578 36.46 57.6511 36.94C57.3444 37.42 56.9111 37.84 56.3511 38.2C55.8044 38.56 55.1711 38.8067 54.4511 38.94C53.2111 39.1667 52.1378 38.9533 51.2311 38.3C51.2178 39.54 51.1978 40.78 51.1711 42.02ZM54.0911 36.98C55.1044 36.7933 55.8111 36.3133 56.2111 35.54C56.6244 34.7533 56.6911 33.8333 56.4111 32.78C56.1311 31.74 55.6444 31.0267 54.9511 30.64C54.2444 30.2267 53.4244 30.3067 52.4911 30.88C52.0644 31.1333 51.8178 31.3 51.7511 31.38C51.7111 31.42 51.6778 31.4533 51.6511 31.48C51.6244 31.52 51.5778 31.6 51.5111 31.72L51.2511 32.08V35.36C51.3178 35.4267 51.3711 35.5 51.4111 35.58C51.7844 36.1667 52.1778 36.5733 52.5911 36.8C53.0044 37.0267 53.5044 37.0867 54.0911 36.98ZM61.8327 39C61.566 39 61.3327 38.9133 61.1327 38.74C60.9327 38.5533 60.8327 38.3067 60.8327 38L60.7927 33.92C60.7793 33 60.7727 31.8533 60.7727 30.48V29.3C60.7727 28.9933 60.866 28.7533 61.0527 28.58C61.2393 28.4067 61.466 28.32 61.7327 28.32C62.0127 28.32 62.2527 28.4133 62.4527 28.6C62.666 28.7733 62.7727 29.02 62.7727 29.34V29.94C62.9193 29.62 63.1927 29.3467 63.5927 29.12C64.1393 28.7867 64.7393 28.62 65.3927 28.62C65.886 28.62 66.266 28.7 66.5327 28.86C66.7993 29.02 66.9327 29.3067 66.9327 29.72C66.9327 29.9867 66.8527 30.2133 66.6927 30.4C66.5327 30.5733 66.2993 30.66 65.9927 30.66C64.8727 30.66 64.0993 30.8133 63.6727 31.12C63.4327 31.28 63.2193 31.4733 63.0327 31.7C62.8593 31.9267 62.7727 32.1467 62.7727 32.36L62.8127 34.86L62.8327 38C62.8327 38.3067 62.7327 38.5533 62.5327 38.74C62.3327 38.9133 62.0993 39 61.8327 39ZM72.5486 39.1C71.5619 39.0333 70.7019 38.8333 69.9686 38.5C69.2353 38.1667 68.6753 37.7467 68.2886 37.24C67.9019 36.7333 67.6219 36.2667 67.4486 35.84C67.2753 35.4133 67.1686 34.9933 67.1286 34.58C67.0886 34.1533 67.1086 33.6067 67.1886 32.94C67.2953 32.3267 67.5086 31.74 67.8286 31.18C68.1619 30.62 68.5819 30.1333 69.0886 29.72C69.6086 29.2933 70.2019 28.98 70.8686 28.78C71.5486 28.5667 72.2753 28.5067 73.0486 28.6C73.8219 28.6933 74.4819 28.9067 75.0286 29.24C75.5753 29.56 76.0419 29.9733 76.4286 30.48C76.7619 30.9067 76.9686 31.2267 77.0486 31.44C77.1153 31.6533 77.1819 31.8533 77.2486 32.04C77.3019 32.24 77.3619 32.4667 77.4286 32.72C77.5086 32.9733 77.5553 33.2067 77.5686 33.42C77.5953 33.9667 77.3886 34.3667 76.9486 34.62C76.7753 34.6867 76.5886 34.72 76.3886 34.72L72.9686 34.78C70.5686 34.7933 69.3686 34.82 69.3686 34.86H69.3086C69.6686 36.2467 70.7886 37.0067 72.6686 37.14C73.1886 37.1667 73.6219 37.14 73.9686 37.06C74.3553 36.9533 74.6353 36.86 74.8086 36.78C74.9819 36.6867 75.1953 36.5667 75.4486 36.42C75.7553 36.3133 76.0153 36.32 76.2286 36.44C76.4553 36.5467 76.6086 36.72 76.6886 36.96C76.7819 37.2 76.7886 37.4467 76.7086 37.7C76.6286 37.9533 76.4486 38.16 76.1686 38.32C75.9553 38.44 75.7353 38.54 75.5086 38.62C75.1886 38.7533 74.7953 38.8733 74.3286 38.98C73.8619 39.0733 73.2686 39.1133 72.5486 39.1ZM69.3486 32.9C70.1219 32.86 72.1286 32.82 75.3686 32.78C75.2486 32.38 75.0553 32 74.7886 31.64C74.2553 31.0267 73.5953 30.6733 72.8086 30.58C71.9819 30.4733 71.2553 30.6533 70.6286 31.12C70.0019 31.5733 69.5753 32.1667 69.3486 32.9ZM81.4641 42.02C81.4641 42.3533 81.3641 42.6 81.1641 42.76C80.9641 42.92 80.7307 42.9933 80.4641 42.98C80.1974 42.98 79.9641 42.8933 79.7641 42.72C79.5641 42.5467 79.4641 42.3 79.4641 41.98C79.5174 39.3533 79.5441 35.16 79.5441 29.4C79.5441 29.12 79.6374 28.8867 79.8241 28.7C80.0241 28.5 80.2641 28.4 80.5441 28.4C80.7441 28.4 80.9241 28.4933 81.0841 28.68C81.2574 28.8533 81.3841 29.0733 81.4641 29.34L81.7441 29.16C82.5441 28.68 83.3374 28.42 84.1241 28.38C84.9107 28.34 85.6174 28.5133 86.2441 28.9C86.8307 29.2333 87.3241 29.7 87.7241 30.3C88.1374 30.9 88.4374 31.5533 88.6241 32.26C88.7707 32.7667 88.8507 33.3067 88.8641 33.88C88.8774 34.4533 88.8041 34.9867 88.6441 35.48C88.4841 35.9733 88.2507 36.46 87.9441 36.94C87.6374 37.42 87.2041 37.84 86.6441 38.2C86.0974 38.56 85.4641 38.8067 84.7441 38.94C83.5041 39.1667 82.4307 38.9533 81.5241 38.3C81.5107 39.54 81.4907 40.78 81.4641 42.02ZM84.3841 36.98C85.3974 36.7933 86.1041 36.3133 86.5041 35.54C86.9174 34.7533 86.9841 33.8333 86.7041 32.78C86.4241 31.74 85.9374 31.0267 85.2441 30.64C84.5374 30.2267 83.7174 30.3067 82.7841 30.88C82.3574 31.1333 82.1107 31.3 82.0441 31.38C82.0041 31.42 81.9707 31.4533 81.9441 31.48C81.9174 31.52 81.8707 31.6 81.8041 31.72L81.5441 32.08V35.36C81.6107 35.4267 81.6641 35.5 81.7041 35.58C82.0774 36.1667 82.4707 36.5733 82.8841 36.8C83.2974 37.0267 83.7974 37.0867 84.3841 36.98ZM98.5963 39C97.6096 38.8267 96.8963 38.4267 96.4563 37.8C96.2429 37.52 96.0896 37.1467 95.9963 36.68L95.9163 36.24C95.8896 36.1067 95.8629 36 95.8363 35.92C95.7429 35.6267 95.7696 35.38 95.9163 35.18C96.0629 34.9667 96.2629 34.82 96.5163 34.74C96.7696 34.66 97.0163 34.6667 97.2563 34.76C97.4963 34.8533 97.6629 35.06 97.7563 35.38C97.7963 35.5267 97.8363 35.6933 97.8763 35.88C97.8896 35.9467 97.9029 36.0067 97.9163 36.06C97.9163 36.1267 97.9363 36.2333 97.9763 36.38C98.0163 36.5533 98.1096 36.7 98.2563 36.82C98.4163 36.9667 98.6563 37.06 98.9763 37.1C99.5096 37.2067 100.083 37.1933 100.696 37.06C101.296 36.9267 101.763 36.7333 102.096 36.48C102.336 36.2667 102.436 36.0467 102.396 35.82C102.356 35.4467 102.123 35.1667 101.696 34.98C101.43 34.86 100.736 34.7 99.6163 34.5C98.4563 34.2733 97.6363 33.98 97.1563 33.62C96.2763 32.9667 95.9896 31.9933 96.2963 30.7C96.4829 29.9533 96.8629 29.4067 97.4363 29.06C98.0229 28.7 98.6696 28.5 99.3763 28.46C99.9763 28.4333 100.583 28.5067 101.196 28.68C101.823 28.84 102.356 29.0667 102.796 29.36C102.823 29.3733 102.896 29.44 103.016 29.56C103.136 29.68 103.27 29.8133 103.416 29.96C103.576 30.0933 103.71 30.22 103.816 30.34C103.936 30.4467 103.996 30.5 103.996 30.5C104.236 30.74 104.343 30.9867 104.316 31.24C104.29 31.48 104.183 31.6933 103.996 31.88C103.81 32.0533 103.59 32.1533 103.336 32.18C103.083 32.1933 102.836 32.0933 102.596 31.88C102.463 31.76 102.33 31.6333 102.196 31.5L101.916 31.16C101.836 31.0933 101.743 31.0267 101.636 30.96C101.383 30.8 101.056 30.6667 100.656 30.56C100.256 30.44 99.8629 30.3867 99.4763 30.4C98.7696 30.44 98.3629 30.6867 98.2563 31.14C98.1363 31.62 98.1763 31.9333 98.3763 32.08C98.6163 32.2533 99.1563 32.4267 99.9963 32.6C101.236 32.8133 102.083 33.02 102.536 33.22C103.63 33.7133 104.25 34.5067 104.396 35.6C104.516 36.4933 104.183 37.2667 103.396 37.92C102.796 38.4133 102.036 38.7533 101.116 38.94C100.236 39.14 99.3963 39.16 98.5963 39ZM111.799 38.86C110.039 39.2867 108.632 38.9333 107.579 37.8C106.739 36.9333 106.219 35.82 106.019 34.46C105.872 33.3933 105.999 32.38 106.399 31.42C106.879 30.1933 107.639 29.2867 108.679 28.7C108.892 28.58 109.159 28.4933 109.479 28.44C109.492 28.44 109.585 28.4333 109.759 28.42C109.825 28.4067 109.879 28.3933 109.919 28.38C110.119 28.34 110.319 28.36 110.519 28.44C110.625 28.44 110.779 28.4467 110.979 28.46C111.192 28.4733 111.399 28.4933 111.599 28.52C111.799 28.5333 111.952 28.5533 112.059 28.58L112.439 28.72C112.599 28.7733 112.752 28.84 112.899 28.92C113.045 29 113.205 29.0933 113.379 29.2C113.819 29.4933 114.185 29.86 114.479 30.3C114.772 30.7267 115.005 31.1867 115.179 31.68C115.352 32.16 115.459 32.6267 115.499 33.08C115.539 33.5333 115.519 33.92 115.439 34.24C115.319 34.96 115.105 35.6267 114.799 36.24C114.492 36.8667 114.065 37.42 113.519 37.9C112.985 38.38 112.412 38.7 111.799 38.86ZM111.179 36.78C111.685 36.7133 112.112 36.5133 112.459 36.18C112.805 35.8333 113.065 35.42 113.239 34.94C113.412 34.4467 113.492 33.94 113.479 33.42C113.465 32.8867 113.359 32.3933 113.159 31.94C112.959 31.4867 112.659 31.1333 112.259 30.88C112.112 30.7733 111.992 30.7 111.899 30.66C111.805 30.6067 111.699 30.56 111.579 30.52C111.499 30.5067 111.359 30.4933 111.159 30.48C110.972 30.4667 110.779 30.4533 110.579 30.44C110.379 30.4267 110.239 30.42 110.159 30.42C110.119 30.42 110.072 30.4133 110.019 30.4C109.872 30.4133 109.792 30.42 109.779 30.42L109.639 30.46C109.252 30.6733 108.919 30.98 108.639 31.38C108.372 31.7667 108.179 32.2067 108.059 32.7C107.939 33.18 107.925 33.6667 108.019 34.16C108.165 35.0667 108.492 35.7533 108.999 36.22C109.545 36.7267 110.272 36.9133 111.179 36.78ZM129.866 38.12C129.866 38.0133 129.852 37.84 129.826 37.6C129.812 37.3467 129.792 37.1067 129.766 36.88C129.752 36.6533 129.746 36.52 129.746 36.48V35.34C129.746 35.0067 129.752 34.62 129.766 34.18C129.779 33.74 129.786 33.3133 129.786 32.9C129.786 32.4733 129.752 32.1 129.686 31.78C129.606 31.3133 129.466 30.98 129.266 30.78C129.066 30.5667 128.759 30.46 128.346 30.46C127.426 30.4733 126.506 31.0333 125.586 32.14C125.626 32.54 125.646 33.3133 125.646 34.46C125.646 35.3 125.666 36.4733 125.706 37.98C125.719 38.3133 125.626 38.5667 125.426 38.74C125.239 38.9 125.012 38.9867 124.746 39C124.492 39 124.259 38.92 124.046 38.76C123.832 38.6 123.719 38.3533 123.706 38.02C123.666 36.5133 123.646 35.3267 123.646 34.46V33.46C123.646 33.3933 123.639 33.2533 123.626 33.04C123.626 32.8267 123.626 32.6667 123.626 32.56C123.612 32.4133 123.586 32.2067 123.546 31.94C123.506 31.6733 123.466 31.48 123.426 31.36C123.319 30.9867 123.172 30.7267 122.986 30.58C122.786 30.42 122.486 30.36 122.086 30.4C121.646 30.44 121.266 30.56 120.946 30.76C120.639 30.96 120.326 31.28 120.006 31.72C119.939 31.8 119.866 31.8733 119.786 31.94C119.839 34.6067 119.839 36.64 119.786 38.04C119.772 38.3733 119.659 38.62 119.446 38.78C119.232 38.9267 118.992 39 118.726 39C118.472 38.9867 118.246 38.8933 118.046 38.72C117.859 38.5467 117.772 38.2933 117.786 37.96C117.812 36.48 117.826 35.5267 117.826 35.1C117.826 34.5533 117.819 33.9333 117.806 33.24C117.792 32.5467 117.772 31.86 117.746 31.18C117.732 30.4867 117.726 29.86 117.726 29.3C117.726 29.0467 117.826 28.84 118.026 28.68C118.239 28.52 118.479 28.4333 118.746 28.42C119.012 28.3933 119.246 28.4733 119.446 28.66C119.646 28.8333 119.739 29.14 119.726 29.58C120.326 28.8733 121.059 28.48 121.926 28.4C122.846 28.32 123.612 28.5267 124.226 29.02C124.546 29.2733 124.832 29.6267 125.086 30.08C125.912 29.04 126.999 28.48 128.346 28.4C129.332 28.3867 130.126 28.6933 130.726 29.32C131.192 29.8667 131.506 30.5667 131.666 31.42C131.732 31.8333 131.766 32.2867 131.766 32.78C131.779 33.26 131.779 33.7267 131.766 34.18C131.752 34.6333 131.746 35.02 131.746 35.34V36.44C131.746 36.4667 131.752 36.5867 131.766 36.8C131.779 37 131.792 37.22 131.806 37.46C131.832 37.6867 131.852 37.8533 131.866 37.96C131.879 38.2933 131.792 38.5533 131.606 38.74C131.419 38.9133 131.192 39.0067 130.926 39.02C130.672 39.0333 130.439 38.9667 130.226 38.82C130.012 38.6733 129.892 38.44 129.866 38.12ZM139.209 39.1C138.222 39.0333 137.362 38.8333 136.629 38.5C135.895 38.1667 135.335 37.7467 134.949 37.24C134.562 36.7333 134.282 36.2667 134.109 35.84C133.935 35.4133 133.829 34.9933 133.789 34.58C133.749 34.1533 133.769 33.6067 133.849 32.94C133.955 32.3267 134.169 31.74 134.489 31.18C134.822 30.62 135.242 30.1333 135.749 29.72C136.269 29.2933 136.862 28.98 137.529 28.78C138.209 28.5667 138.935 28.5067 139.709 28.6C140.482 28.6933 141.142 28.9067 141.689 29.24C142.235 29.56 142.702 29.9733 143.089 30.48C143.422 30.9067 143.629 31.2267 143.709 31.44C143.775 31.6533 143.842 31.8533 143.909 32.04C143.962 32.24 144.022 32.4667 144.089 32.72C144.169 32.9733 144.215 33.2067 144.229 33.42C144.255 33.9667 144.049 34.3667 143.609 34.62C143.435 34.6867 143.249 34.72 143.049 34.72L139.629 34.78C137.229 34.7933 136.029 34.82 136.029 34.86H135.969C136.329 36.2467 137.449 37.0067 139.329 37.14C139.849 37.1667 140.282 37.14 140.629 37.06C141.015 36.9533 141.295 36.86 141.469 36.78C141.642 36.6867 141.855 36.5667 142.109 36.42C142.415 36.3133 142.675 36.32 142.889 36.44C143.115 36.5467 143.269 36.72 143.349 36.96C143.442 37.2 143.449 37.4467 143.369 37.7C143.289 37.9533 143.109 38.16 142.829 38.32C142.615 38.44 142.395 38.54 142.169 38.62C141.849 38.7533 141.455 38.8733 140.989 38.98C140.522 39.0733 139.929 39.1133 139.209 39.1ZM136.009 32.9C136.782 32.86 138.789 32.82 142.029 32.78C141.909 32.38 141.715 32 141.449 31.64C140.915 31.0267 140.255 30.6733 139.469 30.58C138.642 30.4733 137.915 30.6533 137.289 31.12C136.662 31.5733 136.235 32.1667 136.009 32.9ZM13.44 62.12C13.44 62.0133 13.4267 61.84 13.4 61.6C13.3867 61.3467 13.3667 61.1067 13.34 60.88C13.3267 60.6533 13.32 60.52 13.32 60.48V59.34C13.32 59.0067 13.3267 58.62 13.34 58.18C13.3533 57.74 13.36 57.3133 13.36 56.9C13.36 56.4733 13.3267 56.1 13.26 55.78C13.18 55.3133 13.04 54.98 12.84 54.78C12.64 54.5667 12.3333 54.46 11.92 54.46C11 54.4733 10.08 55.0333 9.16 56.14C9.2 56.54 9.22 57.3133 9.22 58.46C9.22 59.3 9.24 60.4733 9.28 61.98C9.29333 62.3133 9.2 62.5667 9 62.74C8.81333 62.9 8.58667 62.9867 8.32 63C8.06667 63 7.83333 62.92 7.62 62.76C7.40667 62.6 7.29333 62.3533 7.28 62.02C7.24 60.5133 7.22 59.3267 7.22 58.46V57.46C7.22 57.3933 7.21333 57.2533 7.2 57.04C7.2 56.8267 7.2 56.6667 7.2 56.56C7.18667 56.4133 7.16 56.2067 7.12 55.94C7.08 55.6733 7.04 55.48 7 55.36C6.89333 54.9867 6.74667 54.7267 6.56 54.58C6.36 54.42 6.06 54.36 5.66 54.4C5.22 54.44 4.84 54.56 4.52 54.76C4.21333 54.96 3.9 55.28 3.58 55.72C3.51333 55.8 3.44 55.8733 3.36 55.94C3.41333 58.6067 3.41333 60.64 3.36 62.04C3.34667 62.3733 3.23333 62.62 3.02 62.78C2.80667 62.9267 2.56667 63 2.3 63C2.04667 62.9867 1.82 62.8933 1.62 62.72C1.43333 62.5467 1.34667 62.2933 1.36 61.96C1.38667 60.48 1.4 59.5267 1.4 59.1C1.4 58.5533 1.39333 57.9333 1.38 57.24C1.36667 56.5467 1.34667 55.86 1.32 55.18C1.30667 54.4867 1.3 53.86 1.3 53.3C1.3 53.0467 1.4 52.84 1.6 52.68C1.81333 52.52 2.05333 52.4333 2.32 52.42C2.58667 52.3933 2.82 52.4733 3.02 52.66C3.22 52.8333 3.31333 53.14 3.3 53.58C3.9 52.8733 4.63333 52.48 5.5 52.4C6.42 52.32 7.18667 52.5267 7.8 53.02C8.12 53.2733 8.40667 53.6267 8.66 54.08C9.48667 53.04 10.5733 52.48 11.92 52.4C12.9067 52.3867 13.7 52.6933 14.3 53.32C14.7667 53.8667 15.08 54.5667 15.24 55.42C15.3067 55.8333 15.34 56.2867 15.34 56.78C15.3533 57.26 15.3533 57.7267 15.34 58.18C15.3267 58.6333 15.32 59.02 15.32 59.34V60.44C15.32 60.4667 15.3267 60.5867 15.34 60.8C15.3533 61 15.3667 61.22 15.38 61.46C15.4067 61.6867 15.4267 61.8533 15.44 61.96C15.4533 62.2933 15.3667 62.5533 15.18 62.74C14.9933 62.9133 14.7667 63.0067 14.5 63.02C14.2467 63.0333 14.0133 62.9667 13.8 62.82C13.5867 62.6733 13.4667 62.44 13.44 62.12ZM22.783 63.1C21.7963 63.0333 20.9363 62.8333 20.203 62.5C19.4696 62.1667 18.9096 61.7467 18.523 61.24C18.1363 60.7333 17.8563 60.2667 17.683 59.84C17.5096 59.4133 17.403 58.9933 17.363 58.58C17.323 58.1533 17.343 57.6067 17.423 56.94C17.5296 56.3267 17.743 55.74 18.063 55.18C18.3963 54.62 18.8163 54.1333 19.323 53.72C19.843 53.2933 20.4363 52.98 21.103 52.78C21.783 52.5667 22.5096 52.5067 23.283 52.6C24.0563 52.6933 24.7163 52.9067 25.263 53.24C25.8096 53.56 26.2763 53.9733 26.663 54.48C26.9963 54.9067 27.203 55.2267 27.283 55.44C27.3496 55.6533 27.4163 55.8533 27.483 56.04C27.5363 56.24 27.5963 56.4667 27.663 56.72C27.743 56.9733 27.7896 57.2067 27.803 57.42C27.8296 57.9667 27.623 58.3667 27.183 58.62C27.0096 58.6867 26.823 58.72 26.623 58.72L23.203 58.78C20.803 58.7933 19.603 58.82 19.603 58.86H19.543C19.903 60.2467 21.023 61.0067 22.903 61.14C23.423 61.1667 23.8563 61.14 24.203 61.06C24.5896 60.9533 24.8696 60.86 25.043 60.78C25.2163 60.6867 25.4296 60.5667 25.683 60.42C25.9896 60.3133 26.2496 60.32 26.463 60.44C26.6896 60.5467 26.843 60.72 26.923 60.96C27.0163 61.2 27.023 61.4467 26.943 61.7C26.863 61.9533 26.683 62.16 26.403 62.32C26.1896 62.44 25.9696 62.54 25.743 62.62C25.423 62.7533 25.0296 62.8733 24.563 62.98C24.0963 63.0733 23.503 63.1133 22.783 63.1ZM19.583 56.9C20.3563 56.86 22.363 56.82 25.603 56.78C25.483 56.38 25.2896 56 25.023 55.64C24.4896 55.0267 23.8296 54.6733 23.043 54.58C22.2163 54.4733 21.4896 54.6533 20.863 55.12C20.2363 55.5733 19.8096 56.1667 19.583 56.9ZM35.2584 62.68C34.7784 62.8667 34.2384 62.9733 33.6384 63C32.3984 63.0533 31.3718 62.7267 30.5584 62.02C29.8651 61.4467 29.4184 60.7333 29.2184 59.88C29.0184 59.0267 29.0118 58.26 29.1984 57.58C29.3851 56.9 29.6718 56.2333 30.0584 55.58C30.5518 54.7267 31.1384 54.02 31.8184 53.46C32.5118 52.9 33.2651 52.5533 34.0784 52.42C34.9051 52.2867 35.7784 52.4467 36.6984 52.9C36.8051 52.9533 36.9184 53.0333 37.0384 53.14C37.1718 53.2467 37.2851 53.34 37.3784 53.42L37.6384 53.68C37.7184 53.76 37.7584 53.8067 37.7584 53.82C37.9718 54.0067 38.0851 54.2467 38.0984 54.54C38.2718 55.34 38.3851 56.18 38.4384 57.06C38.4651 57.5 38.4784 58.0267 38.4784 58.64C38.4784 59.24 38.4784 59.8467 38.4784 60.46C38.4918 61.06 38.5051 61.5733 38.5184 62C38.5318 62.32 38.4384 62.5667 38.2384 62.74C38.0518 62.9133 37.8251 63 37.5584 63C37.3051 63.0133 37.0718 62.9467 36.8584 62.8C36.6451 62.64 36.5318 62.4 36.5184 62.08V61.78C36.1184 62.1933 35.6984 62.4933 35.2584 62.68ZM34.3584 60.88C34.5984 60.8133 34.9251 60.6733 35.3384 60.46C35.7518 60.2467 36.1051 59.92 36.3984 59.48C36.4251 59.4533 36.4584 59.4267 36.4984 59.4C36.4984 57.6 36.3851 56.1533 36.1584 55.06C36.0384 54.9 35.8984 54.7667 35.7384 54.66C35.0984 54.3133 34.4251 54.3067 33.7184 54.64C33.0118 54.96 32.3918 55.5667 31.8584 56.46C30.8051 58.2467 30.7984 59.5933 31.8384 60.5C32.1451 60.7533 32.5251 60.9133 32.9784 60.98C33.4318 61.0467 33.8918 61.0133 34.3584 60.88ZM42.9266 62.04C42.9132 62.3733 42.7999 62.62 42.5866 62.78C42.3732 62.9267 42.1332 63 41.8666 63C41.6132 62.9867 41.3866 62.8933 41.1866 62.72C40.9999 62.5467 40.9132 62.2933 40.9266 61.96C40.9799 60.1867 41.0066 58.84 41.0066 57.92C41.0066 57.12 40.9999 56.2333 40.9866 55.26C40.9732 54.2867 40.9599 53.3133 40.9466 52.34C40.9332 51.3667 40.9266 50.48 40.9266 49.68C40.9266 49.3467 41.0266 49.1 41.2266 48.94C41.4266 48.7667 41.6599 48.68 41.9266 48.68C42.1932 48.68 42.4266 48.7667 42.6266 48.94C42.8266 49.1 42.9266 49.3467 42.9266 49.68C42.9266 50.6 42.9399 51.9067 42.9666 53.6C42.9932 55.2933 42.9999 56.8333 42.9866 58.22C42.9866 59.5933 42.9666 60.8667 42.9266 62.04ZM47.6197 63C46.633 62.8267 45.9197 62.4267 45.4797 61.8C45.2664 61.52 45.113 61.1467 45.0197 60.68L44.9397 60.24C44.913 60.1067 44.8864 60 44.8597 59.92C44.7664 59.6267 44.793 59.38 44.9397 59.18C45.0864 58.9667 45.2864 58.82 45.5397 58.74C45.793 58.66 46.0397 58.6667 46.2797 58.76C46.5197 58.8533 46.6864 59.06 46.7797 59.38C46.8197 59.5267 46.8597 59.6933 46.8997 59.88C46.913 59.9467 46.9264 60.0067 46.9397 60.06C46.9397 60.1267 46.9597 60.2333 46.9997 60.38C47.0397 60.5533 47.133 60.7 47.2797 60.82C47.4397 60.9667 47.6797 61.06 47.9997 61.1C48.533 61.2067 49.1064 61.1933 49.7197 61.06C50.3197 60.9267 50.7864 60.7333 51.1197 60.48C51.3597 60.2667 51.4597 60.0467 51.4197 59.82C51.3797 59.4467 51.1464 59.1667 50.7197 58.98C50.453 58.86 49.7597 58.7 48.6397 58.5C47.4797 58.2733 46.6597 57.98 46.1797 57.62C45.2997 56.9667 45.013 55.9933 45.3197 54.7C45.5064 53.9533 45.8864 53.4067 46.4597 53.06C47.0464 52.7 47.693 52.5 48.3997 52.46C48.9997 52.4333 49.6064 52.5067 50.2197 52.68C50.8464 52.84 51.3797 53.0667 51.8197 53.36C51.8464 53.3733 51.9197 53.44 52.0397 53.56C52.1597 53.68 52.293 53.8133 52.4397 53.96C52.5997 54.0933 52.733 54.22 52.8397 54.34C52.9597 54.4467 53.0197 54.5 53.0197 54.5C53.2597 54.74 53.3664 54.9867 53.3397 55.24C53.313 55.48 53.2064 55.6933 53.0197 55.88C52.833 56.0533 52.613 56.1533 52.3597 56.18C52.1064 56.1933 51.8597 56.0933 51.6197 55.88C51.4864 55.76 51.353 55.6333 51.2197 55.5L50.9397 55.16C50.8597 55.0933 50.7664 55.0267 50.6597 54.96C50.4064 54.8 50.0797 54.6667 49.6797 54.56C49.2797 54.44 48.8864 54.3867 48.4997 54.4C47.793 54.44 47.3864 54.6867 47.2797 55.14C47.1597 55.62 47.1997 55.9333 47.3997 56.08C47.6397 56.2533 48.1797 56.4267 49.0197 56.6C50.2597 56.8133 51.1064 57.02 51.5597 57.22C52.653 57.7133 53.273 58.5067 53.4197 59.6C53.5397 60.4933 53.2064 61.2667 52.4197 61.92C51.8197 62.4133 51.0597 62.7533 50.1397 62.94C49.2597 63.14 48.4197 63.16 47.6197 63ZM66.3327 62.68C65.8527 62.8667 65.3127 62.9733 64.7127 63C63.4727 63.0533 62.446 62.7267 61.6327 62.02C60.9393 61.4467 60.4927 60.7333 60.2927 59.88C60.0927 59.0267 60.086 58.26 60.2727 57.58C60.4593 56.9 60.746 56.2333 61.1327 55.58C61.626 54.7267 62.2127 54.02 62.8927 53.46C63.586 52.9 64.3393 52.5533 65.1527 52.42C65.9793 52.2867 66.8527 52.4467 67.7727 52.9C67.8793 52.9533 67.9927 53.0333 68.1127 53.14C68.246 53.2467 68.3593 53.34 68.4527 53.42L68.7127 53.68C68.7927 53.76 68.8327 53.8067 68.8327 53.82C69.046 54.0067 69.1593 54.2467 69.1727 54.54C69.346 55.34 69.4593 56.18 69.5127 57.06C69.5393 57.5 69.5527 58.0267 69.5527 58.64C69.5527 59.24 69.5527 59.8467 69.5527 60.46C69.566 61.06 69.5793 61.5733 69.5927 62C69.606 62.32 69.5127 62.5667 69.3127 62.74C69.126 62.9133 68.8993 63 68.6327 63C68.3793 63.0133 68.146 62.9467 67.9327 62.8C67.7193 62.64 67.606 62.4 67.5927 62.08V61.78C67.1927 62.1933 66.7727 62.4933 66.3327 62.68ZM65.4327 60.88C65.6727 60.8133 65.9993 60.6733 66.4127 60.46C66.826 60.2467 67.1793 59.92 67.4727 59.48C67.4993 59.4533 67.5327 59.4267 67.5727 59.4C67.5727 57.6 67.4593 56.1533 67.2327 55.06C67.1127 54.9 66.9727 54.7667 66.8127 54.66C66.1727 54.3133 65.4993 54.3067 64.7927 54.64C64.086 54.96 63.466 55.5667 62.9327 56.46C61.8793 58.2467 61.8727 59.5933 62.9127 60.5C63.2193 60.7533 63.5993 60.9133 64.0527 60.98C64.506 61.0467 64.966 61.0133 65.4327 60.88ZM76.6408 67.1C75.8674 67.1667 75.1208 67.08 74.4008 66.84C73.6941 66.6 73.1074 66.18 72.6408 65.58C72.4674 65.3533 72.3208 65.0733 72.2008 64.74C72.0941 64.4067 72.1074 64.1133 72.2408 63.86C72.3874 63.6067 72.5874 63.4467 72.8408 63.38C73.0941 63.3133 73.3408 63.3333 73.5808 63.44C73.8208 63.56 73.9874 63.76 74.0808 64.04C74.1074 64.1467 74.1408 64.2867 74.1808 64.46C74.2208 64.6467 74.3674 64.8267 74.6208 65C75.2208 65.2133 75.8808 65.3067 76.6008 65.28C77.2541 65.2533 77.7541 65.1133 78.1008 64.86C78.4474 64.62 78.6674 64.34 78.7608 64.02C78.8941 63.5667 79.0008 62.8467 79.0808 61.86C78.5741 62.3933 77.8074 62.7133 76.7808 62.82C75.9008 62.86 75.1141 62.7333 74.4208 62.44C73.7141 62.16 73.1541 61.7533 72.7408 61.22C72.3408 60.6867 72.0474 60.0933 71.8608 59.44C71.6741 58.8133 71.6074 58.0267 71.6608 57.08C71.7674 55.6133 72.3408 54.4333 73.3808 53.54C74.5408 52.62 75.9408 52.2933 77.5808 52.56C78.1808 52.76 78.6541 53 79.0008 53.28C79.0141 52.7467 79.2674 52.42 79.7608 52.3C80.0808 52.2733 80.3341 52.3467 80.5208 52.52C80.7208 52.6933 80.8408 52.9133 80.8808 53.18C81.0274 54.8067 81.1141 56.7933 81.1408 59.14C81.1541 60.4733 81.1141 61.5867 81.0208 62.48C80.9141 63.8133 80.6008 64.8067 80.0808 65.46C79.7341 65.9 79.3874 66.2267 79.0408 66.44C78.7074 66.6667 78.3474 66.82 77.9608 66.9C77.5741 66.9933 77.1341 67.06 76.6408 67.1ZM76.6408 60.78C77.1341 60.7933 77.5141 60.7333 77.7808 60.6C78.5541 60.36 79.0008 59.7267 79.1208 58.7C79.1874 57.9133 79.1541 57.16 79.0208 56.44C78.9274 55.9867 78.6541 55.5933 78.2008 55.26C77.9341 55.0467 77.5941 54.9067 77.1808 54.84C76.1141 54.6533 75.2941 54.8133 74.7208 55.32C74.1741 55.76 73.8608 56.4067 73.7808 57.26C73.7141 58.38 73.9341 59.2533 74.4408 59.88C74.9608 60.4933 75.6941 60.7933 76.6408 60.78ZM89.2428 62.68C88.7628 62.8667 88.2228 62.9733 87.6228 63C86.3828 63.0533 85.3561 62.7267 84.5428 62.02C83.8495 61.4467 83.4028 60.7333 83.2028 59.88C83.0028 59.0267 82.9961 58.26 83.1828 57.58C83.3695 56.9 83.6561 56.2333 84.0428 55.58C84.5361 54.7267 85.1228 54.02 85.8028 53.46C86.4961 52.9 87.2495 52.5533 88.0628 52.42C88.8895 52.2867 89.7628 52.4467 90.6828 52.9C90.7895 52.9533 90.9028 53.0333 91.0228 53.14C91.1561 53.2467 91.2695 53.34 91.3628 53.42L91.6228 53.68C91.7028 53.76 91.7428 53.8067 91.7428 53.82C91.9561 54.0067 92.0695 54.2467 92.0828 54.54C92.2561 55.34 92.3695 56.18 92.4228 57.06C92.4495 57.5 92.4628 58.0267 92.4628 58.64C92.4628 59.24 92.4628 59.8467 92.4628 60.46C92.4761 61.06 92.4895 61.5733 92.5028 62C92.5161 62.32 92.4228 62.5667 92.2228 62.74C92.0361 62.9133 91.8095 63 91.5428 63C91.2895 63.0133 91.0561 62.9467 90.8428 62.8C90.6295 62.64 90.5161 62.4 90.5028 62.08V61.78C90.1028 62.1933 89.6828 62.4933 89.2428 62.68ZM88.3428 60.88C88.5828 60.8133 88.9095 60.6733 89.3228 60.46C89.7361 60.2467 90.0895 59.92 90.3828 59.48C90.4095 59.4533 90.4428 59.4267 90.4828 59.4C90.4828 57.6 90.3695 56.1533 90.1428 55.06C90.0228 54.9 89.8828 54.7667 89.7228 54.66C89.0828 54.3133 88.4095 54.3067 87.7028 54.64C86.9961 54.96 86.3761 55.5667 85.8428 56.46C84.7895 58.2467 84.7828 59.5933 85.8228 60.5C86.1295 60.7533 86.5095 60.9133 86.9628 60.98C87.4161 61.0467 87.8761 61.0133 88.3428 60.88ZM95.0309 62.04C95.0043 61.04 95.0109 59.5067 95.0509 57.44C95.0776 55.3733 95.0909 54.02 95.0909 53.38C95.0909 53.0467 95.1909 52.8 95.3909 52.64C95.5909 52.4667 95.8243 52.38 96.0909 52.38C96.3576 52.38 96.5909 52.4667 96.7909 52.64C96.9909 52.8 97.0909 53.0467 97.0909 53.38C97.0909 54.02 97.0776 55.3667 97.0509 57.42C97.0109 59.4733 97.0043 61 97.0309 62C97.0309 62.32 96.9309 62.5667 96.7309 62.74C96.5309 62.9133 96.2976 63 96.0309 63C95.7643 63.0133 95.5309 62.94 95.3309 62.78C95.1309 62.62 95.0309 62.3733 95.0309 62.04ZM96.8909 48.92C97.1709 49.2 97.2909 49.4933 97.2509 49.8C97.2243 50.1067 97.0976 50.3733 96.8709 50.6C96.6576 50.8133 96.3976 50.94 96.0909 50.98C95.7843 51.0067 95.4909 50.88 95.2109 50.6C94.9309 50.32 94.8109 50.0267 94.8509 49.72C94.8909 49.4133 95.0243 49.1467 95.2509 48.92C95.4776 48.6933 95.7443 48.5667 96.0509 48.54C96.3576 48.5 96.6376 48.6267 96.8909 48.92ZM100.758 63C100.492 63 100.258 62.9133 100.058 62.74C99.8584 62.5533 99.7584 62.3067 99.7584 62C99.7584 60.9467 99.7518 60.04 99.7384 59.28C99.7118 57.0133 99.6984 55.0467 99.6984 53.38C99.6984 53.0733 99.7918 52.8333 99.9784 52.66C100.165 52.4867 100.392 52.4 100.658 52.4C100.938 52.4 101.178 52.4933 101.378 52.68C101.592 52.8533 101.698 53.1 101.698 53.42V54.04C102.525 52.96 103.612 52.42 104.958 52.42C106.118 52.42 107.005 52.8267 107.618 53.64C108.245 54.4533 108.558 55.5467 108.558 56.92C108.558 58.44 108.538 59.44 108.498 59.92L108.398 61.26L108.338 62.12C108.312 62.3867 108.205 62.6 108.018 62.76C107.832 62.92 107.612 63 107.358 63C107.092 63 106.858 62.9133 106.658 62.74C106.458 62.5533 106.358 62.3067 106.358 62C106.358 61.7867 106.405 61.0467 106.498 59.78C106.565 58.9133 106.598 58.2333 106.598 57.74C106.598 56.6067 106.438 55.7733 106.118 55.24C105.798 54.6933 105.305 54.42 104.638 54.42C104.158 54.42 103.658 54.5667 103.138 54.86C102.632 55.1533 102.152 55.5267 101.698 55.98L101.738 58.82L101.758 62C101.758 62.3067 101.658 62.5533 101.458 62.74C101.258 62.9133 101.025 63 100.758 63ZM112.428 61.02C112.708 61.2867 112.834 61.5733 112.808 61.88C112.781 62.1733 112.654 62.4267 112.428 62.64C112.214 62.8533 111.954 62.9733 111.648 63C111.354 63.0267 111.081 62.9067 110.828 62.64C110.548 62.36 110.428 62.0733 110.468 61.78C110.508 61.4867 110.634 61.2333 110.848 61.02C111.061 60.8067 111.314 60.6867 111.608 60.66C111.901 60.6333 112.174 60.7533 112.428 61.02Z" fill="url(#paint0_linear_51_399)"/>
<defs>
<linearGradient id="paint0_linear_51_399" x1="0" y1="33" x2="195" y2="33" gradientUnits="userSpaceOnUse">
<stop stop-color="#834C34"/>
<stop offset="1" stop-color="#DDA360"/>
</linearGradient>
</defs>
</svg>
